<svg width="55" height="46" viewBox="0 0 55 46" fill="none" xmlns="http://www.w3.org/2000/svg">
<path d="M36.042 4.94824C36.6252 4.94824 37.0986 5.42162 37.0986 6.00488C37.0984 6.58793 36.6251 7.06055 36.042 7.06055C33.0867 7.06073 30.4316 9.03981 29.5898 11.8682C29.4242 12.4256 28.8374 12.7463 28.2764 12.5791C27.718 12.4126 27.3989 11.825 27.5654 11.2656C28.6492 7.62369 32.0243 4.94842 36.042 4.94824Z" fill="#005CFF" stroke="#005CFF"/>
<path d="M12.1484 4.97363C17.3846 -1.4315 27.3238 -0.853668 31.79 6.03711C33.0877 5.32233 34.5383 4.94824 36.042 4.94824C40.9953 4.94848 44.9521 9.02671 44.8828 13.9033C49.8792 14.4313 53.7839 18.6687 53.7842 23.8027C53.7842 29.2928 49.3187 33.7575 43.8291 33.7578V33.7588H40.4912C39.9083 33.7586 39.4358 33.2861 39.4355 32.7031C39.4355 32.12 39.9081 31.6467 40.4912 31.6465H43.8291C48.1529 31.6463 51.6716 28.1275 51.6719 23.8037C51.6719 19.4797 48.153 15.9601 43.8291 15.96H43.748C43.4421 15.9598 43.1509 15.8273 42.9502 15.5957C42.7499 15.3645 42.6593 15.0568 42.7031 14.7529C42.7494 14.4297 42.7725 14.1053 42.7725 13.791C42.7722 10.0806 39.7524 7.06068 36.042 7.06055C34.5974 7.06055 33.222 7.51131 32.0605 8.36523C31.5402 8.74761 30.8 8.57837 30.499 8.00586C27.1331 1.59645 18.3415 0.734517 13.7832 6.31055C11.8629 8.65973 11.1091 11.7151 11.7139 14.6943C11.8464 15.3496 11.345 15.9608 10.6787 15.9609H10.4561C6.13196 15.9609 2.6123 19.4796 2.6123 23.8037C2.61233 28.1278 6.13197 31.6465 10.4561 31.6465H13.793C14.3762 31.6465 14.8486 32.1199 14.8486 32.7031C14.8486 33.2863 14.3762 33.7597 13.793 33.7598H10.4561C4.9662 33.7598 0.500048 29.2936 0.5 23.8037C0.5 18.65 4.4352 14.3991 9.45898 13.8975C9.13548 10.6922 10.0861 7.4958 12.1475 4.97363H12.1484Z" fill="#005CFF" stroke="#005CFF"/>
<path d="M27.6045 18.8936C34.9231 18.8936 40.8767 24.8466 40.877 32.1651C40.877 39.4837 34.9232 45.4376 27.6045 45.4376C20.2861 45.4373 14.333 39.4837 14.333 32.1651C14.3332 24.8468 20.2861 18.8938 27.6045 18.8936ZM27.6045 20.627C21.2429 20.6272 16.0666 25.8036 16.0664 32.1651C16.0664 38.5268 21.2429 43.7039 27.6045 43.7042C33.9663 43.7042 39.1436 38.5269 39.1436 32.1651C39.1433 25.8034 33.9661 20.627 27.6045 20.627Z" fill="#005CFF" stroke="#005CFF" stroke-width="0.7"/>
<path d="M27.4697 26.7412C27.8326 26.7412 28.127 27.0355 28.127 27.3984V37.9863C28.1268 38.3495 27.8324 38.6435 27.4697 38.6436C27.1069 38.6436 26.8127 38.3491 26.8125 37.9863V27.3984C26.8125 27.0355 27.1068 26.7412 27.4697 26.7412Z" fill="#005CFF" stroke="#005CFF" stroke-width="0.5"/>
<path d="M27.1064 26.8506C27.3616 26.6817 27.7089 26.7099 27.9336 26.9346L31.1914 30.1924C31.4479 30.4491 31.448 30.8654 31.1914 31.1221L31.1904 31.1211C31.0619 31.2499 30.8937 31.3144 30.7266 31.3145C30.5589 31.3145 30.3899 31.2501 30.2617 31.1221L27.4688 28.3291L24.6758 31.1221C24.4192 31.3789 24.0027 31.3786 23.7461 31.1221C23.4894 30.8654 23.4894 30.4491 23.7461 30.1924L27.0039 26.9346L27.1064 26.8506Z" fill="#005CFF" stroke="#005CFF" stroke-width="0.5"/>
</svg>
