<svg width="24" height="24" viewBox="0 0 24 24" fill="none" xmlns="http://www.w3.org/2000/svg">
<path opacity="0.5" d="M12 22C17.5228 22 22 17.5228 22 12C22 6.47715 17.5228 2 12 2C6.47715 2 2 6.47715 2 12C2 13.5997 2.37562 15.1116 3.04346 16.4525C3.22094 16.8088 3.28001 17.2161 3.17712 17.6006L2.58151 19.8267C2.32295 20.793 3.20701 21.677 4.17335 21.4185L6.39938 20.8229C6.78393 20.72 7.19121 20.7791 7.54753 20.9565C8.88837 21.6244 10.4003 22 12 22Z" fill="#171717"/>
<path fill-rule="evenodd" clip-rule="evenodd" d="M12.0003 6.77539C11.5447 6.77539 11.1753 7.14476 11.1753 7.60039V16.4004C11.1753 16.856 11.5447 17.2254 12.0003 17.2254C12.4559 17.2254 12.8253 16.856 12.8253 16.4004V7.60039C12.8253 7.14476 12.4559 6.77539 12.0003 6.77539Z" fill="#171717"/>
<path fill-rule="evenodd" clip-rule="evenodd" d="M7.60039 8.97534C7.14476 8.97534 6.77539 9.34471 6.77539 9.80034V14.2004C6.77539 14.656 7.14476 15.0254 7.60039 15.0254C8.05603 15.0254 8.42539 14.656 8.42539 14.2004V9.80034C8.42539 9.34471 8.05603 8.97534 7.60039 8.97534Z" fill="#171717"/>
<path d="M15.5752 9.80034C15.5752 9.34471 15.9446 8.97534 16.4002 8.97534C16.8558 8.97534 17.2252 9.34471 17.2252 9.80034V14.2004C17.2252 14.656 16.8558 15.0254 16.4002 15.0254C15.9446 15.0254 15.5752 14.656 15.5752 14.2004V9.80034Z" fill="#171717"/>
</svg>
