<svg width="32" height="32" viewBox="0 0 32 32" fill="none" xmlns="http://www.w3.org/2000/svg">
<path d="M14.8403 21.1738C14.507 21.1738 14.1737 21.0005 13.987 20.6938C13.707 20.2272 13.8537 19.6005 14.3337 19.3205L15.5203 18.6138V17.1738C15.5203 16.6272 15.9737 16.1738 16.5203 16.1738C17.067 16.1738 17.5203 16.6272 17.5203 17.1738V19.1738C17.5203 19.5205 17.3337 19.8538 17.0403 20.0272L15.3737 21.0272C15.187 21.1205 15.0137 21.1738 14.8403 21.1738Z" fill="#005CFF"/>
<path d="M28.1214 9.30604C26.988 8.05271 25.108 7.42604 22.348 7.42604H22.028V7.37271C22.028 5.13271 22.028 2.35938 17.0147 2.35938H14.988C9.97468 2.35938 9.97468 5.13271 9.97468 7.37271V7.42604H9.65468C6.89468 7.42604 5.00135 8.05271 3.88135 9.30604C2.56135 10.786 2.60135 12.746 2.73469 14.0927L2.74802 14.186L2.8471 15.342C2.8603 15.496 2.94387 15.6352 3.07354 15.7192C3.47146 15.977 3.8994 16.2524 4.30802 16.4794C4.49469 16.5994 4.69469 16.706 4.89469 16.8127C6.40135 17.6394 8.01468 18.2927 9.66802 18.746C9.70802 22.1994 12.5347 24.9994 16.0014 24.9994C19.4947 24.9994 22.3347 22.1594 22.3347 18.666V18.6127C24.0147 18.106 25.628 17.3994 27.1347 16.5194C27.2147 16.4794 27.268 16.4394 27.3347 16.3994C27.8826 16.1016 28.4518 15.708 28.9663 15.3423C29.0821 15.26 29.157 15.132 29.1727 14.9908L29.2014 14.7327L29.268 14.106C29.2814 14.026 29.2814 13.9594 29.2947 13.866C29.4014 12.5327 29.3747 10.6927 28.1214 9.30604ZM11.8814 7.37271C11.8814 5.10604 11.8814 4.25271 14.988 4.25271H17.0147C20.1214 4.25271 20.1214 5.10604 20.1214 7.37271V7.42604H11.8814V7.37271ZM16.0014 22.9994C13.8014 22.9994 11.9747 21.346 11.708 19.2127C11.6814 19.0394 11.668 18.8527 11.668 18.666C11.668 16.2794 13.6147 14.3327 16.0014 14.3327C18.388 14.3327 20.3347 16.2794 20.3347 18.666C20.3347 18.826 20.3214 18.9727 20.308 19.1194V19.1327C20.068 21.306 18.228 22.9994 16.0014 22.9994Z" fill="#005CFF"/>
<path d="M28.0528 18.3062C28.3844 18.1219 28.8147 18.3889 28.7801 18.7667L28.3062 23.9462C28.0261 26.6128 26.9328 29.3328 21.0661 29.3328H10.9061C5.03948 29.3328 3.94615 26.6128 3.67948 23.9595L3.21832 19.0217C3.18252 18.6384 3.59253 18.3794 3.93281 18.5595C4.97281 19.1328 6.05281 19.6395 7.15948 20.0395C7.57281 20.1862 7.86615 20.5328 7.98615 20.9595C8.98615 24.4262 12.2128 26.9995 15.9995 26.9995C19.8528 26.9995 23.1061 24.3728 24.0528 20.7728C24.1595 20.3462 24.4528 19.9995 24.8661 19.8395C25.9862 19.3995 27.0528 18.8795 28.0528 18.3062Z" fill="#005CFF"/>
</svg>
