<svg width="24" height="24" viewBox="0 0 24 24" fill="none" xmlns="http://www.w3.org/2000/svg">
<path opacity="0.5" d="M12 22C17.5228 22 22 17.5228 22 12C22 6.47715 17.5228 2 12 2C6.47715 2 2 6.47715 2 12C2 13.5997 2.37562 15.1116 3.04346 16.4525C3.22094 16.8088 3.28001 17.2161 3.17712 17.6006L2.58151 19.8267C2.32295 20.793 3.20701 21.677 4.17335 21.4185L6.39938 20.8229C6.78393 20.72 7.19121 20.7791 7.54753 20.9565C8.88837 21.6244 10.4003 22 12 22Z" fill="#34E9A7"/>
<path fill-rule="evenodd" clip-rule="evenodd" d="M12.0008 6.77539C11.5452 6.77539 11.1758 7.14476 11.1758 7.60039V16.4004C11.1758 16.856 11.5452 17.2254 12.0008 17.2254C12.4564 17.2254 12.8258 16.856 12.8258 16.4004V7.60039C12.8258 7.14476 12.4564 6.77539 12.0008 6.77539Z" fill="#34E9A7"/>
<path fill-rule="evenodd" clip-rule="evenodd" d="M7.60039 8.97559C7.14476 8.97559 6.77539 9.34496 6.77539 9.80059V14.2006C6.77539 14.6562 7.14476 15.0256 7.60039 15.0256C8.05603 15.0256 8.42539 14.6562 8.42539 14.2006V9.80059C8.42539 9.34496 8.05603 8.97559 7.60039 8.97559Z" fill="#34E9A7"/>
<path d="M15.5752 9.80059C15.5752 9.34496 15.9446 8.97559 16.4002 8.97559C16.8558 8.97559 17.2252 9.34496 17.2252 9.80059V14.2006C17.2252 14.6562 16.8558 15.0256 16.4002 15.0256C15.9446 15.0256 15.5752 14.6562 15.5752 14.2006V9.80059Z" fill="#34E9A7"/>
</svg>
