<svg width="1186" height="271" viewBox="0 0 1186 271" fill="none" xmlns="http://www.w3.org/2000/svg">
<g filter="url(#filter0_f_518_2831)">
<path d="M8 215.328C54.6554 230.137 158.612 260.15 201.193 261.73C254.42 263.704 337 268.73 403.257 213.442C456.815 168.752 492.911 108.791 500.796 96.9438C508.682 85.0965 552.094 8 629.963 8C707.832 8 732.5 32 775.843 69.211C828.124 114.095 883.845 177.987 942 177C956.075 176.696 979.254 172.742 1015.36 135.358C1032.71 117.819 1073.52 63.2874 1112.95 63.2874C1144.49 63.2874 1169.46 72.5019 1178 77.1092" stroke="url(#paint0_linear_518_2831)" stroke-width="4" stroke-linecap="round"/>
</g>
<defs>
<filter id="filter0_f_518_2831" x="0" y="0" width="1186" height="270.809" filterUnits="userSpaceOnUse" color-interpolation-filters="sRGB">
<feFlood flood-opacity="0" result="BackgroundImageFix"/>
<feBlend mode="normal" in="SourceGraphic" in2="BackgroundImageFix" result="shape"/>
<feGaussianBlur stdDeviation="3" result="effect1_foregroundBlur_518_2831"/>
</filter>
<linearGradient id="paint0_linear_518_2831" x1="8" y1="135.403" x2="1178" y2="135.403" gradientUnits="userSpaceOnUse">
<stop stop-color="white" stop-opacity="0.2"/>
<stop offset="0.495192" stop-color="#BCBCBC" stop-opacity="0.2"/>
<stop offset="1" stop-color="white" stop-opacity="0.2"/>
</linearGradient>
</defs>
</svg>
