<svg width="348" height="344" viewBox="0 0 348 344" fill="none" xmlns="http://www.w3.org/2000/svg">
<path d="M26.4149 269.719L1.00812 35.4687C0.948522 34.9193 1.34594 34.4257 1.89547 34.3667L313.35 0.952356C313.9 0.893318 314.394 1.29221 314.452 1.84249L346.867 311.074C346.924 311.624 346.525 312.116 345.976 312.173L73.2046 340.626C73.0022 340.647 72.7954 340.604 72.6173 340.506C40.6074 322.806 29.6283 293.358 26.4149 269.719Z" fill="#11A8FF"/>
<path d="M81.277 312.9C80.9456 312.935 80.6315 312.881 80.3347 312.739C80.0393 312.609 79.7622 312.337 79.5035 311.922C79.2434 311.494 79.0106 310.881 78.8051 310.085C78.6115 309.274 78.4448 308.213 78.3051 306.9C78.2839 306.701 78.2627 306.502 78.2415 306.304C78.2189 306.091 78.203 305.879 78.1936 305.665C77.9218 306.512 77.6 307.33 77.2282 308.121C76.8698 308.91 76.4756 309.615 76.0457 310.238C75.6291 310.858 75.1932 311.361 74.7379 311.744C74.2959 312.126 73.8561 312.341 73.4186 312.387C72.6363 312.47 71.9681 312.239 71.414 311.695C70.8732 311.149 70.53 310.193 70.3846 308.828C70.2985 308.019 70.2664 307.151 70.2883 306.223C70.3235 305.294 70.4005 304.381 70.5195 303.483C70.6384 302.586 70.7791 301.766 70.9416 301.025C71.1172 300.282 71.3084 299.686 71.5152 299.235C71.7219 298.784 71.9247 298.547 72.1236 298.526C72.4551 298.491 72.7095 298.551 72.887 298.707C73.0763 298.847 73.1851 299.05 73.2133 299.316C73.2331 299.501 73.1976 299.86 73.1068 300.393C73.016 300.925 72.9034 301.568 72.7689 302.319C72.633 303.058 72.4961 303.85 72.3582 304.696C72.2336 305.541 72.1414 306.375 72.0817 307.199C72.0206 308.01 72.0253 308.747 72.0959 309.41C72.1679 310.086 72.4757 310.396 73.0193 310.338C73.6557 310.27 74.2234 309.935 74.7224 309.332C75.22 308.716 75.6587 307.925 76.0386 306.96C76.4185 305.994 76.7474 304.927 77.0251 303.758C77.3147 302.574 77.5624 301.374 77.7682 300.159C77.7423 300.041 77.7215 299.909 77.706 299.764C77.6905 299.618 77.6707 299.432 77.6467 299.207C77.6156 298.915 77.662 298.595 77.7858 298.247C77.9215 297.884 78.0952 297.564 78.3071 297.286C78.5189 297.009 78.7441 296.858 78.9828 296.832C79.4336 296.784 79.6929 297.079 79.7606 297.715C79.7776 297.874 79.7653 298.137 79.7239 298.503C79.6957 298.868 79.6646 299.395 79.6305 300.082C79.6097 300.768 79.6181 301.666 79.6558 302.775C79.7067 303.882 79.8204 305.264 79.9968 306.922C80.1465 308.327 80.3246 309.307 80.5311 309.862C80.7495 310.402 81.0112 310.655 81.3162 310.623C81.7139 310.581 82.0737 310.308 82.3956 309.804C82.7307 309.3 83.0195 308.612 83.262 307.741C83.5178 306.869 83.7189 305.863 83.8655 304.721C84.024 303.564 84.1327 302.319 84.1918 300.985C84.2628 299.637 84.2824 298.247 84.2507 296.816C84.2548 296.225 84.3363 295.794 84.4951 295.523C84.6539 295.251 84.8328 295.105 85.0316 295.084C85.151 295.071 85.2871 295.09 85.44 295.141C85.6047 295.177 85.75 295.282 85.8759 295.457C86.0017 295.631 86.0858 295.917 86.1282 296.315C86.347 298.37 86.3936 300.255 86.2679 301.972C86.1541 303.673 85.9204 305.193 85.5668 306.531C85.2118 307.856 84.7891 308.987 84.2989 309.924C83.8073 310.848 83.2938 311.566 82.7584 312.079C82.2349 312.577 81.7411 312.851 81.277 312.9ZM97.5529 301.899C97.5981 302.324 97.51 302.755 97.2886 303.194C97.0658 303.62 96.7554 304.042 96.3573 304.46C95.9579 304.864 95.51 305.254 95.0135 305.628C94.5171 306.003 94.0164 306.338 93.5114 306.633C93.0065 306.928 92.543 307.171 92.121 307.364C92.07 307.892 92.0657 308.355 92.108 308.753C92.1348 309.005 92.2136 309.177 92.3442 309.271C92.4748 309.364 92.6661 309.397 92.918 309.371C93.4749 309.311 94.0543 309.149 94.6563 308.884C95.2583 308.619 95.8672 308.293 96.4829 307.906C97.0987 307.519 97.6859 307.114 98.2444 306.693C98.8029 306.272 99.3106 305.876 99.7672 305.506C100.237 305.134 100.627 304.831 100.938 304.597C101.248 304.363 101.456 304.24 101.562 304.229C101.721 304.212 101.846 304.252 101.937 304.35C102.04 304.433 102.098 304.541 102.112 304.673C102.124 304.779 101.98 305.002 101.681 305.343C101.395 305.681 101.002 306.085 100.502 306.554C100.001 307.009 99.435 307.485 98.804 307.981C98.1729 308.477 97.5126 308.95 96.8229 309.398C96.1464 309.846 95.4821 310.218 94.8299 310.515C94.191 310.811 93.6064 310.987 93.076 311.043C92.3866 311.116 91.822 310.915 91.3825 310.439C90.9429 309.963 90.6652 309.181 90.5495 308.094C90.4718 307.364 90.4863 306.619 90.5928 305.857C90.7127 305.093 90.9023 304.355 91.1618 303.644C91.4331 302.918 91.746 302.268 92.1005 301.694C92.4669 301.105 92.8659 300.634 93.2975 300.28C93.7277 299.912 94.1615 299.705 94.5991 299.659C95.4344 299.57 96.1154 299.732 96.6421 300.146C97.1689 300.559 97.4725 301.144 97.5529 301.899ZM92.3756 305.788C92.7598 305.492 93.1558 305.182 93.5637 304.857C93.9716 304.532 94.3456 304.204 94.6858 303.873C95.026 303.542 95.2919 303.205 95.4834 302.863C95.6867 302.506 95.7701 302.156 95.7334 301.811C95.6811 301.32 95.3898 301.103 94.8595 301.16C94.528 301.195 94.1992 301.444 93.8732 301.908C93.5589 302.357 93.2714 302.931 93.0105 303.629C92.7496 304.327 92.538 305.047 92.3756 305.788ZM102.125 302.017C101.82 302.049 101.649 301.9 101.614 301.568C101.593 301.37 101.629 301.138 101.721 300.873C101.827 300.607 101.941 300.293 102.063 299.932C102.186 299.57 102.283 299.158 102.354 298.694C102.439 298.229 102.451 297.712 102.39 297.142C102.37 296.956 102.337 296.772 102.291 296.589C102.256 296.392 102.23 296.207 102.212 296.034C102.137 295.332 102.168 294.872 102.306 294.657C102.443 294.428 102.657 294.298 102.949 294.267C103.214 294.238 103.452 294.334 103.663 294.553C103.874 294.772 104.014 295.206 104.083 295.856C104.168 296.651 104.149 297.417 104.026 298.155C103.902 298.878 103.723 299.528 103.489 300.102C103.256 300.677 103.01 301.139 102.752 301.488C102.506 301.822 102.297 301.999 102.125 302.017ZM107.34 309.91C107.128 309.933 106.94 309.866 106.776 309.709C106.611 309.552 106.513 309.321 106.481 309.016C106.457 308.791 106.463 308.415 106.501 307.888C106.551 307.346 106.598 306.718 106.642 306.002C106.7 305.285 106.735 304.544 106.748 303.779C106.758 303 106.727 302.259 106.652 301.556C106.615 301.212 106.674 300.951 106.83 300.773C106.997 300.581 107.193 300.473 107.419 300.449C107.631 300.427 107.804 300.542 107.938 300.796C108.073 301.05 108.149 301.578 108.168 302.381C108.633 300.964 109.187 299.805 109.829 298.906C110.482 297.992 111.155 297.317 111.846 296.882C112.536 296.433 113.172 296.177 113.755 296.116C114.14 296.075 114.427 296.125 114.616 296.265C114.817 296.392 114.928 296.547 114.948 296.733C114.974 296.985 114.89 297.195 114.693 297.363C114.508 297.517 114.174 297.714 113.69 297.953C113.13 298.24 112.622 298.562 112.163 298.919C111.717 299.262 111.301 299.695 110.914 300.219C110.541 300.741 110.188 301.395 109.856 302.181C109.523 302.954 109.207 303.899 108.911 305.017C108.614 306.135 108.314 307.474 108.011 309.035C107.963 309.335 107.878 309.551 107.759 309.685C107.652 309.817 107.512 309.892 107.34 309.91ZM122.297 299.271C122.342 299.695 122.254 300.127 122.032 300.566C121.809 300.992 121.499 301.414 121.101 301.832C120.702 302.236 120.254 302.626 119.757 303C119.261 303.375 118.76 303.709 118.255 304.004C117.75 304.299 117.287 304.543 116.865 304.735C116.814 305.264 116.809 305.727 116.852 306.124C116.878 306.376 116.957 306.549 117.088 306.642C117.218 306.736 117.41 306.769 117.662 306.742C118.218 306.683 118.798 306.521 119.4 306.256C120.002 305.991 120.611 305.665 121.227 305.278C121.842 304.89 122.43 304.486 122.988 304.065C123.547 303.643 124.054 303.248 124.511 302.877C124.981 302.506 125.371 302.203 125.681 301.969C125.992 301.735 126.2 301.612 126.306 301.601C126.465 301.584 126.59 301.624 126.681 301.722C126.783 301.805 126.842 301.912 126.856 302.045C126.867 302.151 126.723 302.374 126.424 302.714C126.139 303.053 125.746 303.457 125.246 303.926C124.745 304.381 124.179 304.857 123.548 305.353C122.917 305.849 122.256 306.321 121.567 306.77C120.89 307.217 120.226 307.59 119.574 307.887C118.935 308.183 118.35 308.359 117.82 308.415C117.13 308.488 116.566 308.287 116.126 307.811C115.687 307.334 115.409 306.553 115.293 305.465C115.215 304.736 115.23 303.991 115.336 303.228C115.456 302.465 115.646 301.727 115.905 301.016C116.177 300.29 116.49 299.64 116.844 299.066C117.211 298.477 117.61 298.006 118.041 297.651C118.471 297.284 118.905 297.077 119.343 297.03C120.178 296.942 120.859 297.104 121.386 297.517C121.912 297.931 122.216 298.515 122.297 299.271ZM117.119 303.16C117.503 302.864 117.899 302.554 118.307 302.229C118.715 301.904 119.089 301.576 119.429 301.245C119.77 300.914 120.035 300.577 120.227 300.235C120.43 299.878 120.514 299.527 120.477 299.183C120.425 298.692 120.133 298.475 119.603 298.531C119.272 298.567 118.943 298.816 118.617 299.28C118.303 299.729 118.015 300.302 117.754 301C117.493 301.699 117.282 302.418 117.119 303.16ZM135.606 307.431C135.314 307.462 135.08 307.4 134.902 307.244C134.726 307.102 134.604 306.706 134.534 306.056C134.471 305.46 134.494 304.673 134.605 303.696C134.714 302.705 134.885 301.601 135.117 300.383C135.349 299.165 135.624 297.902 135.941 296.595C136.256 295.274 136.594 293.978 136.954 292.706C137.327 291.42 137.691 290.241 138.046 289.171C138.179 288.781 138.331 288.504 138.501 288.338C138.671 288.173 138.882 288.077 139.134 288.05C139.306 288.032 139.458 288.069 139.588 288.162C139.731 288.241 139.814 288.393 139.838 288.619C139.846 288.698 139.788 288.966 139.662 289.422C139.549 289.876 139.385 290.477 139.17 291.224C138.968 291.969 138.742 292.805 138.491 293.729C138.241 294.654 137.989 295.626 137.736 296.646C137.482 297.665 137.25 298.688 137.037 299.717C136.823 300.731 136.652 301.702 136.523 302.627C136.393 303.553 136.327 304.378 136.323 305.102C136.601 304.684 136.913 304.154 137.261 303.514C137.608 302.874 137.977 302.184 138.368 301.446C138.758 300.707 139.156 299.974 139.562 299.247C139.967 298.52 140.372 297.854 140.777 297.248C141.182 296.642 141.565 296.152 141.928 295.778C142.302 295.39 142.642 295.179 142.947 295.147C143.45 295.093 143.872 295.209 144.211 295.495C144.561 295.766 144.774 296.253 144.849 296.956C144.891 297.354 144.862 297.84 144.763 298.413C144.676 298.986 144.566 299.587 144.432 300.218C144.298 300.849 144.181 301.452 144.081 302.025C143.995 302.598 143.973 303.083 144.015 303.481C144.073 304.024 144.307 304.274 144.718 304.23C145.355 304.163 145.976 303.956 146.583 303.61C147.203 303.263 147.783 302.852 148.323 302.379C148.861 301.893 149.353 301.412 149.798 300.936C150.242 300.446 150.62 300.03 150.932 299.689C151.268 299.318 151.562 299.119 151.814 299.092C152.132 299.058 152.309 299.207 152.344 299.539C152.354 299.632 152.346 299.74 152.319 299.863C152.292 299.987 152.202 300.151 152.049 300.355C151.862 300.616 151.591 300.96 151.234 301.386C150.89 301.812 150.483 302.271 150.013 302.763C149.556 303.254 149.049 303.724 148.493 304.171C147.951 304.618 147.382 305 146.785 305.318C146.201 305.622 145.617 305.804 145.033 305.866C144.238 305.951 143.597 305.791 143.112 305.387C142.638 304.968 142.358 304.354 142.272 303.545C142.218 303.041 142.233 302.423 142.316 301.69C142.399 300.957 142.517 300.18 142.671 299.359C142.837 298.524 143.005 297.708 143.175 296.913C142.782 297.249 142.364 297.736 141.922 298.373C141.493 298.995 141.045 299.7 140.579 300.487C140.111 301.26 139.645 302.047 139.181 302.848C138.73 303.646 138.286 304.391 137.85 305.081C137.426 305.756 137.022 306.308 136.638 306.738C136.255 307.168 135.911 307.398 135.606 307.431ZM157.55 295.205C157.641 296.053 157.324 296.918 156.6 297.8C155.876 298.681 154.72 299.541 153.134 300.38C153.116 300.717 153.119 300.998 153.143 301.224C153.199 301.754 153.307 302.132 153.465 302.356C153.636 302.579 153.887 302.673 154.219 302.638C154.709 302.586 155.243 302.375 155.821 302.005C156.397 301.622 156.984 301.151 157.581 300.592C158.177 300.019 158.757 299.421 159.321 298.798C159.898 298.173 160.426 297.588 160.904 297.041C161.38 296.481 161.788 296.028 162.127 295.684C162.464 295.326 162.699 295.14 162.832 295.126C163.017 295.107 163.179 295.177 163.317 295.336C163.453 295.483 163.536 295.695 163.566 295.974C163.602 296.318 163.625 296.718 163.633 297.173C163.64 297.615 163.643 298.084 163.642 298.58C163.884 297.576 164.225 296.688 164.666 295.917C165.119 295.132 165.618 294.468 166.164 293.928C166.709 293.387 167.255 292.967 167.799 292.668C168.344 292.369 168.822 292.197 169.233 292.154C169.618 292.113 169.91 292.155 170.112 292.282C170.313 292.408 170.424 292.57 170.445 292.769C170.465 292.955 170.397 293.136 170.242 293.314C170.098 293.476 169.747 293.708 169.189 294.009C168.541 294.346 167.938 294.725 167.379 295.146C166.834 295.566 166.343 296.114 165.905 296.791C165.466 297.454 165.103 298.318 164.813 299.381C164.524 300.444 164.326 301.792 164.218 303.426C164.199 303.75 164.131 303.985 164.012 304.132C163.895 304.292 163.744 304.382 163.558 304.402C163.425 304.416 163.286 304.37 163.141 304.265C162.997 304.173 162.864 303.926 162.74 303.523C162.616 303.107 162.505 302.448 162.409 301.547C162.344 300.937 162.3 300.271 162.277 299.55C162.267 298.827 162.28 298.068 162.316 297.273C161.777 298.001 161.175 298.768 160.51 299.576C159.844 300.371 159.146 301.123 158.417 301.83C157.686 302.525 156.957 303.105 156.229 303.571C155.501 304.037 154.805 304.305 154.142 304.376C153.44 304.451 152.85 304.265 152.374 303.82C151.897 303.374 151.607 302.667 151.504 301.7C151.386 300.586 151.423 299.55 151.616 298.59C151.808 297.631 152.101 296.789 152.493 296.064C152.884 295.325 153.324 294.742 153.815 294.314C154.306 293.887 154.797 293.647 155.287 293.595C155.95 293.524 156.479 293.642 156.874 293.949C157.267 294.243 157.493 294.661 157.55 295.205ZM153.297 298.895C153.665 298.574 154.063 298.217 154.49 297.822C154.931 297.427 155.298 297.033 155.591 296.64C155.897 296.232 156.033 295.875 156 295.57C155.981 295.385 155.92 295.257 155.819 295.187C155.718 295.118 155.554 295.095 155.329 295.119C154.971 295.157 154.658 295.371 154.392 295.761C154.123 296.139 153.899 296.612 153.718 297.18C153.536 297.736 153.396 298.308 153.297 298.895ZM178.679 293.282C178.724 293.707 178.636 294.138 178.414 294.577C178.191 295.003 177.881 295.425 177.483 295.843C177.084 296.247 176.636 296.637 176.139 297.011C175.643 297.386 175.142 297.721 174.637 298.016C174.132 298.311 173.669 298.554 173.247 298.747C173.196 299.275 173.191 299.738 173.234 300.136C173.261 300.388 173.339 300.56 173.47 300.654C173.6 300.747 173.792 300.78 174.044 300.754C174.601 300.694 175.18 300.532 175.782 300.267C176.384 300.002 176.993 299.676 177.609 299.289C178.224 298.902 178.812 298.497 179.37 298.076C179.929 297.655 180.436 297.259 180.893 296.889C181.363 296.517 181.753 296.214 182.063 295.98C182.374 295.746 182.582 295.623 182.688 295.612C182.847 295.595 182.972 295.635 183.063 295.733C183.165 295.816 183.224 295.924 183.238 296.056C183.249 296.162 183.105 296.385 182.806 296.726C182.521 297.064 182.128 297.468 181.628 297.937C181.127 298.392 180.561 298.868 179.93 299.364C179.299 299.86 178.638 300.333 177.949 300.781C177.272 301.229 176.608 301.601 175.956 301.898C175.317 302.194 174.732 302.37 174.202 302.426C173.512 302.5 172.948 302.298 172.508 301.822C172.069 301.346 171.791 300.564 171.675 299.477C171.597 298.747 171.612 298.002 171.719 297.24C171.838 296.476 172.028 295.738 172.287 295.027C172.559 294.301 172.872 293.651 173.226 293.077C173.593 292.488 173.992 292.017 174.423 291.663C174.853 291.295 175.287 291.088 175.725 291.042C176.56 290.953 177.241 291.115 177.768 291.529C178.295 291.942 178.598 292.527 178.679 293.282ZM173.501 297.171C173.885 296.875 174.281 296.565 174.689 296.24C175.097 295.915 175.471 295.587 175.811 295.256C176.152 294.925 176.418 294.588 176.609 294.246C176.812 293.889 176.896 293.539 176.859 293.194C176.807 292.703 176.515 292.486 175.985 292.543C175.654 292.578 175.325 292.827 174.999 293.291C174.685 293.74 174.397 294.314 174.136 295.012C173.875 295.71 173.664 296.43 173.501 297.171ZM192.718 302.25C192.492 302.273 192.305 302.213 192.155 302.068C192.006 301.923 191.911 301.665 191.872 301.294C191.801 300.631 191.762 299.944 191.753 299.235C191.756 298.51 191.726 297.843 191.661 297.233C191.512 295.841 191.264 294.708 190.916 293.833C190.58 292.943 189.991 292.382 189.148 292.15C188.956 292.104 188.815 292.045 188.727 291.974C188.626 291.904 188.566 291.783 188.548 291.61C188.528 291.425 188.585 291.265 188.718 291.13C188.838 290.996 189.083 290.91 189.454 290.871C189.759 290.838 190.165 290.808 190.672 290.781C191.179 290.754 191.725 290.723 192.311 290.688C192.565 289.172 192.9 287.903 193.314 286.881C193.728 285.858 194.21 285.036 194.761 284.414C195.324 283.791 195.938 283.323 196.602 283.012C197.28 282.698 197.996 282.502 198.752 282.421C199.083 282.386 199.301 282.41 199.403 282.493C199.505 282.563 199.564 282.684 199.583 282.856C199.605 283.068 199.563 283.301 199.456 283.553C199.347 283.793 199.091 283.967 198.687 284.077C197.802 284.332 197.031 284.709 196.374 285.208C195.716 285.707 195.172 286.388 194.741 287.252C194.309 288.102 193.989 289.196 193.783 290.531C195.053 290.37 196.14 290.187 197.043 289.984C197.945 289.768 198.694 289.561 199.29 289.363C199.898 289.151 200.382 288.979 200.744 288.847C201.104 288.701 201.383 288.618 201.582 288.597C201.807 288.573 201.953 288.618 202.019 288.732C202.084 288.845 202.124 288.968 202.138 289.101C202.165 289.353 201.953 289.623 201.501 289.913C201.047 290.189 200.44 290.461 199.677 290.73C198.926 290.984 198.093 291.213 197.176 291.418C196.259 291.623 195.35 291.773 194.448 291.869C194.302 291.884 194.157 291.9 194.011 291.915C193.878 291.929 193.739 291.944 193.593 291.96C193.576 292.055 193.567 292.157 193.565 292.264C193.514 293.047 193.469 293.877 193.428 294.753C193.399 295.614 193.375 296.461 193.357 297.294C193.35 298.113 193.355 298.857 193.373 299.525C193.39 300.194 193.42 300.727 193.463 301.125C193.498 301.456 193.445 301.716 193.305 301.906C193.165 302.108 192.97 302.223 192.718 302.25ZM192.113 292.036C191.724 292.037 191.36 292.022 191.022 291.991C191.215 292.172 191.386 292.388 191.534 292.641C191.694 292.892 191.837 293.165 191.963 293.46C192.003 292.96 192.053 292.485 192.113 292.036ZM202.723 299.598C201.94 299.681 201.292 299.448 200.778 298.899C200.263 298.351 199.955 297.599 199.854 296.644C199.817 296.3 199.825 295.93 199.877 295.536C199.94 295.127 200.035 294.755 200.16 294.42C200.057 294.337 199.971 294.219 199.901 294.065C199.83 293.898 199.78 293.689 199.754 293.437C199.67 292.655 199.727 291.925 199.923 291.247C200.119 290.569 200.41 289.968 200.797 289.445C201.182 288.908 201.626 288.478 202.128 288.157C202.643 287.834 203.179 287.643 203.736 287.584C204.651 287.487 205.429 287.739 206.07 288.341C206.709 288.931 207.1 289.895 207.242 291.234C207.317 291.936 207.287 292.664 207.153 293.415C207.032 294.166 206.828 294.898 206.542 295.612C206.269 296.325 205.929 296.971 205.522 297.551C205.127 298.129 204.689 298.605 204.205 298.978C203.734 299.336 203.24 299.543 202.723 299.598ZM201.401 293.604C201.491 293.702 201.546 293.837 201.564 294.009C201.586 294.208 201.567 294.411 201.509 294.618C201.463 294.824 201.419 295.104 201.377 295.457C201.334 295.81 201.346 296.305 201.414 296.941C201.482 297.578 201.768 297.869 202.271 297.816C202.828 297.756 203.322 297.483 203.753 296.995C204.182 296.493 204.545 295.871 204.841 295.129C205.138 294.387 205.343 293.608 205.457 292.791C205.583 291.96 205.608 291.186 205.532 290.47C205.483 290.006 205.362 289.69 205.17 289.523C204.976 289.343 204.654 289.276 204.203 289.324C203.739 289.373 203.272 289.584 202.802 289.956C202.344 290.313 201.977 290.774 201.702 291.34C201.427 291.905 201.325 292.519 201.396 293.182C201.411 293.328 201.413 293.469 201.401 293.604ZM210.956 298.904C210.744 298.927 210.556 298.86 210.392 298.703C210.228 298.546 210.129 298.315 210.097 298.01C210.073 297.785 210.08 297.409 210.118 296.882C210.167 296.34 210.214 295.712 210.259 294.996C210.316 294.279 210.352 293.538 210.364 292.773C210.375 291.994 210.343 291.253 210.268 290.55C210.231 290.206 210.291 289.945 210.446 289.767C210.613 289.575 210.81 289.467 211.035 289.443C211.247 289.421 211.42 289.536 211.555 289.79C211.689 290.044 211.765 290.572 211.784 291.375C212.25 289.958 212.804 288.799 213.445 287.9C214.099 286.986 214.771 286.311 215.462 285.876C216.152 285.427 216.788 285.172 217.372 285.11C217.756 285.069 218.043 285.119 218.233 285.26C218.434 285.386 218.544 285.542 218.564 285.727C218.591 285.979 218.506 286.189 218.309 286.358C218.124 286.511 217.79 286.708 217.306 286.947C216.747 287.234 216.238 287.556 215.78 287.913C215.334 288.256 214.917 288.689 214.53 289.213C214.157 289.735 213.804 290.389 213.472 291.175C213.139 291.948 212.824 292.894 212.527 294.011C212.231 295.129 211.931 296.468 211.628 298.029C211.579 298.329 211.495 298.546 211.375 298.679C211.268 298.811 211.129 298.886 210.956 298.904ZM230.424 296.977C229.92 297.031 229.478 296.843 229.097 296.414C228.728 295.971 228.503 295.371 228.423 294.616C228.348 293.913 228.446 293.199 228.717 292.472C229.002 291.745 229.402 291.032 229.918 290.334C230.433 289.635 231.007 288.984 231.64 288.381C232.272 287.764 232.911 287.22 233.558 286.749C234.219 286.277 234.829 285.897 235.388 285.609C235.947 285.322 236.4 285.16 236.744 285.124C236.93 285.104 237.087 285.127 237.214 285.194C237.341 285.248 237.414 285.367 237.434 285.553C237.446 285.672 237.412 285.79 237.33 285.906C237.344 285.905 237.357 285.903 237.37 285.902C237.662 285.871 237.826 286.028 237.863 286.372C237.875 286.492 237.855 286.742 237.802 287.123C237.747 287.491 237.689 287.953 237.628 288.509C237.566 289.065 237.524 289.68 237.502 290.353C237.479 291.012 237.503 291.68 237.575 292.356C237.635 292.926 237.885 293.188 238.322 293.142C238.813 293.09 239.298 292.924 239.778 292.645C240.258 292.366 240.719 292.042 241.163 291.673C241.605 291.291 242.008 290.92 242.371 290.56C242.734 290.186 243.042 289.871 243.297 289.617C243.551 289.362 243.738 289.228 243.857 289.215C243.964 289.204 244.06 289.227 244.147 289.285C244.233 289.343 244.284 289.445 244.3 289.59C244.314 289.723 244.207 289.976 243.978 290.349C243.75 290.722 243.44 291.15 243.049 291.634C242.658 292.118 242.213 292.594 241.713 293.063C241.213 293.532 240.692 293.929 240.15 294.255C239.608 294.581 239.079 294.771 238.562 294.826C238.164 294.868 237.787 294.787 237.43 294.584C237.085 294.366 236.781 293.969 236.519 293.394C236.27 292.817 236.089 292.005 235.978 290.957L235.925 290.46C235.389 291.603 234.811 292.657 234.19 293.621C233.582 294.584 232.954 295.368 232.308 295.973C231.675 296.576 231.047 296.911 230.424 296.977ZM236.519 286.596C236.455 286.629 236.367 286.679 236.253 286.744C235.673 287.088 235.073 287.5 234.454 287.981C233.848 288.461 233.26 288.986 232.691 289.556C232.135 290.125 231.64 290.707 231.207 291.303C230.775 291.899 230.442 292.49 230.21 293.078C229.977 293.666 229.889 294.225 229.946 294.755C229.964 294.928 230.012 295.057 230.088 295.143C230.177 295.227 230.315 295.259 230.5 295.24C230.765 295.211 231.093 295.009 231.482 294.633C231.869 294.243 232.285 293.743 232.73 293.132C233.188 292.521 233.639 291.849 234.084 291.118C234.529 290.387 234.947 289.652 235.338 288.913C235.742 288.173 236.085 287.493 236.367 286.873C236.411 286.775 236.461 286.682 236.519 286.596ZM247.347 295.461C246.326 295.57 245.489 295.324 244.835 294.723C244.192 294.107 243.807 293.196 243.679 291.989C243.6 291.247 243.607 290.368 243.7 289.353C243.804 288.322 243.957 287.234 244.156 286.086C244.368 284.924 244.607 283.772 244.874 282.631C245.142 281.49 245.404 280.429 245.662 279.45C245.932 278.456 246.172 277.626 246.382 276.96C246.503 276.585 246.71 276.382 247.001 276.351C247.399 276.309 247.624 276.533 247.676 277.023C247.693 277.183 247.655 277.515 247.561 278.021C247.468 278.527 247.341 279.158 247.18 279.912C247.017 280.653 246.843 281.476 246.658 282.381C246.473 283.286 246.284 284.218 246.091 285.177C245.91 286.121 245.748 287.057 245.605 287.984C245.461 288.897 245.358 289.753 245.295 290.551C245.233 291.348 245.231 292.026 245.291 292.583C245.329 292.941 245.452 293.216 245.66 293.408C245.88 293.586 246.156 293.657 246.487 293.622C247.097 293.557 247.694 293.373 248.279 293.07C248.875 292.752 249.439 292.383 249.971 291.965C250.502 291.533 250.98 291.113 251.406 290.706C251.844 290.284 252.216 289.936 252.522 289.662C252.827 289.375 253.045 289.225 253.178 289.211C253.47 289.18 253.632 289.323 253.666 289.641C253.678 289.747 253.593 289.958 253.412 290.272C253.229 290.573 252.979 290.935 252.662 291.357C252.345 291.78 251.97 292.222 251.536 292.683C251.115 293.13 250.664 293.56 250.185 293.973C249.718 294.372 249.237 294.704 248.743 294.971C248.263 295.25 247.798 295.414 247.347 295.461ZM256.553 294.484C255.532 294.592 254.695 294.346 254.041 293.745C253.398 293.129 253.013 292.218 252.885 291.012C252.806 290.269 252.813 289.39 252.906 288.375C253.01 287.344 253.163 286.256 253.362 285.108C253.574 283.946 253.813 282.794 254.08 281.653C254.348 280.512 254.61 279.451 254.868 278.472C255.138 277.478 255.378 276.648 255.588 275.982C255.709 275.607 255.916 275.404 256.207 275.373C256.605 275.331 256.83 275.555 256.882 276.046C256.899 276.205 256.861 276.537 256.767 277.043C256.674 277.549 256.547 278.18 256.386 278.934C256.223 279.676 256.049 280.499 255.864 281.403C255.679 282.308 255.49 283.24 255.297 284.199C255.116 285.143 254.954 286.079 254.811 287.006C254.667 287.919 254.564 288.775 254.501 289.573C254.439 290.371 254.437 291.048 254.497 291.605C254.535 291.963 254.658 292.238 254.866 292.43C255.086 292.608 255.362 292.679 255.693 292.644C256.303 292.579 256.9 292.395 257.485 292.092C258.081 291.774 258.645 291.405 259.177 290.987C259.708 290.555 260.186 290.136 260.612 289.728C261.05 289.306 261.422 288.958 261.728 288.685C262.033 288.397 262.251 288.247 262.384 288.233C262.676 288.202 262.838 288.345 262.872 288.664C262.884 288.77 262.799 288.98 262.618 289.294C262.435 289.595 262.185 289.957 261.868 290.379C261.551 290.802 261.176 291.244 260.742 291.706C260.321 292.153 259.87 292.583 259.391 292.995C258.924 293.394 258.443 293.726 257.949 293.993C257.469 294.272 257.004 294.436 256.553 294.484ZM289.16 274.789C288.07 275.254 287.128 275.977 286.334 276.96C285.552 277.928 285.002 279.247 284.684 280.916C286.007 280.749 287.15 280.527 288.113 280.251C289.076 279.974 289.859 279.716 290.464 279.478C291.069 279.239 291.478 279.109 291.69 279.086C291.822 279.072 291.934 279.114 292.025 279.212C292.129 279.308 292.189 279.429 292.204 279.575C292.235 279.866 291.947 280.185 291.341 280.531C290.734 280.877 289.903 281.2 288.849 281.5C287.795 281.799 286.598 282.02 285.259 282.163C285.021 282.188 284.768 282.208 284.501 282.223C284.485 282.319 284.475 282.42 284.473 282.528C284.432 283.149 284.378 283.899 284.311 284.777C284.242 285.643 284.172 286.555 284.099 287.515C284.027 288.475 283.959 289.407 283.895 290.312C283.829 291.204 283.772 291.995 283.725 292.684C283.679 293.386 283.652 293.891 283.645 294.2C283.621 294.485 283.531 294.702 283.372 294.853C283.227 295.002 283.062 295.087 282.876 295.107C282.691 295.126 282.511 295.072 282.336 294.943C282.163 294.827 282.06 294.617 282.028 294.312C282.013 294.179 282.018 293.904 282.04 293.486C282.076 293.067 282.116 292.559 282.16 291.965C282.204 291.37 282.236 290.73 282.257 290.044C282.291 289.356 282.304 288.664 282.297 287.968C282.303 287.27 282.274 286.616 282.209 286.006C282.172 285.662 282.126 285.351 282.07 285.076C281.422 285.668 280.658 286.171 279.777 286.586C278.896 287.002 277.944 287.317 276.921 287.533C276.7 288.227 276.432 288.859 276.117 289.429C275.801 289.985 275.447 290.439 275.055 290.789C274.677 291.137 274.269 291.335 273.831 291.381C273.407 291.426 273.019 291.186 272.668 290.66C272.331 290.133 272.102 289.306 271.982 288.179C271.896 287.37 271.869 286.622 271.904 285.934C271.724 285.511 271.604 285.014 271.544 284.444C271.466 283.715 271.553 283.022 271.805 282.365C272.07 281.706 272.454 281.156 272.957 280.714C273.473 280.27 274.069 280.013 274.745 279.941C275.434 279.868 276.032 280.065 276.538 280.535C277.056 280.989 277.367 281.707 277.471 282.688C277.529 283.232 277.542 283.794 277.51 284.374C277.476 284.94 277.403 285.511 277.29 286.086C278.164 285.859 278.982 285.545 279.744 285.142C280.505 284.739 281.161 284.287 281.711 283.786C281.547 283.375 281.324 283.05 281.044 282.811C280.777 282.572 280.442 282.446 280.039 282.436C279.703 282.431 279.515 282.243 279.476 281.872C279.462 281.739 279.515 281.606 279.635 281.473C279.768 281.338 279.927 281.261 280.113 281.241C280.471 281.203 280.884 281.179 281.352 281.17C281.834 281.159 282.433 281.122 283.151 281.059C283.392 280.055 283.726 279.094 284.151 278.177C284.59 277.259 285.079 276.443 285.62 275.729C286.161 275.014 286.716 274.439 287.287 274.003C287.857 273.567 288.401 273.321 288.918 273.266C289.302 273.226 289.553 273.253 289.671 273.347C289.801 273.441 289.879 273.6 289.903 273.826C289.929 274.077 289.87 274.278 289.725 274.428C289.592 274.562 289.404 274.683 289.16 274.789ZM273.331 285.36C273.585 285.736 273.923 286.008 274.343 286.178C274.762 286.335 275.178 286.404 275.592 286.387C275.705 285.812 275.776 285.215 275.804 284.595C275.845 283.974 275.836 283.385 275.776 282.828C275.741 282.496 275.633 282.233 275.451 282.038C275.268 281.829 275.037 281.74 274.759 281.77C274.334 281.815 273.954 282.023 273.618 282.393C273.296 282.763 273.095 283.213 273.018 283.744C273.103 283.789 273.178 283.862 273.242 283.962C273.32 284.061 273.37 284.217 273.392 284.429C273.398 284.482 273.397 284.596 273.389 284.771C273.379 284.933 273.36 285.129 273.331 285.36ZM275.219 287.795C274.873 287.818 274.529 287.801 274.188 287.743C273.86 287.684 273.547 287.577 273.248 287.421C273.253 287.715 273.268 287.982 273.293 288.22C273.381 289.042 273.59 289.436 273.922 289.401C274.187 289.372 274.425 289.213 274.635 288.923C274.859 288.631 275.054 288.255 275.219 287.795ZM282.557 282.852C282.698 282.663 282.825 282.468 282.937 282.268C282.936 282.255 282.935 282.242 282.933 282.229C282.786 282.231 282.631 282.227 282.469 282.218C282.321 282.207 282.173 282.202 282.025 282.204C282.219 282.385 282.396 282.601 282.557 282.852ZM302.714 293.945C302.051 294.015 301.436 294.034 300.87 294C300.318 293.978 299.766 293.903 299.216 293.773C298.668 293.657 298.067 293.493 297.414 293.281C297.219 293.208 297.041 293.113 296.881 292.996C296.722 292.892 296.635 292.76 296.618 292.601C296.596 292.402 296.7 292.177 296.928 291.925C297.144 291.687 297.358 291.557 297.57 291.535C297.795 291.511 298.082 291.561 298.431 291.685C298.792 291.807 299.21 291.95 299.683 292.115C300.158 292.292 300.676 292.432 301.236 292.533C301.81 292.633 302.415 292.649 303.052 292.582C303.741 292.508 304.361 292.154 304.91 291.519C305.459 290.885 305.869 290.01 306.139 288.895C306.41 287.793 306.466 286.494 306.307 284.995C306.259 284.545 306.193 284.049 306.108 283.508C306.036 282.953 305.947 282.372 305.842 281.766C305.597 282.49 305.312 283.21 304.986 283.929C304.674 284.646 304.334 285.299 303.968 285.887C303.615 286.475 303.231 286.958 302.815 287.337C302.411 287.702 301.984 287.908 301.533 287.956C300.963 288.017 300.537 287.914 300.254 287.65C299.971 287.385 299.797 286.947 299.732 286.337C299.664 285.701 299.637 285.007 299.651 284.254C299.665 283.502 299.704 282.74 299.77 281.969C299.847 281.183 299.955 280.434 300.093 279.722C300.232 279.01 300.394 278.39 300.579 277.86C300.683 277.581 300.868 277.427 301.133 277.399C301.319 277.38 301.509 277.46 301.702 277.641C301.907 277.806 302.026 278.042 302.059 278.347C302.084 278.585 302.067 278.929 302.008 279.378C301.948 279.827 301.869 280.338 301.769 280.912C301.669 281.486 301.572 282.086 301.478 282.713C301.382 283.326 301.313 283.93 301.269 284.525C301.223 285.106 301.226 285.636 301.277 286.113C301.298 286.312 301.441 286.397 301.706 286.369C301.852 286.353 302.044 286.199 302.281 285.906C302.529 285.598 302.796 285.207 303.081 284.735C303.378 284.247 303.67 283.72 303.958 283.153C304.259 282.571 304.546 281.998 304.821 281.432C305.095 280.854 305.327 280.326 305.517 279.85C305.493 279.745 305.476 279.647 305.466 279.554C305.456 279.461 305.447 279.375 305.438 279.295C305.369 278.646 305.392 278.234 305.508 278.061C305.635 277.873 305.812 277.767 306.037 277.743C306.422 277.702 306.703 277.76 306.88 277.915C307.058 278.071 307.169 278.36 307.214 278.785C307.231 278.944 307.23 279.118 307.21 279.308C307.188 279.485 307.149 279.744 307.091 280.085C307.309 281.121 307.495 282.053 307.65 282.882C307.819 283.708 307.948 284.546 308.039 285.395C308.21 286.999 308.099 288.418 307.708 289.653C307.33 290.887 306.711 291.878 305.852 292.626C305.007 293.373 303.961 293.812 302.714 293.945ZM314.399 287.736C313.617 287.819 312.969 287.586 312.454 287.037C311.94 286.489 311.632 285.737 311.53 284.782C311.494 284.438 311.501 284.068 311.553 283.674C311.617 283.265 311.711 282.893 311.836 282.558C311.734 282.475 311.647 282.356 311.577 282.203C311.506 282.036 311.457 281.827 311.43 281.575C311.347 280.793 311.403 280.063 311.599 279.385C311.795 278.707 312.086 278.106 312.473 277.583C312.859 277.046 313.302 276.616 313.804 276.295C314.32 275.972 314.856 275.781 315.413 275.722C316.328 275.624 317.105 275.877 317.746 276.479C318.385 277.069 318.776 278.033 318.919 279.372C318.994 280.074 318.964 280.802 318.829 281.553C318.708 282.304 318.505 283.036 318.219 283.75C317.946 284.463 317.606 285.109 317.198 285.689C316.804 286.267 316.365 286.743 315.882 287.116C315.41 287.474 314.916 287.681 314.399 287.736ZM313.077 281.742C313.168 281.84 313.222 281.975 313.241 282.147C313.262 282.346 313.243 282.549 313.185 282.756C313.14 282.962 313.096 283.242 313.053 283.595C313.01 283.948 313.023 284.443 313.09 285.079C313.158 285.716 313.444 286.007 313.948 285.954C314.505 285.894 314.999 285.621 315.429 285.133C315.859 284.631 316.221 284.009 316.518 283.267C316.814 282.525 317.02 281.746 317.134 280.929C317.26 280.098 317.285 279.324 317.208 278.608C317.159 278.144 317.038 277.828 316.846 277.661C316.653 277.481 316.33 277.414 315.88 277.462C315.416 277.511 314.949 277.722 314.479 278.094C314.02 278.451 313.654 278.912 313.379 279.477C313.104 280.043 313.002 280.657 313.072 281.32C313.088 281.466 313.089 281.607 313.077 281.742ZM328.292 286.542C328.066 286.566 327.864 286.487 327.683 286.305C327.503 286.123 327.392 285.84 327.351 285.455C327.303 285.004 327.301 284.354 327.345 283.505C327.402 282.654 327.496 281.525 327.628 280.116C327.36 281.003 327.048 281.847 326.691 282.649C326.347 283.45 325.962 284.114 325.535 284.642C325.109 285.17 324.643 285.461 324.14 285.515C323.649 285.567 323.191 285.421 322.766 285.077C322.353 284.732 322.096 284.076 321.993 283.108C321.935 282.564 321.916 281.95 321.937 281.264C321.957 280.564 322.003 279.869 322.077 279.177C322.151 278.485 322.232 277.867 322.322 277.321C322.41 276.762 322.5 276.35 322.592 276.085C322.663 275.863 322.741 275.714 322.826 275.638C322.911 275.549 323.033 275.496 323.192 275.479C323.377 275.459 323.585 275.517 323.814 275.654C324.043 275.791 324.177 276.044 324.217 276.416C324.226 276.508 324.203 276.732 324.147 277.087C324.103 277.427 324.041 277.849 323.96 278.354C323.892 278.844 323.821 279.374 323.748 279.945C323.674 280.516 323.621 281.085 323.587 281.651C323.567 282.217 323.582 282.731 323.631 283.195C323.658 283.447 323.706 283.65 323.776 283.803C323.846 283.957 323.987 284.022 324.2 284C324.385 283.98 324.597 283.77 324.836 283.369C325.089 282.967 325.348 282.443 325.614 281.798C325.893 281.138 326.171 280.412 326.448 279.618C326.739 278.823 327.014 278.009 327.274 277.177C327.548 276.343 327.792 275.553 328.007 274.806C328.088 274.556 328.185 274.399 328.299 274.333C328.411 274.254 328.54 274.207 328.686 274.191C328.925 274.166 329.148 274.243 329.354 274.422C329.573 274.586 329.699 274.821 329.731 275.126C329.752 275.325 329.749 275.674 329.722 276.173C329.708 276.67 329.67 277.258 329.608 277.935C329.558 278.597 329.492 279.301 329.41 280.047C329.342 280.792 329.273 281.53 329.204 282.262C329.133 282.98 329.062 283.638 328.991 284.235C328.934 284.831 328.885 285.312 328.843 285.679C328.812 286.017 328.742 286.239 328.633 286.345C328.538 286.462 328.424 286.528 328.292 286.542Z" fill="#151515"/>
<path d="M72.8933 340.658C45.0275 329.231 34.5346 311.819 27.7789 277.185C46.6414 295.638 57.909 296.062 72.7067 296.174C69.0004 310.384 69.4553 327.36 72.8933 340.658Z" fill="#00629A"/>
<g clip-path="url(#clip0_754_1263)">
<mask id="mask0_754_1263" style="mask-type:luminance" maskUnits="userSpaceOnUse" x="39" y="20" width="259" height="264">
<path d="M297.394 30.1459L49.6289 20.7469L39.9904 274.186L287.755 283.585L297.394 30.1459Z" fill="white"/>
</mask>
<g mask="url(#mask0_754_1263)">
<mask id="mask1_754_1263" style="mask-type:luminance" maskUnits="userSpaceOnUse" x="55" y="31" width="227" height="243">
<path d="M281.785 39.5997L64.4746 31.3561L55.5891 264.995L272.9 273.239L281.785 39.5997Z" fill="white"/>
</mask>
<g mask="url(#mask1_754_1263)">
<path fill-rule="evenodd" clip-rule="evenodd" d="M131.17 230.522C130.136 221.844 130.226 213 130.322 204.231C132.69 202.957 134.577 200.723 135.199 198.051C136.646 199.058 138.337 199.637 140.086 199.725C141.835 199.814 143.575 199.408 145.115 198.552C147.86 196.976 149.416 193.826 149.539 190.611C150.941 194.931 152.35 199.293 152.852 203.815C153.36 208.353 152.896 213.13 150.728 217.126C149.368 219.642 147.413 221.724 145.457 223.808C144.636 224.683 143.816 225.557 143.039 226.463C141.917 227.749 140.938 229.156 140.119 230.662L140.193 230.7C141.433 230.496 142.686 230.391 143.942 230.389C149.728 230.368 155.346 232.36 159.872 236.039C162.153 237.928 164.09 240.215 165.594 242.794L165.665 242.749C170.59 235.82 170.977 227.943 168.272 219.847C167.847 218.578 167.328 217.337 166.81 216.098C165.868 213.844 164.927 211.594 164.556 209.183C164.193 206.832 164.393 204.453 164.592 202.07C164.731 200.416 164.87 198.76 164.821 197.108C164.548 187.951 158.043 179.525 149.602 176.468C141.16 173.411 131.291 175.524 124.277 181.24C117.263 186.956 113.096 195.941 112.458 205.086C112.413 205.727 112.384 206.372 112.355 207.019C112.249 209.37 112.142 211.732 111.295 213.905C110.597 215.694 109.444 217.227 108.289 218.763C107.761 219.464 107.234 220.166 106.749 220.893C101.872 228.203 101.672 238.473 106.261 245.958C108.152 243.022 110.548 240.461 113.333 238.401C117.51 235.283 122.323 233.208 127.278 231.633C128.501 231.242 129.736 230.883 130.969 230.546L131.17 230.522ZM153.874 180.771C153.674 180.603 153.379 180.633 153.215 180.838C153.051 181.042 153.08 181.344 153.28 181.511C155.868 183.684 157.931 186.44 159.305 189.564C160.679 192.688 161.329 196.096 161.203 199.522C161.193 199.787 161.395 200.008 161.653 200.018C161.911 200.027 162.128 199.821 162.138 199.557C162.27 195.983 161.592 192.428 160.159 189.17C158.725 185.911 156.574 183.037 153.874 180.771Z" fill="#151515"/>
<path fill-rule="evenodd" clip-rule="evenodd" d="M243.696 177.686C243.681 177.346 243.666 177.003 243.615 176.673C243.584 176.447 243.527 176.224 243.445 176.011C242.809 174.364 240.716 174.03 238.987 173.945C238.552 173.922 238.118 173.901 237.684 173.88C237.359 173.864 237.035 173.849 236.709 173.832C232.381 173.622 228.055 173.411 223.729 173.199L220.254 173.029C219.148 172.974 218.02 172.922 216.944 173.204C215.986 173.422 215.139 173.994 214.567 174.81C214.493 174.928 214.426 175.051 214.368 175.179C214.22 175.505 214.132 175.859 214.045 176.211C213.92 176.713 213.796 177.211 213.5 177.624C213.125 178.112 212.584 178.438 211.985 178.537C211.393 178.65 210.788 178.664 210.192 178.581C209.497 178.498 208.809 178.36 208.122 178.223C207.242 178.047 206.363 177.871 205.469 177.808C203.878 177.697 202.155 178.011 201.018 179.156C199.989 180.19 199.61 181.712 199.383 183.169C198.978 185.769 198.911 188.412 199.184 191.028L199.015 191.274C206.841 196.834 216.081 199.948 225.614 200.237C235.146 200.526 244.56 197.978 252.713 192.902C253.483 190.788 253.347 185.682 252.173 183.798C251.605 182.906 250.855 182.15 249.974 181.582C249.092 181.015 248.101 180.65 247.068 180.513C246.953 180.498 246.835 180.485 246.72 180.477C246.588 180.467 246.454 180.461 246.32 180.454C245.612 180.419 244.88 180.382 244.363 179.912C243.769 179.367 243.733 178.537 243.696 177.686ZM248.108 182.865C247.887 182.728 247.599 182.801 247.465 183.027C247.331 183.253 247.401 183.547 247.621 183.684C249.848 185.067 250.828 188.254 249.779 190.696C249.675 190.938 249.783 191.22 250.019 191.326C250.256 191.432 250.532 191.322 250.636 191.08C251.874 188.198 250.735 184.497 248.108 182.865Z" fill="url(#paint0_linear_754_1263)"/>
<path fill-rule="evenodd" clip-rule="evenodd" d="M169.494 127.636L169.209 127.408C159.934 121.084 148.97 117.847 137.816 118.139C137.759 118.587 137.584 119.011 137.311 119.366C136.55 120.314 135.18 120.383 133.982 120.373C125.281 120.307 116.58 120.24 107.878 120.172C106.945 120.165 105.916 120.123 105.226 119.477C105.029 119.292 104.869 119.071 104.754 118.825L104.227 119.073C95.7176 120.591 87.7739 124.467 81.2619 130.281C86.8755 136.654 93.778 141.701 101.492 145.073C109.206 148.445 117.547 150.062 125.939 149.81C134.33 149.558 142.571 147.445 150.091 143.617C157.612 139.788 164.232 134.336 169.494 127.636ZM140.383 121.51C148.244 121.737 155.943 123.832 162.87 127.628C163.098 127.753 163.382 127.665 163.504 127.432C163.627 127.199 163.541 126.909 163.314 126.784C156.259 122.918 148.418 120.784 140.411 120.553C140.153 120.545 139.937 120.753 139.929 121.018C139.921 121.282 140.124 121.502 140.383 121.51Z" fill="url(#paint1_linear_754_1263)"/>
<path d="M247.084 180.386L247.066 180.513C246.951 180.499 246.833 180.485 246.718 180.477C245.896 180.417 244.976 180.472 244.36 179.912C243.528 179.149 243.79 177.828 243.613 176.674C244.354 176.651 245.095 176.629 245.838 176.608C246.535 176.587 247.315 176.597 247.811 177.098C248.268 177.563 248.323 178.325 248.112 178.949C247.902 179.574 247.502 179.884 247.084 180.386Z" fill="url(#paint2_linear_754_1263)"/>
<path d="M243.848 146.152C247.034 147.429 248.696 151.676 247.257 154.856C245.819 158.036 241.567 159.492 238.552 157.834L238.056 157.813C238.28 153.152 238.349 148.488 238.264 143.819C238.233 142.09 238.149 140.26 237.213 138.82C236.249 137.336 234.555 136.547 232.91 135.957C227.323 133.966 221.337 133.424 215.489 134.38C215.448 135.7 215.407 137.02 215.367 138.339C213.346 138.77 211.143 138.555 209.378 137.46C207.599 136.358 206.345 134.301 206.441 132.175C206.537 130.048 208.15 128.014 210.213 127.728C209.238 125.293 208.896 122.46 209.915 120.039C210.935 117.619 213.567 115.816 216.084 116.361C218.5 116.887 220.069 119.208 221.387 121.339C221.292 118.749 223.432 116.342 225.941 115.965C228.45 115.587 231.055 117.107 232.229 119.406C233.403 121.705 233.196 124.614 231.924 126.862C233.714 125.758 235.823 125.077 237.895 125.335C239.968 125.593 241.97 126.905 242.747 128.885C243.524 130.866 242.807 133.445 240.955 134.438C243.895 133.834 247.113 135.907 247.846 138.88C248.579 141.852 246.711 145.248 243.848 146.152Z" fill="#151515"/>
<path d="M214.369 175.178C214.011 175.97 214.006 176.921 213.5 177.624C213.125 178.111 212.584 178.437 211.986 178.537L211.967 178.453C211.525 178.331 210.376 178.147 209.987 177.899C209.786 177.784 209.611 177.627 209.474 177.438C209.337 177.249 209.241 177.032 209.192 176.802C209.086 176.137 209.552 175.481 210.14 175.181C210.751 174.918 211.417 174.821 212.074 174.899C212.729 174.976 213.39 174.975 214.044 174.898L214.565 174.809C214.492 174.927 214.426 175.051 214.369 175.178Z" fill="url(#paint3_linear_754_1263)"/>
<path d="M128.636 55.048C129.049 52.9909 129.529 50.866 130.851 49.2651C132.219 47.6114 134.796 46.783 136.498 48.0678C137.679 48.9586 138.116 50.617 137.925 52.1077C137.734 53.5985 137.017 54.9572 136.262 56.2483C137.604 54.7182 138.996 53.153 140.813 52.2702C142.629 51.3873 144.991 51.3587 146.464 52.7529C148.164 54.3664 148.04 57.2902 146.824 59.3136C145.607 61.337 143.569 62.6681 141.603 63.9318L142.014 64.2826C143.092 64.5918 144.233 64.2261 145.347 64.0833C146.46 63.9405 147.792 64.1378 148.341 65.1392C148.89 66.134 148.328 67.4668 147.404 68.112C146.48 68.7572 145.311 68.8852 144.192 68.9684C142.948 69.0584 141.708 69.1105 140.461 69.1367C132.337 69.3075 124.174 68.3602 116.081 69.1924C114.059 69.3999 111.832 69.8423 110.617 71.5081C109.599 72.8971 109.562 74.7673 109.571 76.5017C109.592 82.0404 109.613 87.5781 109.636 93.1148L109.348 93.1166C108.318 95.4281 104.882 96.1026 103.092 94.3453C101.436 92.7226 101.749 89.5836 103.55 88.2052C103.722 88.1261 103.882 88.0238 104.027 87.9008C103.859 87.9878 103.7 88.0896 103.55 88.2052C101.899 89.0177 99.56 87.8688 99.0596 85.9878C98.5384 84.0135 99.8008 81.8514 101.62 80.9824C101.709 80.9501 101.796 80.9116 101.88 80.8678C101.792 80.9027 101.706 80.9405 101.62 80.9824C100.226 81.5112 98.5054 80.6951 97.8176 79.3243C97.0894 77.8659 97.3938 76.0186 98.2949 74.6571C99.196 73.2956 100.605 72.3685 102.078 71.7188C100.529 70.9893 99.8966 68.9055 100.425 67.2454C100.953 65.5853 102.399 64.3629 103.982 63.7054C105.565 63.048 107.288 62.8759 108.987 62.7072C108.62 60.7004 108.683 58.5533 109.534 56.7014C110.385 54.8494 112.116 53.3566 114.105 53.1669C115.819 53.0019 117.63 53.9745 118.368 55.5258C118.434 55.7962 118.524 56.0603 118.634 56.3154C118.577 56.0419 118.488 55.7768 118.368 55.5258C118.162 54.7469 118.131 53.9303 118.276 53.1366C118.42 52.3429 118.738 51.5922 119.204 50.9402C119.67 50.2882 120.274 49.7515 120.97 49.3697C121.665 48.9879 122.436 48.7708 123.225 48.7345C124.013 48.6982 124.799 48.8435 125.524 49.1598C126.25 49.4761 126.896 49.9553 127.416 50.5619C127.935 51.1685 128.314 51.887 128.526 52.6643C128.737 53.4417 128.774 54.2577 128.636 55.0527L128.636 55.048Z" fill="#151515"/>
<path d="M137.818 118.14C137.76 118.588 137.586 119.011 137.312 119.366C136.552 120.316 135.181 120.384 133.983 120.374C125.284 120.306 116.583 120.239 107.879 120.173C106.946 120.166 105.917 120.125 105.227 119.478C105.031 119.293 104.871 119.072 104.755 118.825C104.408 118.097 104.4 117.17 104.425 116.331C104.463 115.023 104.548 113.593 105.413 112.626C106.397 111.53 108.022 111.422 109.475 111.394L109.696 111.402C113.407 111.527 117.2 111.275 120.896 110.981C123.062 110.838 125.234 110.846 127.399 111.004C129.327 111.119 131.254 111.278 133.149 111.359C134.134 111.403 135.177 111.465 135.992 112.029C137.231 112.884 137.541 114.579 137.749 116.091C137.866 116.767 137.889 117.457 137.818 118.14Z" fill="url(#paint4_linear_754_1263)"/>
<path d="M127.306 231.72C127.103 235.444 127.707 239.166 129.074 242.62C129.753 244.319 130.627 245.965 131.875 247.287C133.123 248.609 134.776 249.582 136.565 249.748C139.156 249.994 141.721 248.475 143.215 246.293C144.71 244.111 145.242 241.362 145.19 238.701C145.138 236.039 144.535 233.425 143.941 230.835L143.942 230.391C149.728 230.37 155.346 232.362 159.872 236.041C162.154 237.93 164.091 240.217 165.594 242.796C167.697 246.364 168.925 250.4 169.174 254.56L169.481 254.939C160.13 262.967 148.305 267.347 136.108 267.3C123.911 267.254 112.133 262.784 102.869 254.686L103.004 254.528C103.481 251.468 104.592 248.546 106.262 245.958C108.153 243.022 110.549 240.461 113.334 238.401C117.51 235.282 122.324 233.207 127.279 231.633L127.306 231.72Z" fill="url(#paint5_linear_754_1263)"/>
<path d="M123.825 90.3324C125.027 90.5583 126.269 90.3883 127.372 89.8472C126.698 85.5514 126.025 81.2559 125.352 76.9606C125.188 75.9291 125.046 74.7933 125.589 73.9068C126.245 72.8364 127.639 72.5537 128.877 72.5208C131.265 72.4602 133.634 72.9543 135.806 73.9655" stroke="#151515" stroke-linecap="round" stroke-linejoin="round"/>
<path d="M129.125 78.2512C129.875 77.904 130.694 77.7396 131.517 77.7714C132.339 77.8031 133.142 78.03 133.864 78.4342" stroke="#151515" stroke-linecap="round" stroke-linejoin="round"/>
<path d="M121.906 78.4875C121.537 78.093 121.093 77.7798 120.601 77.5671C120.108 77.3546 119.579 77.247 119.044 77.2514C118.51 77.2557 117.981 77.3715 117.492 77.5919C117.002 77.8124 116.562 78.1325 116.197 78.5329" stroke="#151515" stroke-linecap="round" stroke-linejoin="round"/>
<path d="M120.877 97.6136C120.396 97.7865 119.887 97.8592 119.379 97.8278C118.871 97.7963 118.374 97.6614 117.918 97.4308C117.462 97.2001 117.056 96.8783 116.724 96.4847C116.391 96.0909 116.139 95.6329 115.982 95.1379" stroke="#151515" stroke-linecap="round" stroke-linejoin="round"/>
<path d="M127.422 110.596C127.244 109.344 127.068 108.076 127.206 106.819C127.345 105.563 127.83 104.298 128.776 103.484C130.296 102.175 132.589 102.31 134.269 101.224C136.446 99.818 136.977 96.8647 137.307 94.2551C138.358 85.9083 139.41 77.5624 140.464 69.2178" stroke="#151515" stroke-linecap="round" stroke-linejoin="round"/>
<path d="M109.707 111.125C109.683 105.123 109.659 99.1188 109.637 93.1125C109.616 87.5738 109.595 82.0361 109.572 76.4994C109.563 74.765 109.6 72.8948 110.618 71.5058C111.833 69.8401 114.061 69.3976 116.082 69.1901C124.175 68.3569 132.338 69.3045 140.462 69.1344C141.709 69.1082 142.951 69.0564 144.194 68.9661C145.311 68.884 146.478 68.7558 147.405 68.1097C148.333 67.4636 148.892 66.1317 148.342 65.1369C147.794 64.1355 146.462 63.9382 145.348 64.081C144.234 64.2238 143.093 64.5896 142.015 64.2803" stroke="#151515" stroke-linecap="round" stroke-linejoin="round"/>
<path d="M103.55 88.203C101.749 89.5813 101.436 92.723 103.091 94.343C104.882 96.1003 108.317 95.4258 109.348 93.1143" stroke="#151515" stroke-linecap="round" stroke-linejoin="round"/>
<path d="M103.55 88.2027C103.722 88.1237 103.882 88.0212 104.027 87.8978C103.86 87.9849 103.7 88.0868 103.55 88.2027Z" stroke="#151515" stroke-linecap="round" stroke-linejoin="round"/>
<path d="M101.62 80.9784C99.801 81.8485 98.5386 84.0106 99.0598 85.9838C99.5597 87.8648 101.898 89.0137 103.55 88.2013" stroke="#151515" stroke-linecap="round" stroke-linejoin="round"/>
<path d="M101.62 80.979C101.709 80.9467 101.796 80.9084 101.881 80.8642C101.792 80.8992 101.706 80.9381 101.62 80.979Z" stroke="#151515" stroke-linecap="round" stroke-linejoin="round"/>
<path d="M118.367 55.5214C117.63 53.9701 115.819 52.9975 114.105 53.1625C112.115 53.3514 110.384 54.8482 109.533 56.697C108.683 58.5458 108.619 60.6959 108.987 62.7041C107.288 62.8728 105.562 63.0437 103.981 63.7023C102.4 64.3609 100.953 65.5835 100.425 67.2423C99.8962 68.9011 100.529 70.9861 102.078 71.7156C100.606 72.3657 99.1954 73.2957 98.2944 74.654C97.3935 76.0123 97.0889 77.8628 97.8171 79.3212C98.505 80.6919 100.226 81.5078 101.619 80.9793" stroke="#151515" stroke-linecap="round" stroke-linejoin="round"/>
<path d="M118.369 55.5212C118.436 55.7915 118.525 56.0559 118.636 56.3107C118.579 56.0373 118.489 55.7721 118.369 55.5212Z" stroke="#151515" stroke-linecap="round" stroke-linejoin="round"/>
<path d="M128.636 55.0493C128.776 54.2543 128.739 53.4375 128.528 52.6596C128.317 51.8818 127.938 51.1625 127.418 50.5554C126.899 49.9484 126.252 49.4687 125.526 49.1521C124.8 48.8354 124.014 48.6899 123.225 48.7262C122.436 48.7625 121.665 48.9797 120.969 49.3618C120.273 49.7439 119.669 50.281 119.203 50.9335C118.736 51.5863 118.419 52.3372 118.275 53.1315C118.13 53.9258 118.162 54.7426 118.368 55.5219" stroke="#151515" stroke-linecap="round" stroke-linejoin="round"/>
<path d="M141.601 63.9302C143.566 62.6664 145.603 61.3324 146.822 59.312C148.042 57.2916 148.163 54.3661 146.463 52.7513C144.989 51.3571 142.625 51.3856 140.811 52.2686C138.998 53.1515 137.602 54.7176 136.261 56.2467C137.016 54.9563 137.732 53.5942 137.923 52.1061C138.115 50.6181 137.678 48.9572 136.497 48.0661C134.794 46.7814 132.218 47.6101 130.85 49.2634C129.528 50.8644 129.047 52.9893 128.635 55.0464C128.62 55.1193 128.608 55.1923 128.593 55.2652" stroke="#151515" stroke-linecap="round" stroke-linejoin="round"/>
<path d="M109.696 111.403L109.475 111.394C108.022 111.422 106.397 111.53 105.412 112.626C104.549 113.593 104.463 115.024 104.425 116.332C104.4 117.171 104.408 118.097 104.755 118.826C104.87 119.072 105.03 119.293 105.227 119.478C105.917 120.124 106.946 120.166 107.879 120.173C116.581 120.241 125.283 120.308 133.983 120.374C135.182 120.385 136.552 120.315 137.312 119.367C137.585 119.012 137.76 118.588 137.818 118.141C137.89 117.457 137.867 116.767 137.749 116.091C137.541 114.579 137.231 112.884 135.992 112.029C135.177 111.465 134.134 111.403 133.149 111.359C131.254 111.277 129.327 111.118 127.399 111.003C125.235 110.845 123.062 110.837 120.896 110.981C117.2 111.275 113.407 111.527 109.696 111.403Z" stroke="#151515" stroke-linecap="round" stroke-linejoin="round"/>
<path d="M81.1486 130.382C81.1874 130.348 81.223 130.314 81.2618 130.28C87.7738 124.467 95.7175 120.59 104.227 119.073" stroke="#151515" stroke-linecap="round" stroke-linejoin="round"/>
<path d="M137.622 118.146C137.688 118.146 137.752 118.142 137.816 118.141C148.969 117.848 159.932 121.085 169.207 127.409" stroke="#151515" stroke-linecap="round" stroke-linejoin="round"/>
<path d="M218.129 137.454C220.878 137.82 223.628 138.187 226.377 138.555C225.399 142.344 224.422 146.132 223.447 149.918C223.19 150.911 223.02 152.176 223.831 152.775C224.667 153.391 226.009 152.829 226.775 153.535" stroke="#151515" stroke-linecap="round" stroke-linejoin="round"/>
<path d="M228.533 159.243C228.364 159.233 228.193 159.22 228.025 159.211C228.528 159.449 229.072 159.584 229.627 159.607C230.181 159.629 230.735 159.54 231.256 159.343C231.777 159.147 232.255 158.847 232.662 158.461C233.07 158.075 233.4 157.611 233.632 157.095" stroke="#151515" stroke-linecap="round" stroke-linejoin="round"/>
<path d="M230.577 143.09C230.712 142.418 230.848 141.746 230.985 141.074" stroke="#151515" stroke-linecap="round" stroke-linejoin="round"/>
<path d="M221.446 143.191C221.413 142.432 221.599 141.679 221.981 141.026" stroke="#151515" stroke-linecap="round" stroke-linejoin="round"/>
<path d="M223.748 172.779C224.279 170.895 224.811 168.98 224.823 167.023C224.835 165.066 224.257 163.016 222.859 161.676C221.157 160.043 218.535 159.697 216.882 158.012C214.949 156.041 214.913 152.904 215 150.113C215.121 146.189 215.243 142.264 215.367 138.338C215.408 137.018 215.448 135.699 215.489 134.38C221.337 133.424 227.323 133.966 232.91 135.957C234.555 136.547 236.249 137.336 237.213 138.819C238.148 140.26 238.231 142.09 238.264 143.819C238.349 148.485 238.279 153.149 238.056 157.812C237.809 163.089 237.364 168.35 236.722 173.596" stroke="#151515" stroke-linecap="round" stroke-linejoin="round"/>
<path d="M215.411 138.33L215.367 138.338C213.346 138.769 211.143 138.555 209.378 137.459C207.599 136.357 206.345 134.301 206.441 132.174C206.537 130.047 208.15 128.014 210.213 127.728C209.238 125.292 208.896 122.459 209.915 120.039C210.935 117.618 213.567 115.815 216.084 116.36C218.5 116.886 220.069 119.208 221.387 121.339C221.292 118.748 223.432 116.34 225.941 115.964C228.45 115.588 231.055 117.107 232.229 119.406C233.403 121.705 233.196 124.613 231.924 126.861C233.714 125.757 235.823 125.077 237.895 125.334C239.968 125.592 241.97 126.904 242.747 128.885C243.524 130.865 242.807 133.444 240.956 134.438C243.895 133.834 247.113 135.907 247.846 138.88C248.579 141.852 246.711 145.246 243.848 146.15C247.034 147.427 248.696 151.674 247.257 154.855C245.818 158.035 241.567 159.49 238.551 157.833" stroke="#151515" stroke-linecap="round" stroke-linejoin="round"/>
<path d="M199.188 191.028C198.915 188.412 198.982 185.769 199.387 183.17C199.614 181.712 199.993 180.191 201.022 179.156C202.159 178.011 203.882 177.697 205.473 177.808C207.064 177.919 208.61 178.39 210.195 178.581C210.792 178.664 211.397 178.65 211.989 178.538C212.588 178.438 213.128 178.112 213.504 177.624C214.008 176.922 214.013 175.97 214.372 175.179C214.43 175.051 214.497 174.928 214.571 174.81C215.143 173.994 215.99 173.422 216.948 173.204C218.024 172.922 219.152 172.974 220.258 173.029L223.733 173.199C228.059 173.411 232.385 173.622 236.713 173.832C237.474 173.871 238.231 173.905 238.991 173.945C240.72 174.03 242.813 174.365 243.449 176.011C243.53 176.225 243.586 176.448 243.618 176.676C243.796 177.829 243.533 179.151 244.365 179.914C244.981 180.474 245.901 180.419 246.723 180.479C246.838 180.487 246.956 180.501 247.071 180.515C248.104 180.652 249.096 181.017 249.977 181.584C250.858 182.151 251.608 182.907 252.176 183.8C253.35 185.684 253.487 190.79 252.717 192.904C252.713 192.91 252.713 192.919 252.71 192.926" stroke="#151515" stroke-linecap="round" stroke-linejoin="round"/>
<path d="M211.967 178.454C211.525 178.332 210.376 178.148 209.987 177.9C209.786 177.785 209.611 177.628 209.475 177.439C209.337 177.25 209.241 177.033 209.192 176.803C209.086 176.138 209.552 175.482 210.14 175.181C210.751 174.919 211.417 174.822 212.074 174.9C212.729 174.977 213.39 174.976 214.045 174.898" stroke="#151515" stroke-linecap="round" stroke-linejoin="round"/>
<path d="M243.511 176.676C243.545 176.675 243.58 176.676 243.614 176.674C244.355 176.651 245.097 176.629 245.839 176.608C246.537 176.587 247.317 176.597 247.813 177.098C248.27 177.563 248.325 178.325 248.114 178.949C247.903 179.574 247.503 179.884 247.085 180.386" stroke="#151515" stroke-linecap="round" stroke-linejoin="round"/>
<path d="M106.278 245.987L106.261 245.958C101.672 238.473 101.872 228.204 106.749 220.893C108.295 218.575 110.278 216.511 111.295 213.905C112.375 211.135 112.251 208.058 112.458 205.086C113.096 195.941 117.263 186.956 124.277 181.24C131.291 175.524 141.16 173.411 149.602 176.468C158.043 179.525 164.548 187.951 164.821 197.108C164.94 201.14 163.942 205.2 164.556 209.183C165.132 212.919 167.075 216.27 168.272 219.847C170.977 227.943 170.59 235.82 165.665 242.749" stroke="#151515" stroke-linecap="round" stroke-linejoin="round"/>
<path d="M124.423 205.24C126.443 205.587 128.52 205.232 130.321 204.231C132.69 202.957 134.576 200.723 135.199 198.054C136.646 199.061 138.337 199.64 140.086 199.728C141.835 199.817 143.575 199.411 145.115 198.555C147.86 196.979 149.416 193.827 149.539 190.614C149.552 190.26 149.547 189.905 149.527 189.553" stroke="#151515" stroke-linecap="round" stroke-linejoin="round"/>
<path d="M149.528 190.578C149.531 190.591 149.537 190.601 149.539 190.614C150.942 194.934 152.35 199.296 152.853 203.818C153.361 208.356 152.898 213.133 150.729 217.129C148.798 220.7 145.67 223.398 143.04 226.466C141.918 227.751 140.939 229.159 140.121 230.664C140.093 230.716 140.067 230.768 140.04 230.82C138.971 232.894 138.352 235.14 138.611 237.447" stroke="#151515" stroke-linecap="round" stroke-linejoin="round"/>
<path d="M130.322 204.208L130.321 204.231C130.225 213 130.135 221.844 131.17 230.522C131.523 233.577 132.041 236.61 132.72 239.606C133.129 241.393 133.646 243.244 134.875 244.579C136.105 245.914 138.267 246.528 139.734 245.469C140.825 244.683 141.246 243.243 141.45 241.897C142.021 238.134 141.683 234.289 140.093 230.849" stroke="#151515" stroke-linecap="round" stroke-linejoin="round"/>
<path d="M142.587 208.596C143.358 208.612 144.304 208.527 144.633 207.811C144.854 207.337 144.694 206.778 144.532 206.28C144.038 204.751 143.543 203.223 143.048 201.695" stroke="#151515" stroke-linecap="round" stroke-linejoin="round"/>
<path d="M138.79 202.112C138.336 201.706 137.745 201.498 137.142 201.53C136.539 201.563 135.972 201.834 135.56 202.287" stroke="#151515" stroke-linecap="round" stroke-linejoin="round"/>
<path d="M149.444 201.564C149.251 201.378 149.023 201.233 148.775 201.138C148.526 201.043 148.262 200.999 147.996 201.01C147.73 201.02 147.47 201.085 147.229 201.199C146.987 201.314 146.771 201.476 146.592 201.676" stroke="#151515" stroke-linecap="round" stroke-linejoin="round"/>
<path d="M141.776 215.384C141.333 215.517 140.868 215.556 140.409 215.499C139.951 215.441 139.509 215.288 139.111 215.05C138.713 214.811 138.367 214.492 138.095 214.111C137.822 213.731 137.628 213.297 137.525 212.837" stroke="#151515" stroke-linecap="round" stroke-linejoin="round"/>
<path d="M130.97 230.547C129.737 230.884 128.502 231.242 127.279 231.633C122.323 233.208 117.511 235.284 113.334 238.401C110.549 240.462 108.153 243.023 106.262 245.958C104.592 248.546 103.481 251.468 103.004 254.528" stroke="#151515" stroke-linecap="round" stroke-linejoin="round"/>
<path d="M140.193 230.702C141.433 230.497 142.687 230.394 143.942 230.39C149.729 230.369 155.346 232.362 159.872 236.041C162.154 237.93 164.091 240.217 165.594 242.796C167.697 246.363 168.925 250.399 169.174 254.56" stroke="#151515" stroke-linecap="round" stroke-linejoin="round"/>
<path d="M127.307 231.72C127.104 235.443 127.708 239.166 129.075 242.62C129.754 244.319 130.628 245.965 131.876 247.287C133.124 248.608 134.777 249.581 136.566 249.748C139.157 249.993 141.722 248.475 143.216 246.293C144.711 244.11 145.243 241.362 145.191 238.7C145.139 236.039 144.536 233.425 143.942 230.835" stroke="#151515" stroke-linecap="round" stroke-linejoin="round"/>
<path d="M81.2612 130.281C71.5343 119.24 66.4098 104.744 66.9778 89.8784C68.1907 57.9874 94.842 33.1099 126.503 34.3109C158.164 35.512 182.849 62.3369 181.636 94.2279C181.183 106.399 176.927 118.109 169.494 127.637C164.231 134.336 157.611 139.789 150.091 143.617C142.57 147.446 134.329 149.559 125.938 149.81C117.547 150.062 109.205 148.446 101.491 145.074C93.7773 141.702 86.8747 136.655 81.2612 130.281Z" stroke="#151515" stroke-linecap="round" stroke-linejoin="round"/>
<path d="M102.87 254.685C96.9586 249.528 92.2704 243.064 89.1577 235.781C86.045 228.497 84.5889 220.584 84.899 212.635C86.0055 183.541 109.958 160.832 138.401 161.911C166.844 162.99 189 187.448 187.893 216.542C187.516 226.441 184.42 236.035 178.961 244.226C173.501 252.417 165.898 258.873 157.024 262.854C148.149 266.836 138.362 268.181 128.784 266.736C119.206 265.291 110.225 261.115 102.87 254.685Z" stroke="#151515" stroke-linecap="round" stroke-linejoin="round"/>
<path d="M199.017 191.274C192.24 186.46 186.761 179.977 183.083 172.422C179.406 164.867 177.649 156.482 177.975 148.042C179.032 120.256 201.909 98.566 229.074 99.5965C256.239 100.627 277.406 123.987 276.349 151.774C276.005 160.803 273.293 169.575 268.497 177.171C263.7 184.767 256.996 190.907 249.088 194.946C241.179 198.986 232.357 200.776 223.548 200.13C214.738 199.484 206.265 196.425 199.017 191.274Z" stroke="#151515" stroke-linecap="round" stroke-linejoin="round"/>
<path d="M127.704 236.991L131.47 235.417" stroke="#151515" stroke-linecap="round" stroke-linejoin="round"/>
<path d="M129.056 242.372C130.091 241.612 131.209 240.976 132.385 240.476" stroke="#151515" stroke-linecap="round" stroke-linejoin="round"/>
<path d="M132.25 247.66L134.799 245.136" stroke="#151515" stroke-linecap="round" stroke-linejoin="round"/>
<path d="M137.685 249.58C137.747 248.511 137.81 247.443 137.872 246.374" stroke="#151515" stroke-linecap="round" stroke-linejoin="round"/>
<path d="M140.635 244.721C141.522 245.073 142.441 245.333 143.378 245.497" stroke="#151515" stroke-linecap="round" stroke-linejoin="round"/>
<path d="M141.745 240.849C142.749 240.367 143.815 240.035 144.911 239.864" stroke="#151515" stroke-linecap="round" stroke-linejoin="round"/>
<path d="M141.671 235.439L144.329 234.947" stroke="#151515" stroke-linecap="round" stroke-linejoin="round"/>
<path d="M137.635 249.697C137.921 255.388 138.092 261.082 138.148 266.782" stroke="#151515" stroke-linecap="round" stroke-linejoin="round"/>
<path d="M124.812 249.934L123.787 247.811" stroke="#151515" stroke-linecap="round" stroke-linejoin="round"/>
<path d="M122.977 250.025L125.634 248.326" stroke="#151515" stroke-linecap="round" stroke-linejoin="round"/>
<path d="M157.356 253.75C156.675 253.188 156.025 252.588 155.406 251.955" stroke="#151515" stroke-linecap="round" stroke-linejoin="round"/>
<path d="M155.609 254.215L155.5 254.219L157.236 251.609" stroke="#151515" stroke-linecap="round" stroke-linejoin="round"/>
<path d="M153.615 241.338C152.945 240.729 152.327 240.063 151.768 239.346" stroke="#151515" stroke-linecap="round" stroke-linejoin="round"/>
<path d="M151.884 241.599L153.694 238.825" stroke="#151515" stroke-linecap="round" stroke-linejoin="round"/>
<path d="M147.222 261.025C146.512 260.437 145.858 259.782 145.268 259.069" stroke="#151515" stroke-linecap="round" stroke-linejoin="round"/>
<path d="M147.278 258.718L145.392 261.237" stroke="#151515" stroke-linecap="round" stroke-linejoin="round"/>
<path d="M129.653 263.028C130.72 262.034 131.675 260.922 132.5 259.711" stroke="#151515" stroke-linecap="round" stroke-linejoin="round"/>
<path d="M132.158 262.932C131.418 261.966 130.678 261.001 129.938 260.035" stroke="#151515" stroke-linecap="round" stroke-linejoin="round"/>
<path d="M111.654 252.427C112.106 251.716 112.621 251.049 113.191 250.433" stroke="#151515" stroke-linecap="round" stroke-linejoin="round"/>
<path d="M113.111 252.292C112.501 251.705 111.982 251.025 111.572 250.277" stroke="#151515" stroke-linecap="round" stroke-linejoin="round"/>
<path d="M239.705 179.281C239.707 178.323 239.71 177.364 239.713 176.406" stroke="#151515" stroke-linecap="round" stroke-linejoin="round"/>
<path d="M235.458 179.065C235.603 178.154 235.638 177.228 235.562 176.309" stroke="#151515" stroke-linecap="round" stroke-linejoin="round"/>
<path d="M231.081 178.62C231.239 177.748 231.311 176.861 231.295 175.975" stroke="#151515" stroke-linecap="round" stroke-linejoin="round"/>
<path d="M226.751 178.17C226.807 177.326 226.862 176.482 226.917 175.638" stroke="#151515" stroke-linecap="round" stroke-linejoin="round"/>
<path d="M222.29 177.841C222.519 177.192 222.608 176.5 222.548 175.813" stroke="#151515" stroke-linecap="round" stroke-linejoin="round"/>
<path d="M217.809 177.887L218.004 175.527" stroke="#151515" stroke-linecap="round" stroke-linejoin="round"/>
<path d="M225.358 180.835C225.199 180.757 225.015 180.745 224.846 180.801C224.678 180.857 224.536 180.978 224.452 181.138C224.368 181.297 224.347 181.484 224.393 181.659C224.44 181.834 224.551 181.984 224.703 182.077C224.855 182.171 225.036 182.201 225.209 182.161C225.382 182.121 225.534 182.015 225.633 181.864C225.731 181.713 225.77 181.53 225.74 181.351C225.709 181.172 225.613 181.012 225.471 180.904" stroke="#151515" stroke-linecap="round" stroke-linejoin="round"/>
<path d="M234.711 181.191C234.552 181.112 234.368 181.1 234.199 181.156C234.03 181.212 233.889 181.332 233.804 181.492C233.72 181.652 233.698 181.839 233.745 182.014C233.791 182.189 233.902 182.339 234.054 182.433C234.206 182.526 234.387 182.557 234.56 182.517C234.734 182.478 234.886 182.371 234.985 182.22C235.084 182.069 235.122 181.886 235.092 181.707C235.062 181.528 234.966 181.368 234.823 181.26" stroke="#151515" stroke-linecap="round" stroke-linejoin="round"/>
<path d="M224.953 181.369C224.133 182.27 223.911 183.6 224.043 184.821C224.175 186.042 224.617 187.201 224.972 188.374C225.327 189.548 225.6 190.79 225.383 192C225.167 193.209 224.356 194.378 223.188 194.669" stroke="#151515" stroke-linecap="round" stroke-linejoin="round"/>
<path d="M234.318 181.932C235.185 182.792 235.827 183.86 236.189 185.039C236.55 186.217 236.619 187.47 236.388 188.684C236.217 189.539 235.896 190.36 235.749 191.22C235.602 192.081 235.654 193.031 236.159 193.733" stroke="#151515" stroke-linecap="round" stroke-linejoin="round"/>
<path d="M133.172 120.231C133.216 117.377 133.26 114.523 133.305 111.67" stroke="#151515" stroke-linecap="round" stroke-linejoin="round"/>
<path d="M127.9 120.258C128.123 117.311 128.347 114.363 128.57 111.415" stroke="#151515" stroke-linecap="round" stroke-linejoin="round"/>
<path d="M122.52 120.128C122.543 117.223 122.567 114.317 122.59 111.412" stroke="#151515" stroke-linecap="round" stroke-linejoin="round"/>
<path d="M116.343 120.043C116.308 117.163 116.354 114.284 116.479 111.406" stroke="#151515" stroke-linecap="round" stroke-linejoin="round"/>
<path d="M110.799 119.984L111.064 111.954" stroke="#151515" stroke-linecap="round" stroke-linejoin="round"/>
<path d="M107.227 119.773C107.253 117.169 107.279 114.565 107.305 111.96" stroke="#151515" stroke-linecap="round" stroke-linejoin="round"/>
<path d="M153.638 131.367C153.728 131.106 153.767 130.829 153.752 130.552C153.737 130.275 153.668 130.004 153.549 129.755C153.43 129.506 153.264 129.284 153.061 129.102C152.857 128.919 152.62 128.78 152.363 128.692C151.67 128.489 150.934 128.69 150.226 128.83C149.518 128.97 148.725 129.036 148.133 128.615C147.483 128.154 147.294 127.272 147.17 126.472" stroke="#151515" stroke-linecap="round" stroke-linejoin="round"/>
<path d="M140.78 143.189C141.05 142.836 141.189 142.396 141.172 141.949C141.155 141.501 140.982 141.075 140.686 140.745C140.334 140.379 139.846 140.179 139.476 139.832C139.106 139.484 138.881 138.857 139.207 138.466" stroke="#151515" stroke-linecap="round" stroke-linejoin="round"/>
<path d="M125.906 136.303C125.664 135.789 125.494 135.242 125.399 134.68C125.353 134.398 125.364 134.109 125.432 133.831C125.5 133.554 125.623 133.293 125.793 133.066C126.088 132.713 126.522 132.514 126.871 132.216C127.205 131.924 127.456 131.547 127.599 131.122C127.742 130.698 127.772 130.243 127.685 129.803" stroke="#151515" stroke-linecap="round" stroke-linejoin="round"/>
<path d="M110.962 141.78C110.842 141.107 110.452 140.524 110.167 139.905C109.881 139.287 109.704 138.539 110.016 137.933C110.287 137.407 110.853 137.126 111.288 136.731C111.652 136.395 111.93 135.971 112.096 135.499C112.262 135.027 112.312 134.52 112.241 134.023" stroke="#151515" stroke-linecap="round" stroke-linejoin="round"/>
<path d="M101.946 131.528C101.833 130.98 101.812 130.416 101.884 129.86C101.923 129.583 102.03 129.32 102.195 129.095C102.36 128.871 102.577 128.692 102.826 128.576C103.146 128.454 103.502 128.476 103.831 128.382C104.126 128.279 104.395 128.108 104.616 127.882C104.837 127.656 105.005 127.382 105.106 127.081C105.305 126.476 105.411 125.844 105.422 125.207" stroke="#151515" stroke-linecap="round" stroke-linejoin="round"/>
<path d="M90.2755 132.642C90.2237 132.184 90.2333 131.72 90.3041 131.265C90.3407 131.036 90.4221 130.819 90.5436 130.624C90.6647 130.429 90.8234 130.261 91.0096 130.13C91.3524 129.967 91.7127 129.845 92.0833 129.767C92.4715 129.634 92.8234 129.408 93.1099 129.108C93.3961 128.808 93.6088 128.443 93.7302 128.044" stroke="#151515" stroke-linecap="round" stroke-linejoin="round"/>
<path d="M149.696 73.0393L155.017 67.5517" stroke="#151515" stroke-linecap="round" stroke-linejoin="round"/>
<path d="M150.309 77.2839C155.296 76.6744 160.211 75.5559 164.982 73.9449" stroke="#151515" stroke-linecap="round" stroke-linejoin="round"/>
<path d="M148.746 82.011C149.997 83.3787 151.517 84.4596 153.206 85.1822" stroke="#151515" stroke-linecap="round" stroke-linejoin="round"/>
<path d="M101.569 55.2295C102.233 54.1644 102.897 53.0992 103.561 52.0339" stroke="#151515" stroke-linecap="round" stroke-linejoin="round"/>
<path d="M103.828 55.2839C103.09 54.0508 102.129 52.9733 100.996 52.1083" stroke="#151515" stroke-linecap="round" stroke-linejoin="round"/>
<path d="M95.1988 67.1515L93.3594 62.9193" stroke="#151515" stroke-linecap="round" stroke-linejoin="round"/>
<path d="M92.0874 66.8111C93.245 65.6098 94.5494 64.566 95.968 63.7064" stroke="#151515" stroke-linecap="round" stroke-linejoin="round"/>
<path d="M203.144 140.464C202.822 139.465 202.327 138.534 201.682 137.716" stroke="#151515" stroke-linecap="round" stroke-linejoin="round"/>
<path d="M201.134 140.262L203.526 137.86" stroke="#151515" stroke-linecap="round" stroke-linejoin="round"/>
<path d="M204.007 154.004C202.665 153.263 201.424 152.345 200.316 151.272" stroke="#151515" stroke-linecap="round" stroke-linejoin="round"/>
<path d="M200.484 155.024L203.73 149.431" stroke="#151515" stroke-linecap="round" stroke-linejoin="round"/>
<path d="M171.481 236.087C173.095 232.508 173.407 228.461 172.363 224.672" stroke="#151515" stroke-linecap="round" stroke-linejoin="round"/>
<path d="M100.674 228.459C101.185 225.391 102.48 222.515 104.429 220.122" stroke="#151515" stroke-linecap="round" stroke-linejoin="round"/>
<path d="M114.312 183.879C114.982 182.917 115.839 182.105 116.828 181.495" stroke="#151515" stroke-linecap="round" stroke-linejoin="round"/>
<path d="M116.193 184.607L114.248 180.7" stroke="#151515" stroke-linecap="round" stroke-linejoin="round"/>
<path d="M106.118 190.105C106.239 188.606 106.36 187.107 106.481 185.609" stroke="#151515" stroke-linecap="round" stroke-linejoin="round"/>
<path d="M103.683 188.073L108.544 187.84" stroke="#151515" stroke-linecap="round" stroke-linejoin="round"/>
<path d="M81.8749 223.992C80.8034 221.34 80.2716 218.492 80.3123 215.621C80.353 212.75 80.9654 209.916 82.1119 207.293" stroke="#151515" stroke-linecap="round" stroke-linejoin="round"/>
<path d="M263.539 190.484C269.252 185.687 273.59 179.399 276.091 172.287" stroke="#151515" stroke-linecap="round" stroke-linejoin="round"/>
<path d="M68.1673 120.663C64.5394 114.974 62.5798 108.34 62.5195 101.542" stroke="#151515" stroke-linecap="round" stroke-linejoin="round"/>
<path d="M204.202 62.1341C201.262 64.7951 199.346 68.4412 198.799 72.415C198.425 75.2098 199.014 78.5168 201.407 79.9123C203.605 81.1933 206.797 80.0414 207.727 77.632C208.066 76.7536 208.08 75.6361 207.412 74.9863C206.59 74.186 205.209 74.5135 204.264 75.163C203.26 75.8781 202.477 76.8737 202.01 78.0303C201.543 79.1873 201.411 80.4566 201.63 81.6866C202.019 83.6908 203.314 85.3648 204.566 86.956C205.818 88.5472 207.107 90.2276 207.483 92.2344C207.858 94.2413 206.982 96.6546 205.075 97.27" stroke="#151515" stroke-linecap="round" stroke-linejoin="round"/>
<path d="M81.5102 147.092C85.2177 148.107 87.9444 152.019 87.6757 155.937C87.407 159.855 84.172 163.35 80.3615 163.84C78.825 164.037 77.1174 163.723 76.078 162.551C75.0386 161.379 75.0561 159.227 76.3809 158.404C77.8596 157.487 79.8072 158.699 80.6647 160.233C82.1755 162.928 81.7191 166.384 80.4227 169.198C79.1262 172.013 77.0917 174.388 75.3609 176.947C73.6301 179.506 72.1509 182.435 72.2263 185.543" stroke="#151515" stroke-linecap="round" stroke-linejoin="round"/>
<path d="M201.103 236.476C204.502 230.51 209.787 225.906 216.084 223.422C217.852 222.731 220.211 222.38 221.319 223.946C221.985 224.887 221.888 226.223 221.377 227.262C220.865 228.301 220.007 229.112 219.168 229.898C218.405 230.612 217.601 231.35 216.604 231.625C215.606 231.9 214.361 231.545 213.96 230.573C213.429 229.28 214.6 227.948 215.702 227.11C220.494 223.48 226.124 221.184 232.039 220.449" stroke="#151515" stroke-linecap="round" stroke-linejoin="round"/>
<path d="M193.776 61.8874C193.599 60.7526 193.422 59.6185 193.244 58.4855" stroke="#151515" stroke-linecap="round" stroke-linejoin="round"/>
<path d="M191.162 60.8565L196.062 59.456" stroke="#151515" stroke-linecap="round" stroke-linejoin="round"/>
<path d="M70.7745 155.956C70.4083 154.38 70.0421 152.805 69.6758 151.23" stroke="#151515" stroke-linecap="round" stroke-linejoin="round"/>
<path d="M67.5386 155.059L72.0087 152.696" stroke="#151515" stroke-linecap="round" stroke-linejoin="round"/>
<path d="M227.563 234.289C228.683 233.113 229.49 231.665 229.909 230.082" stroke="#151515" stroke-linecap="round" stroke-linejoin="round"/>
<path d="M226.766 231.972L231.096 233.744" stroke="#151515" stroke-linecap="round" stroke-linejoin="round"/>
<path d="M216.369 215.368C216.475 213.878 216.907 212.43 217.632 211.133" stroke="#151515" stroke-linecap="round" stroke-linejoin="round"/>
<path d="M214.242 213.323L218.641 213.561" stroke="#151515" stroke-linecap="round" stroke-linejoin="round"/>
<g opacity="0.1">
<path d="M130.566 69.1137C129.238 68.8433 127.89 68.6949 126.536 68.67C125.353 68.6801 124.175 68.7604 122.993 68.7304C120.61 68.6696 118.104 68.6203 115.734 68.868C113.868 69.0632 111.973 70.0329 110.845 71.6034C109.685 73.22 109.588 75.5079 109.557 77.4412C109.392 87.778 109.853 98.1417 110.074 108.476C110.147 111.886 115.349 112.107 115.276 108.673C115.075 99.3006 115.109 89.8852 114.618 80.5244C114.523 78.7204 114.188 76.7011 114.495 74.9031C114.576 74.4284 114.716 73.6374 115.009 73.2726C115.443 72.7338 116.74 72.5789 117.369 72.4386C121.8 71.4501 126.33 71.2049 130.611 69.5772C130.662 69.5612 130.707 69.5277 130.737 69.4818C130.767 69.4362 130.781 69.3812 130.775 69.3262C130.77 69.2716 130.747 69.2202 130.709 69.1815C130.671 69.1425 130.621 69.1181 130.567 69.1129L130.566 69.1137Z" fill="#151515"/>
</g>
<g opacity="0.1">
<path d="M105.435 112.278C104.919 113.668 104.757 115.143 104.577 116.61C104.482 117.386 104.424 118.175 104.291 118.944C104.281 119.153 104.237 119.359 104.162 119.553C104.236 119.426 104.438 119.344 104.187 119.439C103.141 119.835 101.818 119.805 100.718 120.025C99.4581 120.278 98.2058 120.585 96.9745 120.959C94.5813 121.683 92.2607 122.639 90.0447 123.813C87.8092 125.002 85.8739 126.566 83.752 127.929C82.4064 128.794 81.8832 130.508 82.8532 131.901C83.7086 133.129 85.7185 133.548 86.8147 132.327C88.5711 130.373 91.0227 128.944 93.3091 127.74C95.6627 126.486 98.1541 125.526 100.73 124.878C103.167 124.276 106.509 124.496 108.023 122.065C108.859 120.722 108.777 119.082 108.835 117.554C108.901 115.823 109.005 114.11 108.666 112.401C108.321 110.658 105.995 110.769 105.435 112.278Z" fill="#151515"/>
</g>
<g opacity="0.1">
<path d="M134.56 199.34C134.519 200.793 133.645 201.403 132.757 202.372C131.957 203.227 131.249 204.169 130.646 205.18C129.156 207.732 129.533 210.846 129.529 213.711C129.521 219.909 129.821 226.107 130.023 232.302L132.011 229.832C125.94 230.842 120.174 233.268 115.161 236.921C112.66 238.706 110.362 240.77 108.309 243.076C107.209 244.324 106.181 245.635 105.229 247.004C104.313 248.332 103.23 249.81 102.884 251.417C102.635 252.575 102.931 253.772 103.955 254.439C104.874 255.037 106.316 254.99 107.094 254.145C108.143 253.007 108.78 251.623 109.61 250.322C110.322 249.194 111.098 248.112 111.935 247.079C113.752 244.857 115.829 242.873 118.12 241.171C122.58 237.887 127.751 235.759 133.188 234.967C134.23 234.812 135.213 233.572 135.177 232.497C134.963 226.297 134.847 220.085 134.423 213.897C134.325 212.463 134.227 211.028 134.12 209.595C134.028 208.362 133.709 206.811 134.006 205.617C134.268 204.562 135.002 203.577 135.44 202.582C135.901 201.532 136.316 200.579 136.254 199.405C136.197 198.311 134.594 198.205 134.56 199.34Z" fill="#151515"/>
</g>
<g opacity="0.1">
<path d="M216.158 134.679C215.456 136.407 215.56 138.6 215.329 140.448C215.075 142.469 214.813 144.493 214.593 146.518C214.269 149.493 214.699 153.075 215.978 155.792C216.636 157.187 217.673 158.557 218.978 159.37C220.248 160.162 221.679 160.656 222.945 161.471C226.282 163.618 224.832 168.041 223.049 170.831C221.708 172.929 225.355 174.692 226.072 172.273C227.11 168.77 228.72 165.288 226.951 161.688C226.283 160.33 225.21 159.214 224.075 158.261C222.894 157.298 221.799 156.229 220.804 155.067C219.843 153.922 219.033 152.686 218.665 151.216C218.321 149.718 218.117 148.189 218.056 146.65C217.936 144.609 218.2 142.594 218.315 140.562C218.424 138.645 218.693 136.245 217.714 134.531C217.633 134.385 217.511 134.267 217.365 134.189C217.219 134.112 217.054 134.079 216.89 134.094C216.727 134.11 216.571 134.174 216.44 134.277C216.311 134.381 216.213 134.521 216.158 134.679L216.158 134.679Z" fill="#151515"/>
</g>
<g opacity="0.1">
<path d="M218.277 173.562C216.429 172.671 214.667 175.027 214.027 176.51C213.492 177.747 213.065 178.932 211.554 178.837C210.112 178.748 208.722 178.043 207.317 177.737C204.717 177.171 201.4 177.878 200.04 180.455C198.563 183.255 199.427 186.209 198.786 189.161C198.091 192.368 202.383 193.812 203.564 190.706C204.512 188.212 203.578 185.579 204.159 183.054C204.283 182.582 204.468 182.129 204.711 181.707C204.898 181.363 204.902 181.545 204.804 181.595C205.064 181.482 205.34 181.412 205.621 181.388C206.858 181.225 208.032 181.628 209.22 181.899C211.479 182.416 213.935 182.333 215.321 180.129C215.902 179.205 216.15 178.131 216.441 177.089C216.565 176.525 216.727 175.971 216.926 175.43C217.235 174.718 217.653 174.464 218.256 174.077C218.419 173.972 218.49 173.667 218.276 173.564L218.277 173.562Z" fill="#151515"/>
</g>
</g>
</g>
</g>
<defs>
<linearGradient id="paint0_linear_754_1263" x1="226.683" y1="173.268" x2="225.66" y2="200.24" gradientUnits="userSpaceOnUse">
<stop stop-color="#4A9FFF"/>
<stop offset="1" stop-color="#2A67F7"/>
</linearGradient>
<linearGradient id="paint1_linear_754_1263" x1="125.811" y1="117.575" x2="124.585" y2="149.889" gradientUnits="userSpaceOnUse">
<stop stop-color="#4A9FFF"/>
<stop offset="1" stop-color="#2A67F7"/>
</linearGradient>
<linearGradient id="paint2_linear_754_1263" x1="245.955" y1="176.589" x2="245.808" y2="180.465" gradientUnits="userSpaceOnUse">
<stop stop-color="#4A9FFF"/>
<stop offset="1" stop-color="#2A67F7"/>
</linearGradient>
<linearGradient id="paint3_linear_754_1263" x1="211.908" y1="174.708" x2="211.763" y2="178.529" gradientUnits="userSpaceOnUse">
<stop stop-color="#4A9FFF"/>
<stop offset="1" stop-color="#2A67F7"/>
</linearGradient>
<linearGradient id="paint4_linear_754_1263" x1="121.376" y1="110.747" x2="120.999" y2="120.679" gradientUnits="userSpaceOnUse">
<stop stop-color="#4A9FFF"/>
<stop offset="1" stop-color="#2A67F7"/>
</linearGradient>
<linearGradient id="paint5_linear_754_1263" x1="137.115" y1="230.11" x2="135.703" y2="267.314" gradientUnits="userSpaceOnUse">
<stop stop-color="#4A9FFF"/>
<stop offset="1" stop-color="#2A67F7"/>
</linearGradient>
<clipPath id="clip0_754_1263">
<rect width="247.943" height="253.622" fill="white" transform="matrix(0.999281 0.0379076 -0.0380034 0.999278 55.1836 20.9577)"/>
</clipPath>
</defs>
</svg>
