<svg width="331" height="326" viewBox="0 0 331 326" fill="none" xmlns="http://www.w3.org/2000/svg">
<path d="M12.8364 73.4333L0.633873 308.738C0.60525 309.29 1.02979 309.76 1.58176 309.789L314.423 325.691C314.976 325.72 315.446 325.294 315.473 324.741L330.459 14.1795C330.485 13.6277 330.06 13.1589 329.508 13.1325L55.5675 0.0149492C55.3642 0.00521525 55.1601 0.0592459 54.9878 0.16756C24.0231 19.6338 14.7163 49.6515 12.8364 73.4333Z" fill="#FF8838"/>
<path d="M55.2556 0.000244141C28.0758 12.9711 18.578 30.9443 13.7793 65.9019C31.5751 46.4212 42.8011 45.3661 57.5691 44.4245C53.0702 30.445 52.5703 13.4704 55.2556 0.000244141Z" fill="#AF4600"/>
<g clip-path="url(#clip0_754_6517)">
<mask id="mask0_754_6517" style="mask-type:luminance" maskUnits="userSpaceOnUse" x="12" y="4" width="320" height="319">
<path d="M331.861 18.8456L27.1641 4.28973L12.6307 307.747L317.328 322.303L331.861 18.8456Z" fill="white"/>
</mask>
<g mask="url(#mask0_754_6517)">
<mask id="mask1_754_6517" style="mask-type:luminance" maskUnits="userSpaceOnUse" x="78" y="16" width="188" height="227">
<path d="M265.974 24.9493L89.332 16.5108L78.9034 234.262L255.546 242.701L265.974 24.9493Z" fill="white"/>
</mask>
<g mask="url(#mask1_754_6517)">
<path fill-rule="evenodd" clip-rule="evenodd" d="M182.819 205.564L195.703 142.411L195.541 142.381C195.354 143.287 194.611 145.056 191.652 145.223C188.152 145.421 187.534 142.4 187.433 141.635L187.247 141.662L174.478 205.663L174.291 206.195L175.273 206.537L179.184 207.906L183.086 206.155L182.819 205.564ZM191.773 147.762C191.805 147.518 191.632 147.295 191.388 147.263C191.143 147.232 190.919 147.403 190.887 147.647C188.511 165.822 185.131 183.853 180.762 201.657C180.703 201.896 180.85 202.136 181.09 202.195C181.329 202.253 181.571 202.107 181.629 201.868C186.007 184.033 189.393 165.97 191.773 147.762Z" fill="url(#paint0_linear_754_6517)"/>
<path d="M228.566 125.489L231.802 123.884L228.522 138.242C226.113 138 223.781 147.853 223.49 152.505L223.492 152.52C221.169 152.93 218.909 153.638 216.769 154.627C215.897 155.034 215.025 155.5 214.386 156.217C213.747 156.935 213.381 157.959 213.668 158.875C213.955 159.792 215.276 160.602 216.177 160.26L216.191 160.287C216.121 160.319 216.053 160.358 215.983 160.393C214.689 161.085 213.302 162.171 213.387 163.629C213.468 164.986 215.269 165.96 216.504 165.384L216.512 165.399C216.124 165.597 215.742 165.802 215.359 166.01C214.821 166.302 214.265 166.623 213.926 167.132C213.586 167.64 213.531 168.398 213.973 168.826C214.388 169.229 215.048 169.201 215.621 169.127C217.586 168.905 219.526 168.503 221.416 167.925L221.481 168.127L218.242 182.79L216.374 191.244L183.084 206.158L182.817 205.566L195.701 142.412L195.538 142.38C195.575 142.205 195.595 142.027 195.599 141.849L228.566 125.489Z" fill="url(#paint1_linear_754_6517)"/>
<path d="M211.783 110.195C212.072 110.25 212.364 110.28 212.658 110.284L212.654 110.605C212.396 111.899 211.804 113.811 210.518 114.335C209.706 114.664 208.777 114.495 207.91 114.32C206.727 114.083 205.542 113.844 204.356 113.604C203.565 113.447 202.69 113.233 202.259 112.59C201.811 111.918 202.217 111.097 202.43 110.329C202.623 109.671 202.85 109.024 203.11 108.389C203.814 108.68 204.551 108.884 205.304 108.995L211.783 110.195Z" fill="url(#paint2_linear_754_6517)"/>
<path d="M202.289 104.948C202.718 105.298 203.395 105.44 204.331 105.562C207.367 105.959 210.438 106.199 213.486 106.517C213.883 106.57 214.284 106.583 214.683 106.553L215.502 106.613C215.726 108.35 215.259 109.95 213.987 110.183C213.549 110.264 213.104 110.299 212.659 110.286C212.365 110.281 212.072 110.251 211.784 110.196L205.305 108.996C204.551 108.885 203.814 108.682 203.11 108.39C202.774 108.239 202.466 108.032 202.199 107.779C201.401 107.014 201.284 105.536 202.261 104.983L202.289 104.948Z" fill="url(#paint3_linear_754_6517)"/>
<path d="M131.158 228.741C129.769 227.565 128.733 226.03 128.163 224.305C127.594 222.58 127.512 220.733 127.929 218.965C128.345 217.198 129.243 215.579 130.524 214.287C131.804 212.995 133.418 212.081 135.187 211.643C135.759 211.646 136.331 211.662 136.89 211.683C143.177 211.903 149.463 212.124 155.748 212.346C157.79 212.417 160.046 212.786 162.021 212.118L162.04 212.168C164.299 211.492 167.037 212.199 169.168 213.556L169.097 213.669C166.157 214.698 163.008 214.663 159.871 214.38C158.663 214.273 157.457 214.125 156.266 213.991C155.392 213.89 154.505 213.8 153.617 213.736C151.149 213.55 148.659 213.562 146.328 214.142C145.369 214.375 144.441 214.717 143.561 215.162C141.223 216.353 139.176 218.773 139.643 221.345C140.032 223.489 142.003 224.975 143.962 225.944C144.797 226.355 145.655 226.716 146.533 227.023C148.767 227.793 151.089 228.281 153.444 228.475C155.177 228.628 156.918 228.66 158.655 228.573C159.701 228.522 160.745 228.435 161.785 228.318C165.734 227.878 169.641 227.017 173.526 226.16L173.716 226.199C173.243 228.348 172.433 230.41 171.313 232.306L171.38 232.965C168.838 233.227 166.29 233.435 163.738 233.589C155.033 234.126 146.161 234.102 137.761 231.76C135.426 231.108 133.075 230.229 131.022 228.962L131.158 228.741Z" fill="url(#paint4_linear_754_6517)"/>
<path d="M159.253 81.0119C160.218 80.2044 161.348 79.6158 162.564 79.2869C163.781 78.9579 165.055 78.8967 166.298 79.1072C166.806 79.1968 167.361 79.3718 167.613 79.8231C167.712 80.029 167.754 80.2572 167.736 80.4844C167.718 80.7119 167.64 80.9304 167.51 81.1183C167.245 81.4898 166.905 81.8023 166.512 82.0353C165.442 82.7541 164.284 83.3353 163.067 83.7647C164.492 83.4824 166.161 83.6958 167.551 84.1183C168.197 84.3124 168.912 84.697 168.999 85.363C169.09 86.0769 168.405 86.6417 167.757 86.9599C165.459 88.097 162.849 88.1176 160.27 87.712C159.114 87.5231 157.968 87.2762 156.836 86.9721C153.233 86.0311 149.483 84.8783 145.859 85.7294C144.452 86.0599 143.025 86.7755 142.371 88.0591C141.93 88.9286 141.896 89.942 141.873 90.9175C141.818 93.251 141.764 95.5836 141.711 97.9152L141.658 97.9127C141.062 98.4006 140.75 99.1398 140.407 99.8297C140.064 100.52 139.618 101.226 138.901 101.515C138.723 101.6 138.525 101.636 138.328 101.618C138.131 101.6 137.942 101.53 137.783 101.414C137.442 101.119 137.428 100.602 137.476 100.153C137.554 99.4565 137.718 98.7726 137.964 98.1163C137.775 98.3612 137.545 98.5719 137.285 98.7398C136.547 99.2032 135.382 99.0821 135.035 98.287C134.745 97.617 135.148 96.8705 135.518 96.241C137.043 93.6335 138.203 90.7713 138.548 87.7747C138.666 86.7502 138.689 85.7123 138.909 84.7076C139.13 83.7029 139.575 82.7002 140.374 82.0469C141.276 81.3121 142.502 81.1155 143.669 81.0763C145.619 81.0121 147.559 81.3114 149.511 81.3285C151.462 81.3455 153.495 81.044 155.086 79.9208C156.484 78.9368 157.474 77.3693 159.06 76.7296C159.708 76.4666 160.622 76.4777 160.923 77.1066C161.047 77.4497 161.043 77.8263 160.911 78.1665C160.595 79.2311 160.01 80.1967 159.212 80.9707L159.253 81.0119Z" fill="#151515"/>
<path d="M151.048 166.78C150.576 165.433 149.02 165.368 147.601 165.564L147.596 165.546C147.919 165.455 148.243 165.357 148.566 165.257C149.238 165.049 149.925 164.82 150.469 164.374C151.013 163.928 151.386 163.207 151.231 162.523C151.065 161.812 150.373 161.321 149.656 161.171C148.939 161.021 148.196 161.149 147.476 161.275C145.131 161.682 142.778 162.208 140.433 162.645L140.43 162.627C140.532 162.188 140.618 161.755 140.696 161.325L140.704 161.325L145.924 129.208L148.692 130.026L187.417 141.458C187.417 141.458 187.42 141.52 187.435 141.634L187.249 141.66L174.479 205.662L174.293 206.193L135.522 192.619L136.092 189.064L137.927 177.578L137.922 177.435C141.03 177.343 144.114 176.844 147.092 175.952C148.093 175.647 149.101 175.271 149.881 174.581C150.662 173.892 151.176 172.812 150.936 171.8C150.695 170.788 149.319 169.873 148.35 170.264L148.34 170.231C149.04 170.024 149.691 169.678 150.252 169.212C150.926 168.608 151.343 167.634 151.048 166.78Z" fill="url(#paint5_linear_754_6517)"/>
<path d="M96.4854 180.357C99.9755 182.789 104.451 183.24 108.71 183.443C111.237 183.564 113.834 183.605 116.456 183.576L116.457 183.606C134.279 188.562 134.556 188.611 135.801 189.018L136.091 189.065L135.521 192.62L174.291 206.194L175.273 206.537L175.245 206.616C171.985 207.718 164.456 211.022 162.633 211.876C162.435 211.969 162.231 212.05 162.022 212.118C160.047 212.787 157.79 212.418 155.749 212.347C149.462 212.127 143.176 211.905 136.891 211.683C136.331 211.663 135.76 211.647 135.188 211.644C132.5 211.628 129.759 211.907 127.705 213.551C126.202 214.753 125.387 216.51 125.17 218.399L124.962 218.377C114.117 217.91 104.047 215.915 93.7318 212.54C89.3067 211.09 84.6074 209.079 82.4223 204.982C80.7023 201.751 80.9141 197.825 81.8142 194.279C83.0308 189.475 85.6732 184.834 89.9358 182.274C94.7106 179.409 96.2495 180.216 96.2495 180.216L96.2624 180.195C96.3355 180.252 96.4105 180.302 96.4854 180.357Z" fill="#151515"/>
<path d="M152.327 116.263C151.074 114.808 151.933 111.583 153.299 110.233C154.665 108.883 156.877 108.572 157.978 106.998C159.091 105.41 158.907 102.786 159.086 100.859C159.488 96.4942 159.88 92.1297 160.261 87.7656" stroke="#151515" stroke-linecap="round" stroke-linejoin="round"/>
<path d="M156.691 93.6273C155.998 93.3893 155.307 93.1514 154.617 92.9133" stroke="#151515" stroke-linecap="round" stroke-linejoin="round"/>
<path d="M157.493 89.7262C155.755 89.2392 153.936 89.1138 152.149 89.3579C151.744 93.2308 152.117 97.1456 153.245 100.874C152.963 101.132 152.612 101.301 152.234 101.36C151.856 101.419 151.47 101.365 151.122 101.206" stroke="#151515" stroke-linecap="round" stroke-linejoin="round"/>
<path d="M149.166 92.2775C148.221 91.943 147.198 91.8941 146.226 92.1371" stroke="#151515" stroke-linecap="round" stroke-linejoin="round"/>
<path d="M149.085 107.134C147.78 107.105 146.53 106.61 145.561 105.74" stroke="#151515" stroke-linecap="round" stroke-linejoin="round"/>
<path d="M122.026 140.86C117.59 143.383 114.041 147.206 111.863 151.808C110.546 154.601 109.957 158.363 112.27 160.418C113.651 161.645 115.647 161.844 117.497 161.935C122.558 162.189 127.631 162.099 132.68 161.666C132.68 162.195 132.677 162.72 132.679 163.248C132.671 167.956 132.664 172.664 132.658 177.374C132.655 179.134 132.652 180.894 132.65 182.654" stroke="#151515" stroke-linecap="round" stroke-linejoin="round"/>
<path d="M132.652 182.654C127.427 183.167 121.893 183.517 116.456 183.575C113.835 183.604 111.238 183.563 108.71 183.442C104.452 183.239 99.9761 182.788 96.4863 180.356C96.4113 180.303 96.3363 180.25 96.2615 180.194C92.8115 177.675 90.8929 173.55 89.6766 169.451C87.5792 162.399 87.1479 154.726 89.3735 147.715C92.4247 138.097 100.331 130.454 109.558 126.3C117.947 122.522 127.332 121.406 136.551 121.896C137.473 121.943 138.392 122.007 139.308 122.088" stroke="#151515" stroke-linecap="round" stroke-linejoin="round"/>
<path d="M136.557 121.749C136.293 120.79 136.024 119.809 136.092 118.815C136.16 117.821 136.633 116.801 137.516 116.336C138.18 115.988 138.963 115.996 139.711 116.011C140.235 116.021 140.762 116.034 141.286 116.044L152.326 116.278C152.803 116.289 153.282 116.297 153.758 116.308C155.372 116.344 157.068 116.401 158.453 117.23C159.838 118.059 160.381 119.794 159.555 121.174" stroke="#151515" stroke-linecap="round" stroke-linejoin="round"/>
<path d="M156.454 121.277C157.481 121.258 158.514 121.247 159.556 121.244C176.525 121.206 195.418 123.394 211.072 129.247" stroke="#151515" stroke-linecap="round" stroke-linejoin="round"/>
<path d="M140.551 162.268L140.704 161.326L145.923 129.208L148.691 130.026L187.416 141.458C187.416 141.458 187.419 141.52 187.434 141.634C187.535 142.398 188.153 145.42 191.653 145.222C194.611 145.055 195.355 143.286 195.541 142.38C195.578 142.205 195.598 142.027 195.602 141.849L228.569 125.489L231.806 123.883L228.525 138.242" stroke="#151515" stroke-linecap="round" stroke-linejoin="round"/>
<path d="M221.482 168.126L218.243 182.789L216.375 191.243L183.084 206.157L179.182 207.906L175.272 206.537L174.29 206.194L135.52 192.62L136.09 189.064L137.924 177.578" stroke="#151515" stroke-linecap="round" stroke-linejoin="round"/>
<path d="M187.245 141.66L174.475 205.662" stroke="#151515" stroke-linecap="round" stroke-linejoin="round"/>
<path d="M195.74 142.223L195.701 142.411L182.817 205.565" stroke="#151515" stroke-linecap="round" stroke-linejoin="round"/>
<path d="M148.508 130.117L148.691 130.025L151.852 128.442L190.023 139.697L211.139 129.384L223.63 123.281L228.568 125.488L228.711 125.551" stroke="#151515" stroke-linecap="round" stroke-linejoin="round"/>
<path d="M223.491 152.504C223.782 147.852 226.114 137.998 228.522 138.241C230.471 138.556 229.478 142.172 229.072 144.248C228.285 148.269 228.863 152.422 228.598 156.509C228.334 160.596 226.937 164.996 223.439 167.147" stroke="#151515" stroke-linecap="round" stroke-linejoin="round"/>
<path d="M223.441 167.148C222.783 167.447 222.108 167.706 221.419 167.924C219.529 168.502 217.589 168.904 215.624 169.126C215.051 169.199 214.391 169.227 213.975 168.825C213.534 168.397 213.586 167.643 213.928 167.131C214.27 166.619 214.823 166.301 215.362 166.009C215.743 165.802 216.127 165.597 216.515 165.398C219.221 164.005 222.037 162.831 224.933 161.888" stroke="#151515" stroke-linecap="round" stroke-linejoin="round"/>
<path d="M216.529 165.371C216.52 165.374 216.514 165.38 216.504 165.382C215.269 165.958 213.468 164.985 213.387 163.627C213.302 162.168 214.689 161.083 215.983 160.391C216.053 160.356 216.12 160.318 216.191 160.285C219.042 158.795 222.153 157.859 225.356 157.529" stroke="#151515" stroke-linecap="round" stroke-linejoin="round"/>
<path d="M216.179 160.259C215.277 160.602 213.954 159.791 213.67 158.875C213.386 157.959 213.751 156.934 214.388 156.217C215.024 155.499 215.899 155.033 216.771 154.627C218.911 153.638 221.171 152.929 223.494 152.52C224.475 152.345 225.464 152.224 226.458 152.16" stroke="#151515" stroke-linecap="round" stroke-linejoin="round"/>
<path d="M140.43 162.626C140.531 162.187 140.618 161.754 140.695 161.324C140.924 160.032 141.053 158.765 141.176 157.379C141.222 156.849 141.399 156.267 141.086 155.837C140.672 155.271 139.741 155.363 139.205 155.818C138.669 156.273 138.414 156.964 138.121 157.603C136.989 160.036 135.074 162.022 132.68 163.248C132.649 163.264 132.619 163.278 132.588 163.294" stroke="#151515" stroke-linecap="round" stroke-linejoin="round"/>
<path d="M139.476 162.819C139.794 162.763 140.113 162.704 140.432 162.645C142.777 162.208 145.13 161.683 147.474 161.275C148.196 161.149 148.938 161.021 149.655 161.172C150.372 161.322 151.064 161.812 151.23 162.523C151.385 163.207 151.011 163.926 150.468 164.375C149.925 164.824 149.237 165.049 148.565 165.257C148.242 165.358 147.918 165.455 147.595 165.546C144.465 166.461 141.271 167.142 138.04 167.583" stroke="#151515" stroke-linecap="round" stroke-linejoin="round"/>
<path d="M147.599 165.564C149.019 165.368 150.574 165.433 151.046 166.779C151.342 167.634 150.926 168.608 150.25 169.211C149.689 169.677 149.039 170.023 148.339 170.23C148.169 170.29 147.996 170.344 147.827 170.398C144.706 171.373 141.49 172.02 138.233 172.326" stroke="#151515" stroke-linecap="round" stroke-linejoin="round"/>
<path d="M148.349 170.264C149.318 169.874 150.696 170.789 150.934 171.8C151.171 172.812 150.66 173.889 149.88 174.582C149.099 175.275 148.091 175.648 147.09 175.953C144.112 176.844 141.029 177.343 137.92 177.435C136.194 177.504 134.455 177.475 132.701 177.373" stroke="#151515" stroke-linecap="round" stroke-linejoin="round"/>
<path d="M218.41 182.827C222.604 181.192 225.723 180.166 230.214 180.496C234.705 180.827 239.315 183.451 240.635 187.738C241.961 192.041 239.734 196.6 237.158 200.294C231.465 208.45 223.77 215.04 215.122 220.044C213.583 220.935 212.017 221.775 210.423 222.562C209.7 222.922 208.971 223.268 208.24 223.604C206.993 224.182 205.735 224.728 204.465 225.24C203.262 225.729 202.05 226.191 200.831 226.628C198.693 227.393 196.532 228.085 194.348 228.705C193.109 229.058 191.863 229.391 190.61 229.702C188.291 230.276 185.956 230.782 183.604 231.219C179.562 231.976 175.479 232.547 171.381 232.966C168.838 233.227 166.291 233.435 163.739 233.589C155.034 234.126 146.163 234.103 137.762 231.76C135.427 231.108 133.076 230.229 131.023 228.963C129.415 228.001 128.019 226.725 126.917 225.213C125.532 223.223 124.912 220.804 125.169 218.397C125.388 216.509 126.202 214.751 127.704 213.55C129.759 211.905 132.5 211.626 135.187 211.642C135.759 211.645 136.331 211.661 136.89 211.682C143.177 211.902 149.463 212.123 155.749 212.345C157.79 212.416 160.046 212.785 162.022 212.117C162.23 212.048 162.434 211.968 162.632 211.875C164.456 211.021 171.984 207.718 175.244 206.615" stroke="#151515" stroke-linecap="round" stroke-linejoin="round"/>
<path d="M96.2466 180.215C96.2466 180.215 94.7087 179.408 89.9328 182.273C85.6713 184.833 83.0288 189.474 81.8122 194.278C80.9122 197.823 80.7004 201.749 82.4203 204.981C84.6055 209.078 89.3048 211.089 93.7299 212.538C104.045 215.913 114.116 217.908 124.96 218.376" stroke="#151515" stroke-linecap="round" stroke-linejoin="round"/>
<path d="M135.8 189.017C134.557 188.611 134.278 188.562 116.457 183.605" stroke="#151515" stroke-linecap="round" stroke-linejoin="round"/>
<path d="M183.633 231.376C188.519 234.716 193.709 236.874 199.462 238.291C200.561 238.563 201.679 238.795 202.804 238.967C205.854 239.437 208.964 239.472 211.924 238.658C215.974 237.544 219.692 234.594 220.827 230.564C221.839 226.967 219.799 222.574 216.493 220.787C216.098 220.572 215.682 220.396 215.252 220.262" stroke="#151515" stroke-linecap="round" stroke-linejoin="round"/>
<path d="M141.283 116.066L141.284 116.045C141.425 110.001 141.567 103.959 141.708 97.9168C141.761 95.5831 141.815 93.2505 141.87 90.919C141.892 89.9435 141.927 88.9301 142.368 88.0607C143.023 86.7771 144.449 86.0614 145.856 85.7309C149.48 84.8798 153.23 86.0339 156.834 86.9737C157.965 87.2775 159.111 87.5246 160.267 87.7135C162.848 88.1189 165.456 88.098 167.755 86.9615C168.402 86.6422 169.087 86.0784 168.996 85.3646C168.909 84.6985 168.194 84.3152 167.548 84.1198C166.159 83.6973 164.491 83.484 163.064 83.7663" stroke="#151515" stroke-linecap="round" stroke-linejoin="round"/>
<path d="M163.066 83.7645C164.282 83.3351 165.44 82.7539 166.51 82.0351C166.904 81.8021 167.243 81.4899 167.508 81.1181C167.638 80.9304 167.716 80.7117 167.734 80.4845C167.752 80.257 167.71 80.0288 167.612 79.8229C167.359 79.3716 166.804 79.1966 166.296 79.107C165.053 78.8965 163.779 78.9577 162.563 79.2867C161.346 79.6156 160.216 80.2042 159.251 81.0117C159.35 80.9333 159.449 80.8579 159.551 80.7826" stroke="#151515" stroke-linecap="round" stroke-linejoin="round"/>
<path d="M137.962 98.1128C138.291 97.6633 138.566 97.1775 138.783 96.6653" stroke="#151515" stroke-linecap="round" stroke-linejoin="round"/>
<path d="M159.093 81.0879C159.134 81.0481 159.174 81.0116 159.212 80.9717C160.011 80.1978 160.596 79.2321 160.911 78.1675C161.043 77.8274 161.048 77.4508 160.923 77.1077C160.622 76.4788 159.708 76.4676 159.06 76.7307C157.474 77.3701 156.484 78.9378 155.086 79.9219C153.495 81.0451 151.459 81.3456 149.511 81.3297C147.562 81.3138 145.619 81.0131 143.669 81.0773C142.502 81.1165 141.277 81.3132 140.374 82.0479C139.574 82.7002 139.13 83.7011 138.909 84.7089C138.689 85.7166 138.666 86.7512 138.548 87.7757C138.202 90.772 137.042 93.6345 135.518 96.2421C135.148 96.8715 134.745 97.618 135.035 98.2881C135.382 99.0822 136.547 99.2032 137.285 98.7408C137.545 98.573 137.775 98.3623 137.964 98.1173" stroke="#151515" stroke-linecap="round" stroke-linejoin="round"/>
<path d="M138.682 96.6492C138.395 97.1137 138.154 97.604 137.962 98.1139L137.961 98.1169C137.715 98.7732 137.551 99.4573 137.473 100.153C137.425 100.602 137.439 101.12 137.78 101.415C137.94 101.531 138.128 101.601 138.325 101.619C138.522 101.637 138.72 101.601 138.899 101.516C139.616 101.226 140.061 100.518 140.404 99.8304C140.748 99.1432 141.06 98.4013 141.656 97.9133" stroke="#151515" stroke-linecap="round" stroke-linejoin="round"/>
<path d="M203.11 108.389C202.85 109.024 202.623 109.671 202.43 110.329C202.217 111.096 201.811 111.917 202.259 112.59C202.69 113.233 203.565 113.447 204.356 113.604C205.54 113.845 206.725 114.083 207.91 114.32C208.775 114.495 209.706 114.664 210.518 114.335C211.804 113.811 212.396 111.898 212.654 110.605" stroke="#151515" stroke-linecap="round" stroke-linejoin="round"/>
<path d="M202.261 104.982C201.284 105.535 201.401 107.013 202.198 107.778C202.466 108.031 202.774 108.238 203.11 108.389C203.813 108.681 204.55 108.885 205.304 108.996L211.784 110.196C212.073 110.25 212.365 110.28 212.659 110.285C213.104 110.298 213.549 110.264 213.987 110.182C215.259 109.949 215.726 108.351 215.502 106.613" stroke="#151515" stroke-linecap="round" stroke-linejoin="round"/>
<path d="M202.289 104.948C202.718 105.297 203.395 105.44 204.331 105.561C207.367 105.959 210.437 106.198 213.486 106.517C213.883 106.57 214.284 106.582 214.682 106.553C214.877 106.534 215.067 106.488 215.249 106.417C215.926 106.112 216.47 105.576 216.783 104.905C218.639 101.304 218.565 100.787 223.45 97.0693C239.686 84.7071 234.068 72.2626 223.553 70.1573C215.67 68.5785 196.906 71.4875 201.628 87.5196C204.966 98.8519 201.822 101.08 201.726 103.144C201.682 104.061 201.867 104.607 202.289 104.948Z" stroke="#151515" stroke-linecap="round" stroke-linejoin="round"/>
<path d="M212.55 104.622C214.766 100.31 216.981 95.9985 219.197 91.6854C219.447 91.2016 219.734 90.6812 220.251 90.4563C220.747 90.2428 221.326 90.3535 221.872 90.3439C222.396 90.3314 222.911 90.2083 223.383 89.9825C223.855 89.757 224.274 89.4339 224.611 89.035C224.899 88.7126 225.106 88.3272 225.216 87.91C225.325 87.4925 225.334 87.0555 225.242 86.634C225.124 86.2072 224.873 85.8287 224.525 85.5529C224.177 85.2771 223.75 85.1182 223.306 85.0989C222.401 85.0944 221.536 85.899 221.663 86.7452C221.69 86.9635 221.787 87.1676 221.938 87.328C222.09 87.4884 222.288 87.5965 222.505 87.6372C222.956 87.6945 223.434 87.2809 223.317 86.8686" stroke="#151515" stroke-linecap="round" stroke-linejoin="round"/>
<path d="M204.966 104.188C207.009 98.3061 208.574 92.2698 209.645 86.1375C208.741 86.0381 208.245 84.824 208.845 84.1789C209.445 83.5338 210.79 83.8353 211.012 84.6711" stroke="#151515" stroke-linecap="round" stroke-linejoin="round"/>
<path d="M212.544 85.1616C212.316 85.9937 213.047 86.8478 213.917 87.1062C214.787 87.3645 215.735 87.1782 216.611 86.935C217.487 86.6917 218.372 86.3897 219.282 86.4302" stroke="#151515" stroke-linecap="round" stroke-linejoin="round"/>
<path d="M167.615 64.6529C169.499 65.2115 171.571 64.83 173.324 63.9461C175.123 63.0375 176.674 61.5769 177.495 59.7431C179.361 55.558 176.008 49.4284 171.07 49.7624C166.471 50.0769 162.201 54.9785 163.195 59.5466C163.693 61.8355 165.308 63.9669 167.615 64.6529Z" stroke="#151515" stroke-linecap="round" stroke-linejoin="round"/>
<path d="M168.846 47.7C166.949 48.2988 165.272 49.4436 164.027 50.9901C163.518 50.021 162.757 49.2046 161.825 48.6259L158.872 52.0292L161.577 54.5448" stroke="#151515" stroke-linecap="round" stroke-linejoin="round"/>
<path d="M160.76 55.9601C160.726 57.1192 160.691 58.2783 160.657 59.437C160.667 59.7214 160.62 60.0049 160.518 60.2706C160.122 61.1185 158.823 61.1245 158.279 61.8882C158.827 62.8315 159.375 63.776 159.923 64.7213C160.006 64.8619 160.103 65.0179 160.262 65.0551C160.424 65.0671 160.584 65.0163 160.71 64.9133C161.454 64.4354 162.197 63.9565 162.939 63.4763" stroke="#151515" stroke-linecap="round" stroke-linejoin="round"/>
<path d="M163.844 64.8995C164.595 65.6276 165.512 66.1634 166.516 66.4609C167.52 66.7587 168.582 66.8094 169.61 66.6087C169.672 67.7279 169.738 68.8499 169.8 69.969C171.516 69.7442 173.216 69.4136 174.891 68.9791C174.472 68.0713 174.053 67.1635 173.634 66.2557C173.665 66.2683 173.698 66.2746 173.732 66.2739C173.765 66.2733 173.798 66.266 173.828 66.2527C173.859 66.2391 173.886 66.2197 173.909 66.1954C173.932 66.171 173.949 66.1423 173.96 66.111" stroke="#151515" stroke-linecap="round" stroke-linejoin="round"/>
<path d="M175.261 64.9521C176.192 64.5946 177.037 64.0458 177.741 63.3413C178.445 62.6371 178.992 61.793 179.347 60.8639C179.497 60.4674 179.638 60.0199 180 59.7999C180.694 59.3818 181.617 60.0759 182.376 59.7946C182.393 58.0678 182.41 56.3399 182.428 54.6113C181.577 54.8173 180.73 55.0234 179.879 55.2316" stroke="#151515" stroke-linecap="round" stroke-linejoin="round"/>
<path d="M179.017 53.694C178.92 52.7576 178.58 51.8625 178.03 51.0961C177.481 50.3301 176.741 49.7191 175.884 49.3233C176.006 48.3227 176.132 47.3226 176.254 46.322L173.155 45.7922C172.919 45.7303 172.671 45.7328 172.436 45.7993C172.287 45.8706 172.16 45.9807 172.069 46.1179C171.978 46.2553 171.926 46.4146 171.919 46.579C171.909 46.9085 171.96 47.2367 172.069 47.548" stroke="#151515" stroke-linecap="round" stroke-linejoin="round"/>
<path d="M162.04 212.168C164.298 211.493 167.036 212.199 169.168 213.557C169.826 213.971 170.433 214.461 170.976 215.017C173.131 217.246 174.12 220.437 174.035 223.529C174.007 224.427 173.901 225.32 173.716 226.2C173.244 228.349 172.433 230.41 171.313 232.307" stroke="#151515" stroke-linecap="round" stroke-linejoin="round"/>
<path d="M169.098 213.67C166.158 214.699 163.009 214.664 159.872 214.381C158.664 214.273 157.458 214.126 156.267 213.992C155.392 213.891 154.505 213.801 153.617 213.737C151.15 213.551 148.66 213.563 146.328 214.143C145.37 214.376 144.441 214.718 143.561 215.163C141.224 216.354 139.177 218.774 139.644 221.346C140.033 223.49 142.004 224.976 143.963 225.945C144.797 226.356 145.656 226.716 146.534 227.024C148.767 227.794 151.089 228.282 153.445 228.476C155.177 228.629 156.919 228.661 158.656 228.574C159.702 228.523 160.746 228.436 161.786 228.319C165.735 227.879 169.642 227.018 173.527 226.161" stroke="#151515" stroke-miterlimit="10" stroke-linecap="round"/>
<path d="M190.652 229.871C191.694 230.391 192.763 230.857 193.853 231.268C195.747 231.979 197.696 232.532 199.682 232.92C200.567 233.096 201.461 233.24 202.355 233.354C203.637 233.535 204.934 233.595 206.227 233.533C207.162 233.484 208.087 233.315 208.978 233.029C211.095 232.335 213.014 230.726 213.564 228.573C214.114 226.42 212.918 223.825 210.764 223.256" stroke="#151515" stroke-miterlimit="10" stroke-linecap="round"/>
<path d="M161.783 228.304C162.68 226.05 162.973 223.603 162.634 221.202C162.296 218.802 161.337 216.529 159.852 214.608" stroke="#151515" stroke-miterlimit="10" stroke-linecap="round"/>
<path d="M153.475 228.159C156.09 224.051 156.129 218.455 153.572 214.307" stroke="#151515" stroke-miterlimit="10" stroke-linecap="round"/>
<path d="M146.541 227.006C147.589 225.042 148.122 222.846 148.091 220.623C148.06 218.399 147.466 216.219 146.363 214.284" stroke="#151515" stroke-miterlimit="10" stroke-linecap="round"/>
<path d="M208.309 223.404C208.285 223.471 208.264 223.538 208.24 223.605C207.178 226.718 206.496 229.946 206.208 233.221" stroke="#151515" stroke-miterlimit="10" stroke-linecap="round"/>
<path d="M199.686 232.905C200.075 230.831 200.462 228.756 200.849 226.68" stroke="#151515" stroke-miterlimit="10" stroke-linecap="round"/>
<path d="M193.919 231.097C193.911 230.374 194.09 229.661 194.439 229.026" stroke="#151515" stroke-miterlimit="10" stroke-linecap="round"/>
<path d="M135.231 211.633C135.216 211.636 135.204 211.641 135.189 211.643C133.42 212.081 131.806 212.996 130.526 214.287C129.245 215.579 128.347 217.198 127.931 218.965C127.514 220.733 127.595 222.58 128.165 224.305C128.735 226.03 129.771 227.565 131.16 228.741C131.234 228.804 131.309 228.867 131.387 228.927" stroke="#151515" stroke-miterlimit="10" stroke-linecap="round"/>
<path d="M202.785 239.085C206.217 239.664 209.726 240.156 213.167 239.628C216.608 239.1 220.019 237.403 221.852 234.457C222.604 233.247 223.064 231.879 223.194 230.462C223.324 229.044 223.121 227.616 222.601 226.29C222.081 224.964 221.258 223.776 220.198 222.821C219.138 221.866 217.869 221.17 216.492 220.787C216.463 220.777 216.433 220.77 216.404 220.762" stroke="#151515" stroke-miterlimit="10" stroke-linecap="round"/>
<path d="M153.553 145.637L176.24 152.167" stroke="#151515" stroke-linecap="round" stroke-linejoin="round"/>
<path d="M157.195 151.54L171.569 155.996" stroke="#151515" stroke-linecap="round" stroke-linejoin="round"/>
<path d="M188.447 149.121L179.93 195.231" stroke="#151515" stroke-linecap="round" stroke-linejoin="round"/>
<path d="M123.312 98.1095L126.175 97.3432C126.218 97.3316 126.264 97.3336 126.306 97.3484C126.348 97.3635 126.384 97.3911 126.41 97.4271C126.435 97.4633 126.449 97.5064 126.449 97.5508C126.45 97.5952 126.436 97.6385 126.411 97.675L124.736 100.11C124.712 100.146 124.699 100.187 124.699 100.23C124.698 100.273 124.71 100.315 124.734 100.351L126.351 102.826C126.375 102.863 126.387 102.907 126.385 102.951C126.384 102.995 126.369 103.038 126.342 103.073C126.316 103.109 126.279 103.135 126.237 103.149C126.195 103.163 126.15 103.164 126.107 103.152L123.263 102.318C123.222 102.306 123.178 102.306 123.137 102.319C123.096 102.331 123.06 102.356 123.033 102.389L121.169 104.685C121.141 104.72 121.103 104.745 121.061 104.757C121.018 104.769 120.973 104.768 120.931 104.754C120.889 104.74 120.852 104.713 120.825 104.678C120.799 104.642 120.784 104.6 120.783 104.555L120.7 101.604C120.699 101.561 120.685 101.52 120.66 101.485C120.636 101.45 120.601 101.423 120.561 101.408L117.792 100.351C117.751 100.336 117.715 100.307 117.69 100.271C117.665 100.234 117.652 100.191 117.652 100.147C117.653 100.102 117.667 100.06 117.693 100.024C117.719 99.9875 117.755 99.9604 117.797 99.9456L120.589 98.9555C120.63 98.9411 120.665 98.9152 120.691 98.8809C120.716 98.8466 120.731 98.8054 120.733 98.7628L120.886 95.814C120.888 95.7697 120.904 95.7273 120.931 95.6926C120.958 95.6577 120.996 95.6318 121.038 95.6186C121.08 95.6055 121.126 95.6055 121.168 95.6189C121.21 95.632 121.248 95.6579 121.275 95.693L123.084 98.0327C123.11 98.0663 123.146 98.0914 123.187 98.1052C123.227 98.1187 123.271 98.1203 123.312 98.1095Z" stroke="#151515" stroke-miterlimit="10"/>
<path d="M228.728 54.61L232.944 55.7344C233.007 55.7515 233.063 55.7872 233.105 55.8371C233.147 55.8867 233.173 55.9481 233.179 56.0127C233.185 56.0774 233.171 56.1421 233.139 56.1987C233.107 56.2552 233.058 56.3007 232.999 56.329L229.062 58.2043C229.005 58.2314 228.958 58.2747 228.925 58.3289C228.893 58.3829 228.878 58.4455 228.881 58.5083L229.111 62.8493C229.114 62.9143 229.098 62.9786 229.063 63.0339C229.029 63.0892 228.978 63.1327 228.918 63.1584C228.858 63.1842 228.791 63.1908 228.727 63.1779C228.663 63.1647 228.605 63.1324 228.56 63.0853L225.552 59.9354C225.508 59.8899 225.452 59.8582 225.39 59.8444C225.328 59.8306 225.264 59.8351 225.205 59.8575L221.131 61.4158C221.07 61.439 221.003 61.4429 220.94 61.4273C220.876 61.4117 220.819 61.3772 220.776 61.3283C220.733 61.2794 220.706 61.2184 220.699 61.1537C220.691 61.0889 220.704 61.0237 220.735 60.9665L222.813 57.1447C222.843 57.0891 222.855 57.0264 222.85 56.9637C222.844 56.901 222.82 56.8414 222.78 56.7924L220.032 53.4145C219.991 53.364 219.966 53.3019 219.961 53.237C219.956 53.1719 219.972 53.1071 220.005 53.0512C220.039 52.9951 220.088 52.9506 220.148 52.9236C220.208 52.8969 220.274 52.8887 220.338 52.9007L224.631 53.6885C224.693 53.6998 224.757 53.6928 224.815 53.6677C224.873 53.6428 224.923 53.6015 224.957 53.5487L227.333 49.9029C227.368 49.8483 227.42 49.8059 227.48 49.7812C227.541 49.7567 227.607 49.7512 227.671 49.7656C227.735 49.78 227.793 49.8134 227.837 49.8613C227.881 49.9096 227.909 49.9699 227.918 50.0344L228.494 54.3435C228.502 54.4061 228.528 54.4646 228.57 54.5122C228.612 54.5595 228.667 54.5935 228.728 54.61Z" stroke="#151515" stroke-miterlimit="10"/>
<path d="M236.682 123.068L261.623 103.097" stroke="#151515" stroke-linecap="round" stroke-linejoin="round"/>
<path d="M233.734 118.736L236.734 113.223" stroke="#151515" stroke-linecap="round" stroke-linejoin="round"/>
<path d="M229.167 117.471L232.048 96.8651" stroke="#151515" stroke-linecap="round" stroke-linejoin="round"/>
<path d="M235.914 130.365L241.572 130.846" stroke="#151515" stroke-linecap="round" stroke-linejoin="round"/>
<path d="M235.812 136.856L252.794 151.287" stroke="#151515" stroke-linecap="round" stroke-linejoin="round"/>
<path d="M240.84 203.315C242.734 201.248 244.112 198.766 244.863 196.071C245.614 193.375 245.718 190.541 245.165 187.797" stroke="url(#paint6_linear_754_6517)" stroke-linecap="round" stroke-linejoin="round"/>
<path fill-rule="evenodd" clip-rule="evenodd" d="M175.244 206.616C171.984 207.719 164.455 211.023 162.632 211.876C162.433 211.969 162.229 212.05 162.02 212.118L162.039 212.169C164.298 211.493 167.036 212.2 169.167 213.557C169.826 213.971 170.433 214.461 170.975 215.018C173.131 217.246 174.12 220.437 174.034 223.528C174.007 224.427 173.9 225.32 173.715 226.2C173.243 228.349 172.432 230.41 171.313 232.307L171.38 232.966C175.478 232.547 179.561 231.977 183.603 231.22C185.954 230.783 188.29 230.277 190.609 229.702C191.862 229.391 193.108 229.059 194.347 228.705C196.531 228.085 198.692 227.393 200.83 226.628C202.049 226.192 203.261 225.729 204.464 225.241C205.734 224.728 206.992 224.183 208.239 223.604C208.97 223.268 209.699 222.923 210.422 222.563C212.016 221.775 213.582 220.936 215.121 220.044C223.769 215.04 231.464 208.45 237.157 200.295C239.733 196.601 241.96 192.041 240.634 187.739C239.314 183.452 234.704 180.827 230.213 180.497C225.722 180.166 222.603 181.193 218.409 182.827L218.244 182.789L216.375 191.243L183.084 206.157L179.183 207.906L175.272 206.538L175.244 206.616ZM238.432 187.702C238.383 187.461 238.148 187.305 237.906 187.353C237.665 187.402 237.508 187.636 237.556 187.877C237.826 189.219 237.945 190.423 237.767 191.816C237.588 193.214 237.107 194.827 236.147 196.976C234.7 200.215 232.894 201.966 231.252 203.558C230.735 204.06 230.234 204.545 229.766 205.057C229.599 205.238 229.612 205.519 229.795 205.685C229.977 205.85 230.26 205.838 230.426 205.656C230.848 205.195 231.318 204.74 231.816 204.258C233.475 202.651 235.44 200.749 236.963 197.338C237.944 195.141 238.459 193.442 238.653 191.929C238.847 190.41 238.714 189.103 238.432 187.702Z" fill="#151515"/>
<path d="M177.282 130.577C183.645 124.863 184.912 114.339 180.086 107.287C177.588 103.638 173.69 100.825 172.344 96.6177C170.647 91.3137 173.578 85.6799 176.944 81.2352C180.309 76.7905 184.351 72.4578 185.319 66.9758" stroke="url(#paint7_linear_754_6517)" stroke-linecap="round" stroke-linejoin="round"/>
<path d="M196.53 131.696C195.669 128.263 198.118 124.74 201.195 122.972C204.272 121.205 207.89 120.703 211.326 119.807C213.922 119.129 216.494 118.19 218.646 116.594C220.798 114.998 222.505 112.676 222.91 110.034" stroke="url(#paint8_linear_754_6517)" stroke-linecap="round" stroke-linejoin="round"/>
<path d="M146.584 69.8108L141.787 64.5526" stroke="url(#paint9_linear_754_6517)" stroke-linecap="round" stroke-linejoin="round"/>
<path d="M141.761 70.1038L145.878 64.0365" stroke="url(#paint10_linear_754_6517)" stroke-linecap="round" stroke-linejoin="round"/>
<path d="M240.764 94.066L246.62 91.0452" stroke="url(#paint11_linear_754_6517)" stroke-linecap="round" stroke-linejoin="round"/>
<path d="M244.461 96.0028C243.992 93.9214 243.262 91.907 242.289 90.0065" stroke="url(#paint12_linear_754_6517)" stroke-linecap="round" stroke-linejoin="round"/>
<path d="M131.523 87.2433C130.733 86.1579 129.943 85.0725 129.152 83.9872" stroke="url(#paint13_linear_754_6517)" stroke-linecap="round" stroke-linejoin="round"/>
<path d="M128.132 87.4893C129.459 86.1569 130.787 84.8246 132.115 83.4922" stroke="url(#paint14_linear_754_6517)" stroke-linecap="round" stroke-linejoin="round"/>
<path d="M200.276 53.0217C199.249 51.542 198.541 49.8675 198.195 48.1033" stroke="#151515" stroke-linecap="round" stroke-linejoin="round"/>
<path d="M196.564 52.2525C197.892 50.9201 199.219 49.5877 200.547 48.2556" stroke="#151515" stroke-linecap="round" stroke-linejoin="round"/>
<path d="M175.091 116.465C173.797 115.74 172.773 114.619 172.172 113.268" stroke="#151515" stroke-linecap="round" stroke-linejoin="round"/>
<path d="M171.753 117.033C173.09 115.851 174.164 114.403 174.904 112.783" stroke="#151515" stroke-linecap="round" stroke-linejoin="round"/>
<path d="M120.86 169.289L111.369 169.779L118.675 177.566L120.86 169.289Z" stroke="url(#paint15_linear_754_6517)" stroke-linecap="round" stroke-linejoin="round"/>
<path d="M99.2529 172.343L103.537 157.566L92.8765 164.914L99.2529 172.343Z" stroke="url(#paint16_linear_754_6517)" stroke-linecap="round" stroke-linejoin="round"/>
<path d="M109.336 144.119L116.069 139.726L110.626 136.951L109.336 144.119Z" stroke="url(#paint17_linear_754_6517)" stroke-linecap="round" stroke-linejoin="round"/>
<path d="M126.391 148.286L126.49 157.196L133.217 152.907L126.391 148.286Z" stroke="url(#paint18_linear_754_6517)" stroke-linecap="round" stroke-linejoin="round"/>
<path d="M134.586 135.268L127.394 129.477L136.696 126.359L134.586 135.268Z" stroke="url(#paint19_linear_754_6517)" stroke-linecap="round" stroke-linejoin="round"/>
<path d="M144.444 124.948L151.721 124.562L147.288 120.474L144.444 124.948Z" stroke="url(#paint20_linear_754_6517)" stroke-linecap="round" stroke-linejoin="round"/>
<path d="M163.295 124.486L167.652 130.142L172.016 124.693L163.295 124.486Z" stroke="url(#paint21_linear_754_6517)" stroke-linecap="round" stroke-linejoin="round"/>
<path d="M189.588 126.79L184.875 135.156L195.01 134.383L189.588 126.79Z" stroke="url(#paint22_linear_754_6517)" stroke-linecap="round" stroke-linejoin="round"/>
<path d="M185.97 132.212C191.143 129.217 194.313 123.101 193.769 117.165C193.26 111.609 189.883 106.79 187.774 101.621C184.533 93.6872 184.414 84.2034 188.848 76.8657C193.81 68.6519 203.399 64.3517 209.459 56.9045C211.976 53.7752 213.826 50.1671 214.895 46.301C215.965 42.4352 216.231 38.3925 215.679 34.4199C215.242 31.4049 214.281 28.3763 212.306 26.0503C210.33 23.7244 207.2 22.2202 204.191 22.7653C201.182 23.3103 198.629 26.2579 199.08 29.2708" stroke="#151515" stroke-linecap="round" stroke-linejoin="round"/>
<path d="M102.319 149.465L98.0527 147.847" stroke="#151515" stroke-linecap="round" stroke-linejoin="round"/>
<path d="M99.6069 150.324C99.9309 149.015 100.465 147.767 101.187 146.628" stroke="#151515" stroke-linecap="round" stroke-linejoin="round"/>
<path d="M118.484 132.168L115.645 129.405" stroke="#151515" stroke-linecap="round" stroke-linejoin="round"/>
<path d="M114.757 132.453C116.191 131.393 117.524 130.202 118.739 128.897" stroke="#151515" stroke-linecap="round" stroke-linejoin="round"/>
<path d="M137.956 147.347L134.324 143.701" stroke="#151515" stroke-linecap="round" stroke-linejoin="round"/>
<path d="M133.93 147.757L136.908 143.981" stroke="#151515" stroke-linecap="round" stroke-linejoin="round"/>
<path d="M181.725 133.724C181.352 132.774 180.979 131.824 180.605 130.874" stroke="#151515" stroke-linecap="round" stroke-linejoin="round"/>
<path d="M179.379 133.131C180.712 132.709 181.963 132.062 183.075 131.216" stroke="#151515" stroke-linecap="round" stroke-linejoin="round"/>
<path d="M108.843 177.167L106.469 173.981" stroke="#151515" stroke-linecap="round" stroke-linejoin="round"/>
<path d="M105.743 177.437C106.868 176.42 107.992 175.403 109.116 174.385" stroke="#151515" stroke-linecap="round" stroke-linejoin="round"/>
<path d="M236.508 85.3693C237.372 82.0017 237.421 78.4783 236.652 75.0874" stroke="#151515" stroke-linecap="round" stroke-linejoin="round"/>
<path d="M155.168 55.291C155.016 53.3474 155.347 51.3962 156.133 49.6106C156.919 47.8249 158.134 46.2598 159.673 45.0539" stroke="#151515" stroke-linecap="round" stroke-linejoin="round"/>
<path d="M184.292 62.9785C185.123 61.5679 185.625 59.9896 185.76 58.3599C185.896 56.7303 185.662 55.091 185.076 53.5631" stroke="#151515" stroke-linecap="round" stroke-linejoin="round"/>
<path d="M239.9 82.4993C239.762 80.9108 239.624 79.3222 239.486 77.7338" stroke="#151515" stroke-linecap="round" stroke-linejoin="round"/>
<path fill-rule="evenodd" clip-rule="evenodd" d="M220.827 230.563C221.84 226.966 219.801 222.573 216.494 220.786C216.098 220.57 215.682 220.394 215.251 220.26L215.121 220.043C213.579 220.935 212.013 221.774 210.422 222.562L210.765 223.255C212.919 223.824 214.115 226.419 213.565 228.571C213.015 230.724 211.096 232.333 208.979 233.027C208.088 233.313 207.163 233.483 206.228 233.531C204.935 233.593 203.638 233.533 202.356 233.352C201.461 233.238 200.568 233.095 199.682 232.919C197.697 232.53 195.748 231.977 193.854 231.266C192.763 230.856 191.695 230.389 190.652 229.869L190.611 229.701C188.289 230.273 185.954 230.779 183.605 231.219L183.633 231.374C188.519 234.715 193.709 236.872 199.462 238.29C200.561 238.563 201.68 238.794 202.804 238.966C205.854 239.435 208.963 239.471 211.924 238.657C215.974 237.544 219.693 234.593 220.827 230.563ZM216.361 223.975C216.174 223.815 215.892 223.837 215.732 224.024C215.571 224.21 215.593 224.491 215.78 224.651C216.542 225.3 217.118 226.137 217.453 227.078C217.786 228.02 217.866 229.032 217.683 230.013C217.637 230.254 217.798 230.487 218.04 230.532C218.283 230.577 218.516 230.417 218.561 230.176C218.772 229.041 218.681 227.871 218.294 226.782C217.909 225.694 217.242 224.726 216.361 223.975Z" fill="url(#paint23_linear_754_6517)"/>
</g>
</g>
</g>
<path d="M26.2522 277.406C25.9193 277.39 25.6171 277.289 25.3457 277.102C25.0737 276.929 24.8417 276.618 24.6496 276.168C24.4582 275.705 24.3221 275.065 24.2411 274.246C24.1742 273.416 24.1723 272.341 24.2354 271.022C24.245 270.823 24.2546 270.623 24.2642 270.423C24.2744 270.21 24.2912 269.997 24.3148 269.785C23.9163 270.58 23.4727 271.34 22.9842 272.064C22.5089 272.789 22.0112 273.426 21.491 273.975C20.9841 274.525 20.4763 274.954 19.9676 275.264C19.4722 275.574 19.0047 275.718 18.5652 275.697C17.7794 275.659 17.1545 275.329 16.6905 274.706C16.2397 274.084 16.0472 273.087 16.113 271.715C16.1519 270.903 16.2533 270.04 16.4172 269.127C16.5944 268.214 16.8106 267.324 17.0659 266.455C17.3211 265.586 17.5858 264.798 17.86 264.09C18.1475 263.383 18.4279 262.822 18.7014 262.408C18.9749 261.994 19.2115 261.792 19.4113 261.802C19.7442 261.818 19.9865 261.916 20.138 262.097C20.3035 262.265 20.3798 262.482 20.367 262.748C20.3581 262.935 20.268 263.284 20.0966 263.797C19.9252 264.309 19.7154 264.926 19.4672 265.649C19.2196 266.358 18.9629 267.12 18.6969 267.934C18.4442 268.75 18.2252 269.56 18.0398 270.366C17.855 271.158 17.7466 271.887 17.7147 272.553C17.6822 273.232 17.9389 273.585 18.485 273.611C19.1242 273.641 19.7366 273.397 20.3222 272.878C20.9083 272.345 21.4632 271.631 21.9866 270.735C22.5101 269.839 22.9988 268.834 23.4526 267.721C23.9203 266.596 24.3491 265.448 24.7388 264.279C24.7312 264.158 24.731 264.025 24.738 263.878C24.745 263.732 24.7539 263.545 24.7648 263.319C24.7788 263.026 24.8737 262.717 25.0495 262.391C25.2392 262.053 25.46 261.764 25.7119 261.522C25.9637 261.281 26.2095 261.165 26.4492 261.177C26.9021 261.199 27.1131 261.529 27.0825 262.168C27.0749 262.328 27.0225 262.586 26.9253 262.942C26.8415 263.298 26.73 263.813 26.5909 264.487C26.4652 265.162 26.3358 266.05 26.203 267.152C26.0834 268.254 25.9837 269.638 25.904 271.302C25.8363 272.714 25.862 273.71 25.9811 274.29C26.1141 274.856 26.3338 275.147 26.6401 275.162C27.0396 275.181 27.437 274.966 27.8323 274.518C28.2408 274.07 28.6317 273.435 29.0048 272.612C29.3913 271.789 29.7445 270.825 30.0645 269.719C30.3984 268.601 30.6969 267.387 30.9598 266.078C31.2367 264.756 31.4693 263.386 31.6574 261.966C31.7521 261.384 31.8987 260.97 32.0973 260.726C32.2959 260.482 32.495 260.365 32.6948 260.374C32.8147 260.38 32.9463 260.42 33.0896 260.493C33.2468 260.554 33.3743 260.68 33.4719 260.872C33.5695 261.063 33.6087 261.359 33.5896 261.758C33.4907 263.823 33.2475 265.693 32.8602 267.37C32.4867 269.034 32.0227 270.5 31.468 271.769C30.914 273.024 30.3229 274.077 29.6948 274.928C29.0673 275.765 28.4497 276.396 27.842 276.821C27.2483 277.233 26.7184 277.428 26.2522 277.406ZM44.023 269.025C44.0025 269.451 43.8493 269.864 43.5631 270.264C43.2776 270.651 42.9062 271.021 42.4488 271.372C41.9921 271.711 41.4897 272.027 40.9416 272.322C40.3936 272.616 39.8475 272.87 39.3033 273.084C38.759 273.298 38.2637 273.468 37.8172 273.594C37.6857 274.108 37.6104 274.565 37.5913 274.965C37.5792 275.218 37.6305 275.4 37.7452 275.513C37.86 275.625 38.0439 275.687 38.2969 275.699C38.8563 275.726 39.4537 275.654 40.0893 275.484C40.7248 275.315 41.3765 275.085 42.0444 274.797C42.7123 274.509 43.3545 274.199 43.9711 273.868C44.5876 273.537 45.15 273.223 45.658 272.927C46.1794 272.632 46.6114 272.392 46.9539 272.208C47.2965 272.025 47.521 271.935 47.6275 271.94C47.7874 271.948 47.9047 272.007 47.9795 272.117C48.0682 272.215 48.1094 272.33 48.103 272.464C48.0979 272.57 47.9216 272.769 47.5739 273.059C47.2396 273.35 46.7896 273.689 46.2237 274.076C45.6585 274.449 45.0261 274.833 44.3265 275.226C43.6268 275.62 42.9018 275.986 42.1515 276.324C41.4144 276.662 40.7008 276.929 40.0108 277.123C39.334 277.317 38.7293 277.402 38.1965 277.376C37.504 277.343 36.9771 277.058 36.6157 276.52C36.2544 275.982 36.0999 275.167 36.1522 274.075C36.1873 273.342 36.316 272.608 36.5382 271.871C36.7737 271.135 37.0742 270.435 37.4397 269.771C37.8191 269.095 38.2281 268.501 38.6664 267.988C39.1188 267.462 39.5854 267.057 40.0662 266.773C40.5476 266.476 41.0081 266.338 41.4476 266.359C42.2867 266.399 42.9347 266.664 43.3918 267.153C43.849 267.642 44.0593 268.266 44.023 269.025ZM38.3104 272.076C38.7354 271.842 39.1743 271.596 39.6272 271.338C40.0801 271.079 40.5 270.812 40.887 270.537C41.2739 270.262 41.5883 269.97 41.83 269.661C42.0857 269.339 42.2218 269.006 42.2384 268.659C42.262 268.166 42.0075 267.907 41.4747 267.882C41.1418 267.866 40.7786 268.062 40.3853 268.471C40.0059 268.866 39.6338 269.389 39.269 270.039C38.9041 270.689 38.5846 271.368 38.3104 272.076ZM62.017 278.995C61.7906 278.985 61.6022 278.875 61.452 278.668C61.3018 278.461 61.2359 278.164 61.2544 277.778C61.2761 277.325 61.3736 276.682 61.547 275.849C61.7337 275.017 62.0001 273.915 62.3462 272.544C61.9457 273.379 61.5076 274.166 61.0317 274.904C60.5691 275.642 60.0866 276.24 59.5842 276.697C59.0818 277.153 58.5775 277.369 58.0714 277.345C57.5787 277.322 57.1484 277.107 56.7807 276.703C56.4263 276.299 56.2724 275.611 56.319 274.638C56.3452 274.092 56.4211 273.482 56.5469 272.807C56.6733 272.119 56.826 271.439 57.0051 270.767C57.1841 270.094 57.3597 269.495 57.5317 268.97C57.7044 268.431 57.8567 268.038 57.9887 267.79C58.0921 267.582 58.192 267.446 58.2885 267.384C58.3855 267.309 58.514 267.275 58.6738 267.282C58.8602 267.291 59.0562 267.381 59.2616 267.551C59.467 267.721 59.5608 267.992 59.5429 268.365C59.5385 268.458 59.4813 268.676 59.3715 269.018C59.2757 269.347 59.1493 269.755 58.9925 270.241C58.8497 270.715 58.6983 271.228 58.5383 271.781C58.3783 272.334 58.2383 272.888 58.1183 273.443C58.0116 273.998 57.947 274.509 57.9247 274.975C57.9126 275.228 57.9293 275.436 57.9749 275.598C58.0205 275.761 58.1499 275.847 58.363 275.857C58.5494 275.866 58.7914 275.691 59.089 275.331C59.3999 274.972 59.7365 274.495 60.0988 273.898C60.475 273.289 60.8611 272.613 61.2571 271.871C61.6664 271.13 62.0633 270.368 62.4479 269.585C62.8458 268.803 63.2084 268.06 63.5359 267.355C63.6539 267.12 63.7742 266.979 63.8966 266.931C64.0196 266.87 64.1544 266.844 64.3009 266.851C64.5406 266.862 64.7489 266.972 64.9258 267.181C65.1166 267.377 65.2047 267.628 65.19 267.934C65.1805 268.134 65.1239 268.478 65.0204 268.967C64.9302 269.457 64.8026 270.031 64.6375 270.691C64.4863 271.338 64.3133 272.024 64.1184 272.749C63.9368 273.474 63.7555 274.193 63.5745 274.905C63.3942 275.604 63.2234 276.243 63.0622 276.823C62.9142 277.403 62.7917 277.871 62.6945 278.227C62.612 278.557 62.5086 278.765 62.3842 278.853C62.2726 278.954 62.1502 279.002 62.017 278.995ZM68.8116 278.379C68.4254 278.361 68.0896 278.124 67.8044 277.67C67.5191 277.216 67.3931 276.643 67.4263 275.95C67.4627 275.191 67.6015 274.383 67.8427 273.527C68.0973 272.672 68.3991 271.805 68.7482 270.928C69.0979 270.037 69.4394 269.179 69.7726 268.353C69.8475 268.184 69.9467 268.061 70.0704 267.987C70.2081 267.9 70.4101 267.863 70.6765 267.876C71.1559 267.899 71.3845 268.144 71.3621 268.61C71.357 268.716 71.2923 268.953 71.1679 269.321C71.0434 269.689 70.8816 270.142 70.6823 270.68C70.4963 271.218 70.3014 271.803 70.0977 272.434C69.8945 273.051 69.711 273.677 69.5472 274.31C69.3834 274.942 69.2618 275.531 69.1824 276.074C69.4063 275.858 69.6626 275.523 69.9513 275.07C70.2533 274.617 70.5782 274.105 70.9259 273.534C71.2743 272.95 71.6359 272.367 72.0109 271.784C72.3866 271.188 72.7596 270.645 73.1302 270.156C73.5146 269.654 73.8807 269.257 74.2283 268.967C74.5899 268.664 74.9172 268.519 75.2102 268.533C75.6364 268.554 75.9896 268.704 76.2698 268.984C76.564 269.252 76.7754 269.716 76.9039 270.376C77.0464 271.024 77.0896 271.934 77.0334 273.106C77.0034 273.732 77.0353 274.32 77.129 274.872C77.236 275.425 77.4214 275.874 77.6851 276.22C77.9628 276.554 78.328 276.732 78.7809 276.753C79.4601 276.786 80.0718 276.695 80.616 276.48C81.1609 276.253 81.6337 275.995 82.0346 275.707C82.4495 275.407 82.7959 275.143 83.0737 274.916C83.3522 274.676 83.5647 274.559 83.7112 274.566C84.0175 274.581 84.163 274.748 84.1477 275.067C84.1413 275.201 84.0312 275.409 83.8174 275.692C83.6175 275.963 83.3359 276.27 82.9724 276.613C82.6228 276.943 82.2203 277.265 81.7649 277.577C81.3234 277.876 80.8511 278.12 80.3481 278.31C79.8585 278.5 79.3673 278.583 78.8745 278.56C77.9555 278.516 77.2117 278.3 76.6429 277.912C76.0875 277.525 75.6897 276.912 75.4496 276.073C75.2228 275.235 75.1426 274.123 75.2089 272.738C75.2453 271.979 75.2252 271.424 75.1486 271.073C75.0859 270.71 74.9442 270.463 74.7235 270.332C74.5503 270.604 74.3247 270.994 74.0468 271.501C73.7695 271.995 73.4494 272.547 73.0864 273.157C72.7368 273.768 72.3669 274.384 71.9767 275.006C71.6004 275.616 71.2197 276.178 70.8346 276.694C70.4495 277.209 70.0825 277.626 69.7336 277.943C69.3853 278.246 69.078 278.392 68.8116 278.379ZM86.0088 280.462C84.9833 280.413 84.1935 280.042 83.6394 279.348C83.0993 278.641 82.8582 277.682 82.9163 276.47C82.9521 275.724 83.0937 274.857 83.3414 273.868C83.603 272.866 83.9204 271.813 84.2936 270.709C84.6808 269.593 85.094 268.492 85.5332 267.405C85.9724 266.318 86.3945 265.31 86.7994 264.382C87.2182 263.441 87.5828 262.657 87.8931 262.031C88.0702 261.679 88.3052 261.511 88.5982 261.525C88.9977 261.544 89.1857 261.8 89.1621 262.292C89.1544 262.452 89.0656 262.775 88.8954 263.261C88.7253 263.746 88.5029 264.35 88.228 265.071C87.9538 265.779 87.6558 266.565 87.334 267.431C87.0122 268.297 86.6825 269.188 86.3448 270.107C86.0211 271.012 85.7177 271.912 85.4346 272.806C85.1521 273.687 84.9188 274.517 84.7346 275.296C84.5505 276.075 84.445 276.744 84.4182 277.303C84.401 277.663 84.4805 277.953 84.6567 278.175C84.8469 278.385 85.1085 278.497 85.4414 278.513C86.0541 278.542 86.6724 278.452 87.2966 278.241C87.9346 278.018 88.5486 277.741 89.1386 277.408C89.7291 277.063 90.2661 276.721 90.7494 276.384C91.2467 276.034 91.6676 275.747 92.0121 275.523C92.3571 275.286 92.5963 275.171 92.7295 275.177C93.0225 275.191 93.1613 275.358 93.146 275.678C93.1409 275.784 93.0248 275.979 92.7976 276.262C92.5711 276.531 92.2688 276.851 91.8907 277.22C91.5126 277.589 91.074 277.968 90.5747 278.358C90.0895 278.735 89.5785 279.091 89.0419 279.426C88.5192 279.748 87.993 280.003 87.4634 280.192C86.9465 280.394 86.4616 280.484 86.0088 280.462ZM100.404 271.72C100.383 272.146 100.23 272.559 99.944 272.959C99.6585 273.346 99.2871 273.715 98.8297 274.067C98.373 274.406 97.8706 274.722 97.3226 275.016C96.7745 275.311 96.2284 275.565 95.6842 275.779C95.14 275.993 94.6446 276.163 94.1981 276.289C94.0667 276.803 93.9914 277.26 93.9722 277.659C93.9601 277.913 94.0114 278.095 94.1262 278.207C94.2409 278.32 94.4248 278.382 94.6779 278.394C95.2372 278.421 95.8347 278.349 96.4702 278.179C97.1057 278.009 97.7574 277.78 98.4254 277.492C99.0933 277.203 99.7355 276.894 100.352 276.563C100.969 276.232 101.531 275.918 102.039 275.622C102.56 275.327 102.992 275.087 103.335 274.903C103.677 274.719 103.902 274.63 104.008 274.635C104.168 274.643 104.286 274.702 104.36 274.812C104.449 274.91 104.49 275.025 104.484 275.158C104.479 275.265 104.303 275.464 103.955 275.754C103.621 276.045 103.17 276.384 102.605 276.771C102.039 277.144 101.407 277.528 100.707 277.921C100.008 278.315 99.2828 278.681 98.5324 279.019C97.7953 279.357 97.0818 279.624 96.3917 279.817C95.715 280.012 95.1102 280.097 94.5775 280.071C93.8849 280.038 93.358 279.753 92.9967 279.215C92.6353 278.677 92.4808 277.862 92.5332 276.77C92.5683 276.037 92.6969 275.303 92.9191 274.566C93.1546 273.829 93.4551 273.13 93.8206 272.466C94.2001 271.79 94.609 271.196 95.0474 270.683C95.4997 270.157 95.9663 269.752 96.4471 269.468C96.9286 269.171 97.3891 269.033 97.8286 269.054C98.6676 269.094 99.3157 269.358 99.7728 269.848C100.23 270.337 100.44 270.961 100.404 271.72ZM94.6913 274.771C95.1163 274.537 95.5553 274.291 96.0082 274.033C96.4611 273.774 96.881 273.507 97.2679 273.232C97.6549 272.957 97.9692 272.665 98.2109 272.356C98.4666 272.034 98.6028 271.7 98.6194 271.354C98.643 270.861 98.3884 270.602 97.8557 270.577C97.5227 270.561 97.1596 270.757 96.7663 271.165C96.3869 271.561 96.0148 272.084 95.6499 272.734C95.285 273.384 94.9655 274.063 94.6913 274.771ZM104.111 281.047C103.605 281.023 103.196 280.77 102.886 280.288C102.589 279.793 102.459 279.166 102.495 278.407C102.529 277.701 102.736 277.01 103.115 276.334C103.508 275.659 104.013 275.016 104.629 274.405C105.246 273.793 105.913 273.238 106.631 272.738C107.35 272.225 108.065 271.786 108.777 271.419C109.502 271.053 110.163 270.771 110.76 270.573C111.357 270.374 111.828 270.284 112.174 270.3C112.361 270.309 112.512 270.356 112.628 270.442C112.745 270.514 112.799 270.644 112.79 270.83C112.784 270.95 112.732 271.061 112.634 271.163C112.647 271.164 112.66 271.164 112.674 271.165C112.967 271.179 113.105 271.359 113.088 271.705C113.082 271.825 113.024 272.069 112.913 272.438C112.802 272.793 112.674 273.241 112.528 273.781C112.382 274.321 112.247 274.922 112.121 275.584C111.997 276.232 111.918 276.895 111.886 277.575C111.858 278.147 112.064 278.444 112.504 278.465C112.997 278.489 113.502 278.399 114.019 278.197C114.535 277.995 115.041 277.745 115.536 277.449C116.031 277.139 116.487 276.833 116.901 276.533C117.317 276.219 117.67 275.956 117.961 275.743C118.251 275.53 118.456 275.426 118.576 275.432C118.683 275.437 118.774 275.474 118.851 275.545C118.928 275.615 118.963 275.724 118.956 275.87C118.949 276.003 118.805 276.237 118.522 276.57C118.239 276.904 117.867 277.28 117.406 277.698C116.946 278.117 116.433 278.519 115.867 278.906C115.301 279.293 114.725 279.606 114.14 279.845C113.554 280.084 113.002 280.191 112.483 280.166C112.083 280.147 111.722 280.01 111.401 279.754C111.094 279.486 110.854 279.047 110.683 278.438C110.525 277.83 110.472 277 110.522 275.948L110.546 275.448C109.842 276.496 109.109 277.449 108.347 278.307C107.598 279.165 106.858 279.844 106.127 280.343C105.409 280.842 104.737 281.077 104.111 281.047ZM111.726 271.72C111.658 271.744 111.563 271.779 111.44 271.827C110.814 272.077 110.159 272.393 109.473 272.774C108.801 273.156 108.139 273.585 107.489 274.061C106.852 274.538 106.274 275.037 105.755 275.56C105.236 276.082 104.817 276.616 104.497 277.161C104.177 277.707 104.005 278.246 103.979 278.779C103.971 278.952 103.998 279.086 104.06 279.183C104.135 279.28 104.266 279.333 104.453 279.342C104.719 279.355 105.073 279.205 105.516 278.892C105.958 278.566 106.446 278.136 106.979 277.6C107.525 277.066 108.074 276.471 108.626 275.817C109.178 275.163 109.704 274.5 110.203 273.83C110.716 273.16 111.159 272.541 111.534 271.971C111.591 271.881 111.655 271.797 111.726 271.72ZM120.079 281.731C119.786 281.717 119.564 281.619 119.413 281.438C119.274 281.272 119.209 281.082 119.22 280.869C119.229 280.682 119.317 280.513 119.484 280.361C119.666 280.196 119.906 280.054 120.205 279.935C120.752 279.68 121.264 279.425 121.744 279.167C122.237 278.91 122.637 278.629 122.946 278.324C123.254 278.018 123.417 277.685 123.434 277.326C123.449 277.019 123.36 276.782 123.168 276.612C122.976 276.43 122.708 276.33 122.361 276.313C122.161 276.304 121.88 276.33 121.516 276.393C121.154 276.442 120.757 276.504 120.326 276.576C119.91 276.637 119.5 276.697 119.096 276.758C118.693 276.805 118.352 276.823 118.073 276.809C117.566 276.785 117.193 276.647 116.951 276.395C116.71 276.13 116.6 275.784 116.62 275.358C116.631 275.145 116.772 274.831 117.046 274.417C117.319 274.003 117.675 273.546 118.113 273.047C118.564 272.534 119.056 272.024 119.588 271.515C120.119 271.007 120.656 270.539 121.197 270.111C121.751 269.683 122.262 269.341 122.728 269.083C123.207 268.825 123.6 268.704 123.907 268.718C124.213 268.733 124.441 268.844 124.591 269.052C124.742 269.259 124.809 269.516 124.795 269.822C124.783 270.062 124.733 270.266 124.645 270.436C124.558 270.592 124.385 270.71 124.128 270.791C123.883 270.873 123.508 270.909 123.001 270.898C122.462 271.286 121.887 271.732 121.275 272.237C120.678 272.729 120.126 273.243 119.619 273.78C119.127 274.303 118.762 274.813 118.525 275.309C118.971 275.184 119.51 275.082 120.141 275.006C120.786 274.917 121.435 274.887 122.088 274.919C123.113 274.968 123.861 275.237 124.332 275.727C124.816 276.204 125.04 276.815 125.005 277.561C124.982 278.04 124.804 278.533 124.473 279.037C124.156 279.529 123.747 279.984 123.247 280.4C122.746 280.817 122.216 281.145 121.658 281.386C121.098 281.639 120.572 281.754 120.079 281.731ZM127.814 282.561C127.521 282.547 127.299 282.449 127.148 282.269C126.995 282.101 126.935 281.691 126.966 281.039C126.995 280.439 127.139 279.665 127.398 278.717C127.658 277.755 127.996 276.689 128.412 275.521C128.828 274.353 129.293 273.147 129.807 271.904C130.321 270.647 130.854 269.418 131.405 268.216C131.971 267.002 132.511 265.893 133.026 264.889C133.217 264.525 133.409 264.274 133.603 264.136C133.796 263.999 134.02 263.936 134.273 263.948C134.446 263.956 134.59 264.016 134.705 264.129C134.833 264.228 134.892 264.391 134.881 264.618C134.877 264.698 134.778 264.953 134.584 265.384C134.403 265.816 134.149 266.385 133.822 267.09C133.508 267.796 133.156 268.587 132.767 269.462C132.378 270.338 131.98 271.26 131.573 272.228C131.166 273.197 130.779 274.173 130.412 275.156C130.045 276.127 129.727 277.059 129.457 277.954C129.187 278.849 128.995 279.654 128.881 280.369C129.219 279.998 129.609 279.523 130.05 278.943C130.492 278.364 130.962 277.739 131.461 277.069C131.961 276.398 132.466 275.735 132.978 275.079C133.49 274.423 133.993 273.826 134.486 273.289C134.979 272.752 135.433 272.326 135.848 272.012C136.278 271.686 136.646 271.53 136.952 271.545C137.458 271.569 137.857 271.748 138.148 272.082C138.453 272.404 138.588 272.918 138.554 273.623C138.535 274.023 138.432 274.499 138.246 275.05C138.073 275.603 137.871 276.18 137.642 276.783C137.413 277.387 137.205 277.964 137.019 278.516C136.845 279.068 136.749 279.544 136.73 279.943C136.704 280.49 136.897 280.772 137.31 280.792C137.949 280.823 138.595 280.713 139.248 280.464C139.914 280.216 140.55 279.899 141.155 279.514C141.762 279.116 142.322 278.716 142.835 278.313C143.349 277.897 143.786 277.544 144.147 277.255C144.536 276.939 144.857 276.788 145.11 276.8C145.43 276.815 145.581 276.989 145.565 277.322C145.561 277.416 145.536 277.521 145.49 277.639C145.445 277.757 145.331 277.905 145.149 278.083C144.924 278.313 144.603 278.611 144.185 278.978C143.78 279.346 143.307 279.737 142.767 280.152C142.24 280.567 141.667 280.954 141.049 281.311C140.445 281.669 139.824 281.96 139.185 282.183C138.561 282.394 137.956 282.485 137.37 282.457C136.571 282.419 135.963 282.163 135.545 281.689C135.141 281.202 134.959 280.553 134.998 279.741C135.022 279.234 135.131 278.626 135.325 277.914C135.52 277.203 135.756 276.453 136.034 275.665C136.326 274.865 136.617 274.085 136.907 273.324C136.467 273.597 135.979 274.014 135.445 274.576C134.925 275.125 134.374 275.753 133.793 276.459C133.213 277.152 132.632 277.859 132.05 278.578C131.481 279.299 130.929 279.967 130.392 280.582C129.869 281.184 129.386 281.668 128.941 282.034C128.496 282.4 128.121 282.575 127.814 282.561ZM155.664 288.137C154.999 288.105 154.388 288.029 153.833 287.909C153.291 287.803 152.758 287.644 152.234 287.432C151.71 287.234 151.141 286.98 150.529 286.67C150.347 286.568 150.186 286.447 150.046 286.306C149.905 286.18 149.838 286.036 149.846 285.876C149.856 285.677 149.992 285.47 150.256 285.255C150.506 285.054 150.738 284.958 150.951 284.968C151.177 284.979 151.453 285.072 151.778 285.248C152.117 285.424 152.507 285.63 152.95 285.865C153.392 286.113 153.882 286.33 154.421 286.516C154.972 286.702 155.568 286.811 156.207 286.841C156.9 286.874 157.566 286.619 158.206 286.076C158.846 285.532 159.385 284.731 159.823 283.67C160.26 282.623 160.515 281.347 160.587 279.842C160.609 279.39 160.619 278.89 160.619 278.342C160.632 277.782 160.634 277.195 160.623 276.58C160.27 277.258 159.878 277.926 159.446 278.586C159.027 279.247 158.592 279.84 158.139 280.366C157.7 280.892 157.246 281.311 156.777 281.623C156.323 281.921 155.869 282.06 155.416 282.038C154.843 282.011 154.438 281.844 154.199 281.539C153.96 281.234 153.855 280.775 153.884 280.163C153.915 279.523 153.994 278.833 154.123 278.092C154.252 277.35 154.408 276.604 154.591 275.852C154.788 275.087 155.01 274.363 155.256 273.681C155.502 272.998 155.757 272.41 156.021 271.915C156.167 271.655 156.373 271.532 156.64 271.544C156.826 271.553 157.001 271.662 157.165 271.87C157.342 272.065 157.424 272.316 157.409 272.622C157.398 272.862 157.328 273.199 157.2 273.634C157.073 274.068 156.916 274.561 156.729 275.113C156.542 275.665 156.354 276.243 156.165 276.848C155.977 277.44 155.815 278.026 155.681 278.607C155.547 279.174 155.468 279.698 155.445 280.177C155.436 280.377 155.564 280.483 155.83 280.496C155.977 280.503 156.19 280.38 156.469 280.126C156.762 279.86 157.085 279.515 157.439 279.091C157.807 278.655 158.177 278.179 158.549 277.663C158.935 277.134 159.307 276.611 159.665 276.094C160.025 275.564 160.335 275.078 160.596 274.637C160.588 274.53 160.586 274.43 160.591 274.336C160.595 274.243 160.599 274.156 160.603 274.077C160.634 273.424 160.72 273.021 160.861 272.868C161.016 272.701 161.207 272.624 161.433 272.635C161.819 272.653 162.088 272.753 162.24 272.933C162.391 273.114 162.457 273.418 162.436 273.844C162.429 274.004 162.4 274.176 162.351 274.36C162.303 274.532 162.225 274.781 162.115 275.11C162.171 276.167 162.213 277.117 162.239 277.959C162.279 278.802 162.278 279.65 162.237 280.502C162.16 282.113 161.833 283.499 161.257 284.66C160.694 285.821 159.931 286.706 158.968 287.314C158.017 287.922 156.916 288.197 155.664 288.137ZM168.164 283.789C167.378 283.751 166.773 283.422 166.349 282.801C165.925 282.18 165.736 281.39 165.782 280.431C165.798 280.085 165.862 279.721 165.974 279.339C166.1 278.945 166.25 278.591 166.425 278.279C166.337 278.182 166.269 278.052 166.224 277.889C166.179 277.714 166.162 277.499 166.174 277.246C166.212 276.46 166.38 275.748 166.677 275.108C166.975 274.468 167.355 273.919 167.818 273.46C168.281 272.989 168.785 272.632 169.33 272.391C169.889 272.151 170.448 272.044 171.008 272.071C171.927 272.115 172.657 272.484 173.197 273.177C173.739 273.857 173.977 274.869 173.913 276.214C173.879 276.92 173.738 277.634 173.49 278.357C173.255 279.08 172.941 279.772 172.549 280.434C172.17 281.097 171.735 281.683 171.243 282.194C170.765 282.705 170.259 283.108 169.724 283.403C169.203 283.685 168.683 283.813 168.164 283.789ZM167.776 277.663C167.851 277.774 167.884 277.915 167.876 278.088C167.867 278.288 167.817 278.486 167.728 278.682C167.651 278.879 167.565 279.148 167.469 279.491C167.372 279.833 167.308 280.324 167.278 280.963C167.247 281.602 167.485 281.934 167.991 281.958C168.55 281.985 169.08 281.79 169.581 281.374C170.082 280.944 170.536 280.385 170.943 279.697C171.349 279.009 171.672 278.27 171.91 277.48C172.162 276.678 172.305 275.917 172.34 275.198C172.362 274.732 172.291 274.402 172.127 274.207C171.963 273.999 171.655 273.884 171.202 273.862C170.736 273.84 170.242 273.977 169.721 274.272C169.213 274.555 168.78 274.955 168.422 275.471C168.063 275.988 167.868 276.58 167.836 277.246C167.829 277.392 167.809 277.531 167.776 277.663ZM182.075 284.734C181.849 284.723 181.66 284.614 181.51 284.407C181.36 284.199 181.294 283.902 181.313 283.516C181.334 283.063 181.432 282.421 181.605 281.588C181.792 280.756 182.058 279.654 182.404 278.282C182.004 279.117 181.566 279.904 181.09 280.642C180.627 281.381 180.145 281.979 179.642 282.435C179.14 282.892 178.636 283.108 178.13 283.084C177.637 283.06 177.207 282.846 176.839 282.441C176.485 282.037 176.331 281.349 176.377 280.377C176.403 279.831 176.479 279.22 176.605 278.546C176.732 277.858 176.884 277.177 177.063 276.505C177.242 275.833 177.418 275.234 177.59 274.708C177.763 274.169 177.915 273.776 178.047 273.529C178.15 273.32 178.25 273.185 178.347 273.123C178.444 273.047 178.572 273.013 178.732 273.021C178.918 273.03 179.114 273.119 179.32 273.289C179.525 273.459 179.619 273.731 179.601 274.104C179.597 274.197 179.54 274.414 179.43 274.756C179.334 275.085 179.208 275.493 179.051 275.98C178.908 276.453 178.757 276.967 178.597 277.52C178.437 278.073 178.297 278.627 178.177 279.181C178.07 279.737 178.005 280.248 177.983 280.714C177.971 280.967 177.988 281.175 178.033 281.337C178.079 281.499 178.208 281.586 178.421 281.596C178.608 281.605 178.85 281.429 179.147 281.07C179.458 280.711 179.795 280.233 180.157 279.637C180.533 279.027 180.919 278.351 181.315 277.609C181.725 276.868 182.122 276.106 182.506 275.324C182.904 274.542 183.267 273.798 183.594 273.093C183.712 272.859 183.832 272.717 183.955 272.67C184.078 272.609 184.213 272.582 184.359 272.589C184.599 272.601 184.807 272.711 184.984 272.919C185.175 273.115 185.263 273.366 185.248 273.673C185.239 273.873 185.182 274.217 185.079 274.706C184.988 275.195 184.861 275.77 184.696 276.43C184.545 277.076 184.372 277.762 184.177 278.487C183.995 279.213 183.814 279.931 183.633 280.644C183.452 281.342 183.282 281.982 183.12 282.561C182.972 283.142 182.85 283.61 182.753 283.965C182.67 284.295 182.567 284.504 182.442 284.591C182.331 284.693 182.208 284.74 182.075 284.734ZM188.053 284.92C187.84 284.909 187.665 284.814 187.526 284.634C187.388 284.454 187.326 284.211 187.341 283.904C187.352 283.678 187.416 283.307 187.535 282.792C187.667 282.265 187.81 281.651 187.963 280.951C188.13 280.251 188.279 279.524 188.408 278.769C188.538 278.001 188.62 277.265 188.654 276.559C188.671 276.212 188.769 275.964 188.95 275.812C189.145 275.648 189.356 275.571 189.582 275.582C189.795 275.592 189.949 275.733 190.042 276.004C190.136 276.276 190.131 276.809 190.026 277.605C190.703 276.276 191.428 275.216 192.2 274.426C192.986 273.622 193.754 273.058 194.504 272.734C195.254 272.396 195.923 272.241 196.509 272.269C196.895 272.287 197.171 272.381 197.336 272.549C197.516 272.704 197.601 272.875 197.592 273.061C197.58 273.314 197.464 273.509 197.243 273.645C197.037 273.769 196.677 273.912 196.162 274.074C195.565 274.273 195.013 274.513 194.505 274.796C194.012 275.066 193.534 275.43 193.071 275.889C192.622 276.348 192.173 276.94 191.725 277.667C191.277 278.379 190.82 279.265 190.356 280.324C189.891 281.383 189.39 282.661 188.851 284.157C188.757 284.446 188.64 284.647 188.501 284.761C188.376 284.875 188.226 284.928 188.053 284.92ZM210.115 285.874C209.462 285.843 208.903 285.669 208.438 285.353C207.987 285.025 207.646 284.615 207.416 284.123C207.186 283.632 207.083 283.133 207.107 282.627C207.158 281.561 207.391 280.598 207.806 279.737C208.222 278.862 208.726 278.099 209.317 277.446C209.923 276.781 210.537 276.223 211.16 275.772C211.795 275.322 212.365 274.989 212.869 274.773C213.388 274.544 213.753 274.435 213.966 274.445C214.393 274.465 214.595 274.688 214.575 275.115C214.566 275.314 214.421 275.541 214.142 275.795C213.864 276.035 213.51 276.318 213.08 276.645C212.651 276.971 212.192 277.343 211.705 277.761C211.219 278.164 210.756 278.63 210.317 279.156C209.878 279.669 209.51 280.252 209.212 280.905C208.914 281.545 208.746 282.258 208.709 283.044C208.671 283.843 208.978 284.258 209.63 284.289C210.23 284.318 210.848 284.234 211.484 284.037C212.135 283.841 212.775 283.578 213.404 283.248C214.048 282.905 214.666 282.547 215.258 282.175C215.85 281.803 216.387 281.448 216.871 281.111C217.355 280.76 217.762 280.48 218.092 280.268C218.423 280.057 218.655 279.955 218.788 279.961C219.054 279.974 219.18 280.127 219.166 280.42C219.156 280.646 218.988 280.939 218.664 281.297C218.34 281.655 217.907 282.042 217.367 282.456C216.826 282.871 216.226 283.289 215.565 283.712C214.904 284.121 214.239 284.496 213.569 284.838C212.899 285.166 212.259 285.429 211.649 285.627C211.052 285.812 210.541 285.894 210.115 285.874ZM218.487 286.374C218.274 286.364 218.099 286.269 217.96 286.089C217.822 285.909 217.76 285.665 217.775 285.359C217.786 285.133 217.85 284.762 217.969 284.247C218.101 283.719 218.244 283.106 218.397 282.405C218.564 281.706 218.713 280.979 218.842 280.224C218.972 279.456 219.054 278.719 219.088 278.013C219.105 277.667 219.204 277.418 219.384 277.267C219.579 277.102 219.79 277.026 220.016 277.037C220.229 277.047 220.383 277.188 220.476 277.459C220.57 277.73 220.565 278.264 220.46 279.06C221.137 277.731 221.862 276.671 222.634 275.88C223.42 275.077 224.188 274.513 224.938 274.188C225.688 273.85 226.357 273.695 226.943 273.723C227.329 273.742 227.605 273.835 227.77 274.003C227.95 274.159 228.035 274.33 228.026 274.516C228.014 274.769 227.898 274.964 227.678 275.1C227.471 275.224 227.111 275.367 226.596 275.529C225.999 275.727 225.447 275.968 224.939 276.251C224.446 276.521 223.968 276.885 223.505 277.343C223.056 277.803 222.607 278.395 222.159 279.121C221.711 279.834 221.254 280.72 220.79 281.779C220.325 282.838 219.824 284.115 219.285 285.611C219.191 285.901 219.074 286.102 218.935 286.215C218.81 286.33 218.66 286.382 218.487 286.374ZM234.899 278.148C234.878 278.575 234.725 278.988 234.439 279.388C234.153 279.775 233.782 280.144 233.325 280.496C232.868 280.834 232.366 281.151 231.817 281.445C231.269 281.739 230.723 281.993 230.179 282.208C229.635 282.422 229.139 282.592 228.693 282.717C228.562 283.232 228.486 283.689 228.467 284.088C228.455 284.341 228.506 284.524 228.621 284.636C228.736 284.748 228.92 284.811 229.173 284.823C229.732 284.849 230.33 284.778 230.965 284.608C231.601 284.438 232.252 284.209 232.92 283.92C233.588 283.632 234.23 283.322 234.847 282.991C235.463 282.66 236.026 282.347 236.534 282.051C237.055 281.755 237.487 281.516 237.83 281.332C238.172 281.148 238.397 281.059 238.503 281.064C238.663 281.071 238.78 281.13 238.855 281.241C238.944 281.338 238.985 281.454 238.979 281.587C238.974 281.694 238.797 281.892 238.45 282.183C238.115 282.474 237.665 282.812 237.1 283.199C236.534 283.573 235.902 283.956 235.202 284.35C234.503 284.744 233.778 285.109 233.027 285.447C232.29 285.786 231.577 286.052 230.887 286.246C230.21 286.441 229.605 286.525 229.072 286.5C228.38 286.467 227.853 286.181 227.492 285.643C227.13 285.105 226.976 284.29 227.028 283.198C227.063 282.466 227.192 281.731 227.414 280.994C227.649 280.258 227.95 279.558 228.316 278.895C228.695 278.219 229.104 277.624 229.542 277.111C229.995 276.586 230.461 276.181 230.942 275.897C231.423 275.6 231.884 275.461 232.323 275.482C233.162 275.522 233.811 275.787 234.268 276.276C234.725 276.765 234.935 277.389 234.899 278.148ZM229.186 281.199C229.611 280.966 230.05 280.72 230.503 280.461C230.956 280.202 231.376 279.936 231.763 279.66C232.15 279.385 232.464 279.093 232.706 278.784C232.962 278.463 233.098 278.129 233.114 277.783C233.138 277.29 232.883 277.031 232.351 277.005C232.018 276.989 231.654 277.186 231.261 277.594C230.882 277.99 230.51 278.513 230.145 279.163C229.78 279.813 229.46 280.491 229.186 281.199ZM238.606 287.476C238.1 287.452 237.691 287.199 237.381 286.717C237.084 286.222 236.954 285.595 236.99 284.836C237.024 284.13 237.231 283.439 237.61 282.763C238.003 282.088 238.508 281.444 239.124 280.833C239.741 280.222 240.408 279.666 241.126 279.167C241.845 278.654 242.56 278.214 243.272 277.848C243.997 277.482 244.658 277.2 245.255 277.001C245.851 276.803 246.323 276.712 246.669 276.729C246.856 276.738 247.007 276.785 247.123 276.871C247.24 276.943 247.294 277.072 247.285 277.259C247.279 277.379 247.227 277.49 247.129 277.592C247.142 277.592 247.155 277.593 247.168 277.594C247.461 277.608 247.6 277.788 247.583 278.134C247.577 278.254 247.519 278.498 247.408 278.866C247.297 279.222 247.169 279.669 247.023 280.21C246.877 280.75 246.741 281.351 246.616 282.012C246.492 282.66 246.413 283.324 246.381 284.003C246.353 284.576 246.559 284.873 246.999 284.894C247.492 284.917 247.996 284.828 248.513 284.626C249.03 284.424 249.536 284.174 250.031 283.877C250.526 283.567 250.982 283.262 251.396 282.962C251.812 282.648 252.165 282.384 252.455 282.171C252.746 281.958 252.951 281.854 253.071 281.86C253.178 281.865 253.269 281.903 253.346 281.973C253.423 282.044 253.457 282.152 253.45 282.299C253.444 282.432 253.299 282.665 253.016 282.999C252.733 283.332 252.362 283.708 251.901 284.127C251.441 284.545 250.927 284.948 250.362 285.335C249.796 285.722 249.22 286.034 248.635 286.273C248.049 286.512 247.497 286.62 246.977 286.595C246.578 286.576 246.217 286.438 245.896 286.183C245.588 285.914 245.349 285.476 245.178 284.867C245.02 284.259 244.967 283.428 245.017 282.376L245.041 281.877C244.337 282.924 243.604 283.877 242.842 284.735C242.093 285.594 241.353 286.272 240.622 286.771C239.904 287.271 239.232 287.506 238.606 287.476ZM246.221 278.149C246.153 278.172 246.058 278.208 245.935 278.255C245.309 278.506 244.653 278.822 243.968 279.203C243.295 279.584 242.634 280.013 241.984 280.489C241.347 280.966 240.769 281.466 240.25 281.988C239.731 282.511 239.312 283.045 238.992 283.59C238.672 284.135 238.5 284.674 238.474 285.207C238.466 285.38 238.493 285.515 238.555 285.611C238.63 285.708 238.761 285.761 238.948 285.77C239.214 285.783 239.568 285.633 240.01 285.321C240.453 284.995 240.941 284.564 241.474 284.029C242.02 283.494 242.569 282.9 243.121 282.246C243.673 281.591 244.199 280.929 244.698 280.259C245.211 279.589 245.654 278.969 246.029 278.4C246.086 278.309 246.15 278.226 246.221 278.149ZM250.725 281.127C250.366 281.084 250.211 280.843 250.259 280.404C250.277 280.298 250.357 280.175 250.497 280.035C250.638 279.882 250.795 279.803 250.969 279.797C251.384 279.777 251.892 279.742 252.496 279.69C253.113 279.626 253.79 279.552 254.529 279.467C254.693 278.821 254.886 278.143 255.107 277.432C255.328 276.722 255.568 276.033 255.826 275.364C256.086 274.683 256.356 274.068 256.636 273.521C256.916 272.974 257.203 272.547 257.498 272.241C257.651 272.101 257.789 272.008 257.912 271.96C258.035 271.899 258.143 271.871 258.236 271.875C258.423 271.884 258.565 271.971 258.664 272.136C258.776 272.302 258.828 272.484 258.818 272.684C258.813 272.791 258.788 272.896 258.743 273.001C258.441 273.734 258.11 274.639 257.752 275.717C257.393 276.794 257.01 277.97 256.602 279.246C257.836 279.105 259.072 278.95 260.308 278.782C261.544 278.614 262.606 278.458 263.494 278.314C263.752 278.219 263.944 278.249 264.071 278.401C264.21 278.555 264.276 278.705 264.269 278.851C264.26 279.038 264.2 279.175 264.089 279.263C263.992 279.352 263.888 279.427 263.778 279.489L263.757 279.508C263.486 279.602 263.08 279.709 262.54 279.83C262.001 279.938 261.382 280.055 260.681 280.182C259.982 280.295 259.236 280.406 258.443 280.515C257.663 280.625 256.891 280.721 256.126 280.805C255.764 281.962 255.393 283.153 255.014 284.376C254.649 285.586 254.285 286.777 253.922 287.948C253.766 288.421 253.598 288.713 253.419 288.825C253.253 288.95 253.077 289.009 252.89 289C252.677 288.99 252.495 288.901 252.343 288.733C252.204 288.566 252.199 288.239 252.33 287.752L254.114 281.009C253.31 281.091 252.6 281.144 251.984 281.168C251.382 281.192 250.963 281.179 250.725 281.127ZM261.948 287.17C261.695 287.158 261.473 287.054 261.282 286.858C261.092 286.649 261.007 286.338 261.027 285.925C261.041 285.632 261.1 285.227 261.205 284.712C261.31 284.183 261.445 283.609 261.608 282.989C261.771 282.369 261.941 281.757 262.116 281.151C262.306 280.533 262.493 279.981 262.676 279.496C262.86 279.011 263.017 278.651 263.148 278.417C263.264 278.236 263.37 278.121 263.465 278.072C263.574 278.024 263.676 278.002 263.769 278.007C263.955 278.015 264.112 278.083 264.24 278.209C264.38 278.336 264.442 278.573 264.426 278.919C264.416 279.119 264.36 279.45 264.258 279.912C264.17 280.362 264.051 280.89 263.902 281.497C263.767 282.091 263.617 282.705 263.453 283.338C263.303 283.958 263.155 284.551 263.008 285.118C262.86 285.685 262.744 286.16 262.659 286.543C262.595 286.754 262.494 286.916 262.355 287.029C262.23 287.13 262.095 287.177 261.948 287.17ZM264.435 276.216C264.129 276.202 263.84 276.094 263.57 275.895C263.312 275.695 263.193 275.389 263.213 274.977C263.23 274.63 263.323 274.354 263.493 274.149C263.676 273.944 263.884 273.801 264.114 273.718C264.359 273.623 264.568 273.58 264.741 273.588C264.915 273.596 265.106 273.645 265.315 273.736C265.538 273.813 265.725 273.955 265.875 274.163C266.026 274.357 266.093 274.64 266.075 275.013C266.063 275.266 265.965 275.489 265.782 275.68C265.6 275.858 265.38 275.995 265.122 276.089C264.877 276.184 264.648 276.227 264.435 276.216ZM269.292 287.922C269.092 287.912 268.899 287.756 268.713 287.453C268.541 287.152 268.421 286.732 268.353 286.195C268.287 285.631 268.231 284.988 268.185 284.265C268.14 283.542 268.107 282.833 268.087 282.137C268.067 281.442 268.056 280.828 268.055 280.294C268.054 279.76 268.058 279.4 268.067 279.213C268.1 278.521 268.231 278.013 268.46 277.69C268.703 277.355 268.998 277.195 269.344 277.212C269.584 277.223 269.754 277.298 269.854 277.436C269.955 277.561 269.995 277.844 269.974 278.283C269.96 278.576 269.948 278.956 269.939 279.423C269.93 279.89 269.926 280.397 269.926 280.944C269.922 281.598 269.915 282.292 269.907 283.025C269.899 283.746 269.885 284.459 269.864 285.166C270.209 284.648 270.604 284.073 271.048 283.44C271.506 282.808 271.97 282.163 272.442 281.505C272.915 280.833 273.373 280.194 273.816 279.588C274.259 278.982 274.651 278.453 274.993 278.002C275.335 277.552 275.598 277.224 275.781 277.019C276.02 276.763 276.235 276.587 276.427 276.489C276.632 276.392 276.808 276.347 276.954 276.354C277.154 276.364 277.31 276.445 277.423 276.597C277.549 276.75 277.606 276.959 277.593 277.226C277.585 277.386 277.544 277.564 277.467 277.76C277.405 277.944 277.296 278.133 277.14 278.325C276.754 278.854 276.291 279.473 275.75 280.181C275.208 280.889 274.646 281.623 274.062 282.383C273.479 283.143 272.909 283.883 272.354 284.604C271.799 285.312 271.316 285.936 270.903 286.477C270.175 287.457 269.638 287.938 269.292 287.922ZM281.686 289.515C281.087 289.487 280.563 289.281 280.114 288.899C279.679 288.505 279.351 287.982 279.128 287.331C278.906 286.679 278.815 285.934 278.855 285.095C278.897 284.216 279.039 283.335 279.282 282.452C279.524 281.57 279.817 280.763 280.159 280.031C280.501 279.3 280.842 278.723 281.183 278.298C281.524 277.861 281.821 277.648 282.074 277.66C282.261 277.669 282.411 277.736 282.525 277.862C282.639 277.987 282.691 278.163 282.68 278.39C282.678 278.443 282.615 278.627 282.493 278.942C282.372 279.243 282.22 279.636 282.037 280.121C281.854 280.593 281.668 281.118 281.48 281.696C281.293 282.275 281.131 282.868 280.995 283.475C280.859 284.083 280.778 284.66 280.752 285.206C280.707 286.138 280.762 286.801 280.917 287.196C281.085 287.578 281.369 287.778 281.769 287.797C282.741 287.844 283.659 287.634 284.522 287.168C285.399 286.689 286.218 286.048 286.977 285.243C287.75 284.426 288.468 283.519 289.13 282.523C288.66 282.567 288.205 282.598 287.764 282.617C287.323 282.623 286.902 282.623 286.502 282.617C286.115 282.612 285.864 282.553 285.75 282.441C285.635 282.329 285.583 282.159 285.594 281.933C285.59 281.733 285.679 281.557 285.859 281.405C286.054 281.254 286.251 281.177 286.451 281.173C287.053 281.148 287.669 281.111 288.299 281.061C288.928 281.011 289.552 280.948 290.17 280.87C290.519 280.273 290.855 279.668 291.178 279.056C291.501 278.444 291.796 277.858 292.063 277.297C292.384 276.444 292.716 275.653 293.058 274.921C293.401 274.177 293.736 273.579 294.065 273.127C294.394 272.663 294.692 272.437 294.959 272.449C295.411 272.471 295.627 272.708 295.605 273.161C295.601 273.254 295.528 273.511 295.388 273.932C295.248 274.352 295.055 274.897 294.809 275.566C294.577 276.235 294.307 276.997 293.999 277.85C293.692 278.689 293.376 279.575 293.051 280.507C294.261 280.325 295.364 280.144 296.36 279.965C297.371 279.773 298.199 279.619 298.845 279.503C299.492 279.374 299.876 279.312 299.996 279.318C300.169 279.326 300.304 279.419 300.403 279.597C300.502 279.762 300.547 279.918 300.54 280.065C300.535 280.184 300.307 280.334 299.858 280.512C299.422 280.692 298.819 280.883 298.049 281.087C297.292 281.277 296.428 281.47 295.458 281.664C294.502 281.845 293.506 282.011 292.471 282.162C292.084 283.278 291.71 284.381 291.351 285.472C290.992 286.563 290.684 287.562 290.426 288.471C290.279 289.051 289.971 289.33 289.505 289.308C289.266 289.297 289.089 289.228 288.975 289.103C288.874 288.978 288.83 288.769 288.844 288.476C288.846 288.436 288.889 288.238 288.973 287.881C289.071 287.512 289.193 287.057 289.339 286.517C289.485 285.963 289.64 285.39 289.802 284.797C289.964 284.191 290.118 283.631 290.263 283.117C289.497 284.335 288.663 285.437 287.761 286.422C286.86 287.406 285.895 288.181 284.867 288.746C283.852 289.312 282.792 289.568 281.686 289.515ZM282.588 275.722C282.268 275.707 282.006 275.595 281.803 275.385C281.613 275.175 281.525 274.924 281.539 274.631C281.556 274.272 281.697 273.978 281.961 273.75C282.24 273.51 282.552 273.398 282.898 273.415C283.285 273.433 283.572 273.56 283.761 273.796C283.951 274.019 284.037 274.303 284.021 274.65C284.007 274.929 283.862 275.183 283.584 275.41C283.306 275.637 282.974 275.741 282.588 275.722ZM299.066 295.992C298.4 295.96 297.79 295.885 297.235 295.765C296.693 295.659 296.16 295.5 295.636 295.288C295.111 295.089 294.543 294.835 293.93 294.525C293.748 294.423 293.587 294.302 293.447 294.162C293.306 294.035 293.24 293.892 293.248 293.732C293.257 293.532 293.394 293.325 293.658 293.111C293.908 292.909 294.139 292.813 294.352 292.824C294.579 292.834 294.855 292.928 295.18 293.103C295.518 293.28 295.909 293.485 296.352 293.72C296.794 293.968 297.284 294.185 297.822 294.371C298.374 294.558 298.969 294.666 299.609 294.697C300.301 294.73 300.968 294.475 301.608 293.931C302.248 293.388 302.787 292.586 303.225 291.526C303.662 290.479 303.917 289.203 303.989 287.698C304.01 287.245 304.021 286.745 304.021 286.198C304.034 285.638 304.035 285.05 304.025 284.436C303.672 285.113 303.28 285.782 302.848 286.442C302.429 287.103 301.993 287.696 301.541 288.222C301.102 288.748 300.648 289.167 300.179 289.478C299.724 289.777 299.27 289.915 298.818 289.893C298.245 289.866 297.839 289.7 297.6 289.395C297.361 289.09 297.256 288.631 297.286 288.018C297.316 287.379 297.396 286.689 297.525 285.947C297.654 285.206 297.81 284.459 297.993 283.707C298.19 282.942 298.411 282.219 298.658 281.536C298.904 280.854 299.159 280.265 299.423 279.771C299.569 279.511 299.775 279.387 300.041 279.4C300.228 279.409 300.403 279.517 300.566 279.725C300.744 279.921 300.825 280.172 300.811 280.478C300.799 280.718 300.73 281.055 300.602 281.489C300.474 281.923 300.317 282.417 300.131 282.968C299.944 283.52 299.756 284.098 299.567 284.703C299.378 285.295 299.217 285.881 299.082 286.462C298.948 287.03 298.87 287.553 298.847 288.033C298.837 288.233 298.966 288.339 299.232 288.352C299.378 288.359 299.591 288.235 299.87 287.982C300.163 287.715 300.487 287.37 300.841 286.947C301.209 286.51 301.579 286.034 301.951 285.518C302.336 284.989 302.709 284.466 303.067 283.95C303.426 283.419 303.736 282.934 303.998 282.492C303.99 282.385 303.988 282.285 303.992 282.192C303.997 282.099 304.001 282.012 304.005 281.932C304.036 281.279 304.122 280.876 304.263 280.723C304.418 280.557 304.608 280.479 304.835 280.49C305.221 280.508 305.49 280.608 305.641 280.789C305.793 280.97 305.858 281.273 305.838 281.699C305.83 281.859 305.802 282.031 305.753 282.216C305.705 282.387 305.626 282.637 305.517 282.965C305.573 284.023 305.614 284.972 305.641 285.815C305.68 286.657 305.68 287.505 305.639 288.357C305.562 289.969 305.235 291.355 304.659 292.515C304.096 293.676 303.333 294.561 302.369 295.169C301.419 295.778 300.318 296.052 299.066 295.992Z" fill="#151515"/>
<defs>
<linearGradient id="paint0_linear_754_6517" x1="186.564" y1="141.593" x2="183.386" y2="208.106" gradientUnits="userSpaceOnUse">
<stop stop-color="#FFB800"/>
<stop offset="1" stop-color="#FF7F0A"/>
</linearGradient>
<linearGradient id="paint1_linear_754_6517" x1="209.317" y1="122.81" x2="205.285" y2="207.218" gradientUnits="userSpaceOnUse">
<stop stop-color="#FFB800"/>
<stop offset="1" stop-color="#FF7F0A"/>
</linearGradient>
<linearGradient id="paint2_linear_754_6517" x1="207.482" y1="108.598" x2="207.204" y2="114.42" gradientUnits="userSpaceOnUse">
<stop stop-color="#FFB800"/>
<stop offset="1" stop-color="#FF7F0A"/>
</linearGradient>
<linearGradient id="paint3_linear_754_6517" x1="208.639" y1="105.251" x2="208.408" y2="110.085" gradientUnits="userSpaceOnUse">
<stop stop-color="#FFB800"/>
<stop offset="1" stop-color="#FF7F0A"/>
</linearGradient>
<linearGradient id="paint4_linear_754_6517" x1="151.28" y1="211.297" x2="150.208" y2="233.735" gradientUnits="userSpaceOnUse">
<stop stop-color="#FFB800"/>
<stop offset="1" stop-color="#FF7F0A"/>
</linearGradient>
<linearGradient id="paint5_linear_754_6517" x1="163.255" y1="130.036" x2="159.65" y2="205.494" gradientUnits="userSpaceOnUse">
<stop stop-color="#FFB800"/>
<stop offset="1" stop-color="#FF7F0A"/>
</linearGradient>
<linearGradient id="paint6_linear_754_6517" x1="243.647" y1="187.725" x2="242.897" y2="203.413" gradientUnits="userSpaceOnUse">
<stop stop-color="#FFB800"/>
<stop offset="1" stop-color="#FF7F0A"/>
</linearGradient>
<linearGradient id="paint7_linear_754_6517" x1="179.284" y1="66.6875" x2="176.235" y2="130.527" gradientUnits="userSpaceOnUse">
<stop stop-color="#FFB800"/>
<stop offset="1" stop-color="#FF7F0A"/>
</linearGradient>
<linearGradient id="paint8_linear_754_6517" x1="210.144" y1="109.424" x2="209.051" y2="132.294" gradientUnits="userSpaceOnUse">
<stop stop-color="#FFB800"/>
<stop offset="1" stop-color="#FF7F0A"/>
</linearGradient>
<linearGradient id="paint9_linear_754_6517" x1="144.306" y1="64.6729" x2="144.066" y2="69.6905" gradientUnits="userSpaceOnUse">
<stop stop-color="#FFB800"/>
<stop offset="1" stop-color="#FF7F0A"/>
</linearGradient>
<linearGradient id="paint10_linear_754_6517" x1="143.969" y1="63.9454" x2="143.67" y2="70.195" gradientUnits="userSpaceOnUse">
<stop stop-color="#FFB800"/>
<stop offset="1" stop-color="#FF7F0A"/>
</linearGradient>
<linearGradient id="paint11_linear_754_6517" x1="243.771" y1="90.9091" x2="243.614" y2="94.2022" gradientUnits="userSpaceOnUse">
<stop stop-color="#FFB800"/>
<stop offset="1" stop-color="#FF7F0A"/>
</linearGradient>
<linearGradient id="paint12_linear_754_6517" x1="243.516" y1="90.0651" x2="243.235" y2="95.9442" gradientUnits="userSpaceOnUse">
<stop stop-color="#FFB800"/>
<stop offset="1" stop-color="#FF7F0A"/>
</linearGradient>
<linearGradient id="paint13_linear_754_6517" x1="130.413" y1="84.0474" x2="130.263" y2="87.183" gradientUnits="userSpaceOnUse">
<stop stop-color="#FFB800"/>
<stop offset="1" stop-color="#FF7F0A"/>
</linearGradient>
<linearGradient id="paint14_linear_754_6517" x1="130.223" y1="83.4018" x2="130.024" y2="87.5797" gradientUnits="userSpaceOnUse">
<stop stop-color="#FFB800"/>
<stop offset="1" stop-color="#FF7F0A"/>
</linearGradient>
<linearGradient id="paint15_linear_754_6517" x1="116.137" y1="169.064" x2="115.737" y2="177.426" gradientUnits="userSpaceOnUse">
<stop stop-color="#FFB800"/>
<stop offset="1" stop-color="#FF7F0A"/>
</linearGradient>
<linearGradient id="paint16_linear_754_6517" x1="98.3946" y1="157.32" x2="97.6805" y2="172.268" gradientUnits="userSpaceOnUse">
<stop stop-color="#FFB800"/>
<stop offset="1" stop-color="#FF7F0A"/>
</linearGradient>
<linearGradient id="paint17_linear_754_6517" x1="112.935" y1="137.062" x2="112.591" y2="144.274" gradientUnits="userSpaceOnUse">
<stop stop-color="#FFB800"/>
<stop offset="1" stop-color="#FF7F0A"/>
</linearGradient>
<linearGradient id="paint18_linear_754_6517" x1="129.906" y1="148.454" x2="129.482" y2="157.339" gradientUnits="userSpaceOnUse">
<stop stop-color="#FFB800"/>
<stop offset="1" stop-color="#FF7F0A"/>
</linearGradient>
<linearGradient id="paint19_linear_754_6517" x1="132.13" y1="126.141" x2="131.701" y2="135.13" gradientUnits="userSpaceOnUse">
<stop stop-color="#FFB800"/>
<stop offset="1" stop-color="#FF7F0A"/>
</linearGradient>
<linearGradient id="paint20_linear_754_6517" x1="148.285" y1="120.522" x2="148.065" y2="125.121" gradientUnits="userSpaceOnUse">
<stop stop-color="#FFB800"/>
<stop offset="1" stop-color="#FF7F0A"/>
</linearGradient>
<linearGradient id="paint21_linear_754_6517" x1="167.66" y1="124.485" x2="167.391" y2="130.129" gradientUnits="userSpaceOnUse">
<stop stop-color="#FFB800"/>
<stop offset="1" stop-color="#FF7F0A"/>
</linearGradient>
<linearGradient id="paint22_linear_754_6517" x1="190.323" y1="126.825" x2="189.913" y2="135.397" gradientUnits="userSpaceOnUse">
<stop stop-color="#FFB800"/>
<stop offset="1" stop-color="#FF7F0A"/>
</linearGradient>
<linearGradient id="paint23_linear_754_6517" x1="202.852" y1="219.457" x2="201.914" y2="239.087" gradientUnits="userSpaceOnUse">
<stop stop-color="#FFB800"/>
<stop offset="1" stop-color="#FF7F0A"/>
</linearGradient>
<clipPath id="clip0_754_6517">
<rect width="235.946" height="240.642" fill="white" transform="matrix(0.998861 0.0477172 -0.0478377 0.998855 71.0938 6.38818)"/>
</clipPath>
</defs>
</svg>
