<svg width="124" height="124" viewBox="0 0 124 124" fill="none" xmlns="http://www.w3.org/2000/svg">
<path d="M65.5397 3.04605L66.6707 1.58101C69.512 -0.684861 71.4951 0.975705 72.7088 3.49066C73.5671 5.26639 73.4567 6.99124 74.2046 8.76161C77.0306 7.5885 79.9026 4.92892 82.9462 7.29657C83.7125 7.89383 84.0496 8.59556 84.537 9.35888C87.2128 9.35353 88.7821 9.39638 90.6242 11.215C92.0954 12.6666 92.4173 14.8012 93.5759 15.9422C94.8632 17.2037 97.6187 18.0635 98.9796 19.325C100.57 20.8007 100.767 24.1004 101.456 26.061C101.655 26.6288 101.68 26.8752 102.324 27.1618C104.11 27.9572 106.679 28.434 108.613 29.2401C113.71 31.364 120.533 36.8707 117.658 42.289C116.978 43.5746 115.773 44.1156 116.077 45.7038C116.475 47.7983 120.119 50.1633 121.609 52.0301C124.797 56.0208 125.312 61.8863 119.951 64.6182C117.621 65.8047 114.728 65.7994 113.146 67.9715C112.172 69.3106 112.417 71.3328 112.19 72.8487C111.179 79.5821 105.704 82.3675 98.575 79.1991C95.3168 77.7501 93.4839 74.0352 91.3506 71.5605C89.3798 69.2758 89.1713 70.0151 86.3883 69.3856C83.0535 68.633 82.0635 65.4512 82.606 62.805C82.9462 61.1444 84.5922 57.9251 83.8167 56.3556C83.5837 55.8815 82.183 55.2414 81.7232 55.6538C80.8895 56.3984 81.1347 59.6847 81.0244 60.7534C80.7608 63.2924 79.0781 64.8164 77.1226 66.5091C77.0367 68.0411 76.9969 69.4473 77.472 70.931C78.5754 74.3781 83.642 75.1253 83.7217 79.657C83.7523 81.4408 82.6428 82.63 82.4374 84.0549C82.3485 84.6709 83.3477 85.1664 83.8626 85.5413C85.7875 86.9421 88.166 87.9706 89.5943 89.8347C91.3108 92.0765 91.7675 94.7414 89.7752 96.9618C88.5798 98.2902 86.894 98.5098 88.1629 100.519C88.6442 101.282 89.389 101.603 90.0204 102.217C91.0196 103.186 91.8901 104.571 92.6379 105.709C93.7628 106.239 94.9245 105.875 96.0156 105.87C98.624 105.856 101.735 105.972 104.224 106.681C106.133 107.225 107.764 108.487 109.428 109.435C111.191 108.572 112.895 106.917 115.044 106.687C119.215 106.242 121.9 110.144 121.637 113.38C120.996 121.3 110.835 125.395 102.786 123.48C99.4393 122.682 97.5329 121.557 93.8119 122.146C87.2158 123.191 84.3102 125.132 77.0613 123.11C69.8124 121.088 69.7756 117.022 72.1541 111.725C72.5556 110.833 73.6039 109.429 73.8276 108.671C74.4253 106.668 71.0445 106.277 69.8645 105.216C68.1389 103.666 68.1817 101.252 68.9174 99.3321C69.3036 98.3277 70.2599 97.1492 70.4867 96.185C71.2959 92.7219 65.8922 93.4799 64.4945 90.7775C62.7535 87.4135 65.5795 85.0994 65.3742 82.314C65.2853 81.0926 63.3359 79.5204 61.975 79.5767C60.8685 79.6222 58.8793 80.9132 58.7046 81.9042C58.1927 84.7887 61.7911 88.2518 59.1521 91.3265C57.4969 93.2523 52.6664 93.1585 53.4786 96.1529C54.205 98.8339 56.5284 100.095 55.2686 103.478C54.3001 106.079 52.5744 105.594 50.8672 106.939C49.1845 108.264 50.7507 109.416 51.425 110.833C53.9506 116.144 54.7077 120.7 47.3301 122.979C40.4245 125.114 37.1786 123.418 30.7512 122.256C26.7666 121.533 25.326 122.425 21.7491 123.346C14.3438 125.253 5.69115 122.583 3.046 115.908C1.81384 112.799 2.11115 109.791 5.18848 107.68C8.7225 105.257 11.6037 107.621 14.5247 109.467C17.4028 107.431 19.9284 106.373 23.6494 106.009C25.8716 105.792 28.0661 106.167 30.0308 106.006C30.4232 105.974 31.1282 105.851 31.3948 105.605C32.0691 104.981 32.8262 103.475 33.5434 102.699C34.4752 101.689 37.0713 100.181 36.1702 98.6518C35.9372 98.2581 35.1985 97.9367 34.8185 97.5751C32.7679 95.6306 32.4185 93.8522 33.4913 91.3587C34.8583 88.1795 38.7173 86.7653 41.4391 84.62C41.7885 84.004 40.4276 81.4221 40.3172 80.4177C39.9004 76.6332 42.6988 75.4306 45.1692 73.1299C46.6803 71.7238 47.2075 69.0294 46.9868 67.1492C46.8428 65.9065 46.147 65.9413 45.3225 65.1512C44.1394 64.0183 43.3363 62.6764 43.0574 61.1525C42.711 59.2482 43.2076 57.3412 42.2574 55.544C39.6184 55.469 39.8697 57.2769 40.2222 58.9803C40.8996 62.2506 43.3578 66.1824 39.1648 68.6812C37.2705 69.8088 35.5633 69.2357 33.758 70.3338C30.7573 73.3148 29.0592 77.8786 24.6394 79.5017C17.8993 81.9765 12.9216 79.5071 11.8918 73.2398C11.4903 70.7918 12.0787 68.4938 9.58991 66.7475C8.19531 65.7672 6.24897 65.6172 4.66433 64.9396C-2.03592 62.0684 -0.638209 55.2307 3.35864 50.9427C4.67662 49.5285 7.56085 47.6215 7.87962 45.8592C8.22903 43.9228 6.96008 43.6254 6.21527 42.0613C5.11184 39.7419 5.62676 38.0117 6.92328 35.8556C9.97609 30.7802 16.3239 28.7848 22.1261 26.9528C23.4869 24.4647 22.9873 20.9212 25.4792 18.9902C26.8677 17.9135 29.5067 16.9627 30.5672 15.7306C31.3396 14.8334 31.6584 13.4835 32.3296 12.4872C34.0032 9.99365 36.1947 9.09641 39.5142 9.39906C39.977 8.20452 41.485 6.56003 42.9716 6.3779C45.5493 6.06186 47.6488 7.97419 49.8741 8.75626C50.343 7.51351 50.386 6.18773 50.7385 4.92624C51.1093 3.60582 52.4671 0.89 54.1253 0.579314C56.2188 0.188277 57.5122 1.72563 58.5421 3.04337C59.1613 -1.06519 64.7949 -0.96341 65.5397 3.04337V3.04605ZM61.8892 4.77357C61.4202 6.03239 61.3007 7.85098 60.7459 9.02409C60.2892 9.99097 59.2532 10.4302 58.0824 10.157C56.2709 9.73652 55.615 6.13149 55.0449 4.77357C54.1897 5.64939 54.3123 7.07427 54.0303 8.20452C53.5031 10.307 52.1177 13.1193 49.0833 12.3104C47.4833 11.8845 45.6075 10.2133 44.0995 9.87848C43.8482 9.82224 43.7869 9.79277 43.557 9.94544C42.3218 10.7677 43.8696 12.7121 43.9524 13.746C44.0045 14.4182 43.7256 16.0145 43.5417 16.7109C43.1524 18.1893 42.0949 19.566 40.6023 20.3213C40.5624 20.5302 40.8168 20.4632 40.9854 20.4579C44.2865 20.34 49.1875 15.0584 53.2549 14.0379C59.1337 12.5648 61.9597 17.1448 59.0264 21.3176C62.1681 24.4191 60.844 30.1508 56.2832 31.6319C57.1261 35.4405 54.2204 38.4 50.1806 39.3857C50.6128 40.2641 54.6096 39.1848 55.428 38.925C56.8655 38.4643 59.0111 37.0314 59.9858 38.9223C60.9881 40.8614 58.3337 41.5417 56.795 42.1149C56.3475 43.7165 56.3322 44.82 54.8119 45.961C51.9706 48.0956 48.5224 46.8234 45.2458 46.7564C38.1349 46.6091 31.2875 51.9042 29.5466 57.7617C28.5749 61.0373 28.7589 68.5821 22.7299 67.2269C18.6533 66.3109 20.1276 62.6175 18.4388 60.4829C17.6327 59.4651 16.4373 59.757 15.2909 58.983C12.0021 56.76 14.4082 52.7184 16.3024 50.4418C17.1637 49.408 19.3552 47.5813 19.582 46.4002C19.9498 44.5013 18.9353 44.2495 18.071 42.8675C17.3476 41.7104 16.9583 40.5936 17.7614 39.3615C19.0518 37.3796 25.7918 33.5281 28.3788 33.3594C31.1251 33.18 31.5849 35.3655 33.3902 35.5905C36.161 35.936 38.6897 34.2915 41.7609 34.9209C42.7601 35.1244 43.5876 35.5717 44.5531 35.8047C47.6427 36.552 52.6051 36.3913 52.458 32.6818C50.6281 32.9255 44.7033 34.3129 44.7033 31.5515C44.7033 29.4196 47.6734 29.8883 49.1906 29.757C50.5821 29.6365 54.5207 28.8545 55.5506 28.142C55.9583 27.8608 56.5805 27.1832 56.6816 26.7413C56.8104 26.1842 57.031 24.012 56.179 23.9076C54.8334 23.7442 52.6388 25.3458 51.3913 25.8387C50.4657 26.2029 47.5569 27.0305 46.6037 27.1001C44.6236 27.2475 43.18 25.7931 44.5501 24.3763C45.2489 23.6558 48.5255 23.2273 49.7208 22.7827C50.7813 22.3863 54.156 20.723 55.0296 20.1151C56.0655 19.3919 56.4732 18.575 56.1851 17.4019C55.4771 16.877 54.4686 17.2251 53.7238 17.5117C49.1691 19.2634 46.4075 23.5594 40.9793 23.9103C39.0973 24.0308 35.7503 23.4255 35.4468 21.4435C35.0177 18.6286 39.1954 18.1599 39.8023 15.8404C40.4582 13.3389 38.2207 11.4105 36.115 13.679C35.0147 14.8628 34.7173 16.6466 33.5342 17.9322C32.2776 19.3008 28.2286 21.0471 27.6983 21.8667C26.9995 22.9514 26.7175 25.8038 26.2026 27.2019C25.6631 28.6643 25.0716 29.591 23.4195 30.2177C21.605 30.9061 19.4901 31.3614 17.651 32.0845C14.4204 33.354 10.1631 36.0484 9.50101 39.316C9.19451 40.8319 11.0979 41.9783 11.5546 43.379C13.7094 49.9892 4.63062 51.8345 3.98082 57.4698C3.38313 62.6309 7.81216 61.6613 11.3063 63.6567C13.173 64.72 14.6442 66.4904 15.1683 68.3866C16.0265 71.4908 14.8618 77.5385 20.6088 77.0483C27.3091 76.4752 27.7903 68.6491 33.1572 66.7555C35.312 65.9949 37.9633 66.6832 37.715 63.9647C37.4606 61.1873 35.6583 59.4062 36.2652 56.0529C36.9303 52.3568 43.6551 50.2999 45.7547 54.1513C46.9837 56.4065 46.5976 58.075 46.8428 60.3731C47.1156 62.9148 49.5615 63.2014 50.4105 65.0923C51.3606 67.2001 50.6894 71.7961 49.4511 73.8183C48.4458 75.4574 46.3799 76.4511 45.0895 77.8438C42.849 80.2597 45.7761 82.2443 45.4543 84.8075C45.0252 88.2277 38.2697 89.5669 37.0376 92.73C36.0629 95.2289 38.6927 95.344 39.6736 97.1921C40.8567 99.4178 39.9433 101.598 38.2514 103.355C37.7579 103.866 37.0774 104.298 36.5901 104.825C34.6254 106.955 34.748 108.966 30.932 109.314C27.3305 109.644 23.3582 108.752 19.9407 110.337C17.6848 111.385 15.8457 113.806 12.9829 112.676C11.8887 112.244 9.2221 109.882 8.17078 110.029C7.73861 110.088 6.59533 111.165 6.43901 111.559C5.55014 113.806 7.6344 117.022 9.58991 118.434C11.4504 119.778 14.4174 120.528 16.8143 120.622C20.3207 120.761 23.5084 118.817 27.1436 118.624C32.6791 118.332 36.8476 121.123 42.6559 120.488C45.2673 120.202 49.8159 119.133 49.3837 116.206C48.9423 113.2 45.8742 110.219 46.2298 107.402C46.4075 105.988 48.0228 104.48 49.3438 103.746C51.2043 102.712 52.3415 102.988 51.4434 100.457C50.3706 97.4358 47.9891 95.6306 50.7568 92.2264C52.1422 90.5204 54.3123 90.3677 56.087 89.1785C56.4027 86.8698 54.7476 84.8557 54.7292 82.5577C54.7016 78.6098 59.7344 75.219 64.0592 76.5421C67.4461 77.5813 69.4262 80.0775 69.1932 83.2273C69.0737 84.8182 67.44 87.8179 67.8507 89.0392C68.0346 89.5883 70.5664 90.3489 71.2652 90.7052C73.8337 92.0122 75.0138 94.4254 74.2812 96.9725C73.9594 98.0893 73.1625 99.083 72.7211 100.125C71.3878 103.259 73.1533 102.661 75.2559 104.091C80.7731 107.838 75.6667 111.5 74.7318 115.833C74.3334 117.676 74.9218 118.354 76.7425 119.267C83.9393 122.875 90.1277 118.182 97.0915 118.624C101.407 118.897 103.914 121.053 108.619 120.472C112.322 120.014 115.347 118.573 116.953 115.531C117.539 114.419 118.204 112.1 117.306 111.06C117.131 110.857 115.929 110.016 115.663 110.029C114.648 110.075 112.662 111.76 111.718 112.284C108.172 114.25 106.578 111.347 103.752 110.153C99.7704 108.468 94.0632 110.292 90.5905 108.631C89.3124 108.021 88.3836 105.773 87.3446 104.691C86.9246 104.255 86.4342 104.049 86.0572 103.69C84.396 102.104 83.36 100.194 83.9791 98.0063C84.727 95.3601 88.8005 95.1539 86.4956 91.8809C84.8588 89.5535 79.0444 87.834 78.6275 85.0726C78.3026 82.9219 79.4459 82.1479 79.7616 80.3748C80.2704 77.5251 75.8812 76.0333 74.4835 73.6817C73.2269 71.5685 72.5127 66.6993 73.8736 64.5995C74.4161 63.7585 75.3418 63.3514 76.0253 62.6282C78.3179 60.1963 76.3134 56.4439 78.6398 53.4871C80.7271 50.8355 86.0082 52.2979 87.3078 54.9039C89.0242 58.3482 86.7132 60.6489 86.3699 63.6969C86.0389 66.6404 88.0281 65.9011 90.3606 66.5841C96.2517 68.3036 96.5061 76.4913 103.467 77.0537C109.045 77.5037 108.015 71.7158 108.76 68.6491C109.269 66.552 110.851 64.6423 112.926 63.5201C115.985 61.8676 120.435 62.3979 120.116 57.984C119.693 52.105 111.669 50.7686 112.208 44.5602C112.423 42.0908 115.019 41.1185 114.351 38.8473C113.517 36.0163 109.845 33.5067 106.949 32.2961C104.828 31.4096 102.084 30.9382 100.101 30.0436C98.7282 29.4223 98.2072 28.2545 97.7689 27.0332C97.3305 25.8119 96.9444 22.8523 96.316 21.9256C95.6754 20.9802 91.9483 19.3946 90.7008 18.1974C89.3706 16.9198 88.5032 13.521 87.0197 12.913C84.8159 12.0104 83.9117 13.8049 84.1324 15.436C84.3837 17.2814 85.5852 17.4448 86.8971 18.4652C90.9613 21.631 87.1423 24.2156 82.9523 23.9049C77.9164 23.5326 75.0291 19.6838 70.8116 17.7742C70.0698 17.4394 69.0921 16.9412 68.2339 17.1609C67.1887 17.4287 67.8967 19.2071 68.43 19.7213C68.9572 20.2276 73.6744 22.5711 74.5571 22.8684C75.872 23.313 78.836 23.5889 79.5961 24.5772C80.3562 25.5655 79.7248 26.9127 78.3731 27.0814C77.2666 27.2207 74.1188 26.3716 72.9908 25.9619C71.397 25.386 69.5733 23.9049 67.8875 23.8969C66.9527 23.8942 67.1396 25.9806 67.2776 26.5672C67.771 28.6616 71.5104 29.2723 73.564 29.5749C74.8728 29.7704 77.852 29.591 78.6919 30.2766C79.78 31.1632 79.2129 32.9094 77.7417 33.1719C75.9057 33.4987 73.3188 32.8987 71.4675 32.6711C71.5932 36.5359 76.6076 36.5707 79.8627 35.6922C80.675 35.4726 81.383 35.0602 82.2842 34.8861C85.2542 34.3075 88.0097 35.9547 90.6886 35.5878C92.4142 35.3521 92.9414 33.2094 95.5406 33.3514C98.1643 33.4933 104.098 36.9618 105.75 38.783C107.081 40.2534 106.845 41.5417 105.793 43.0764C105.082 44.1156 104.218 44.4263 104.319 45.8726C104.435 47.5305 106.501 48.9741 107.559 50.2222C109.389 52.3756 111.341 55.3967 109.649 58.0054C108.438 59.8722 106.627 59.291 105.753 60.1802C103.884 62.0845 105.422 65.5422 102.078 66.9323C95.4394 69.6963 95.3781 60.7587 94.3758 57.4885C92.9199 52.7345 87.0626 47.6269 81.4044 46.9037C78.2995 46.5073 75.4214 47.3831 72.4453 47.1582C69.3649 46.9252 67.3235 44.7959 67.3327 42.1283C65.6929 41.598 62.7596 40.7195 64.1359 38.6893C65.2393 37.0609 67.5565 38.6411 68.9511 39.0535C70.4438 39.4955 72.4054 39.9829 73.8981 39.4446L70.7779 38.1215C68.3105 36.6404 67.2316 34.3504 67.7435 31.7337C65.9596 30.8793 64.2922 29.6151 63.67 27.8581C63.1489 26.3824 63.1612 23.8781 63.9918 22.4827C64.2585 22.0327 64.6784 21.7462 64.9328 21.3123C63.3757 19.1348 63.2317 15.4815 66.2416 14.2201C71.2652 12.1122 76.2735 17.3376 79.9976 19.4401C80.9753 19.9919 82.1309 20.5195 83.3263 20.3829C82.0788 19.5633 80.9907 18.425 80.5677 17.0805C80.3746 16.4645 79.9761 14.4665 79.9976 13.8853C80.0405 12.6907 81.6711 11.0837 80.442 9.88115C80.0559 9.66957 79.3049 10.1061 78.9187 10.2829C76.5678 11.3462 73.9073 13.9549 71.4706 11.3489C69.7327 9.49012 70.0729 6.8841 69.1135 4.77357C68.2553 6.0431 67.8017 9.80884 65.8891 10.1918C64.7489 10.4195 63.7773 9.95615 63.2991 9.05623L61.8922 4.77357H61.8892ZM52.6143 43.0335H50.2572C49.9722 43.0335 48.9822 42.6987 48.6573 42.5729C47.0083 41.9247 46.1746 40.8587 45.5186 39.4365C43.6612 39.4365 41.4881 37.9983 39.7839 38.1322C36.0813 38.4188 33.4974 40.2266 29.8194 37.776C28.7803 37.085 29.0408 36.477 27.4746 37.0796C26.5213 37.4465 23.7781 38.9277 22.9628 39.5142C22.3896 39.924 21.8655 40.5186 21.3291 40.9766C22.595 42.53 23.6708 43.8692 23.5789 45.8994C23.4318 49.1857 20.569 50.7659 18.7974 53.2782C18.4326 53.7924 16.9675 55.8628 17.7399 56.3341C20.2226 56.5484 21.9176 58.4259 22.6655 60.3704C23.0486 61.364 23.0548 62.7541 23.4226 63.563C23.7781 64.3477 24.3452 63.5924 24.4524 63.1344C25.752 57.5983 25.8532 54.1754 30.2699 49.6169C34.3679 45.3824 39.9372 43.1755 46.3033 43.4353C47.8267 43.4969 50.8028 44.1825 52.0595 43.5478C52.2679 43.4433 52.5193 43.2317 52.6143 43.0362V43.0335ZM73.8245 43.0335C73.1042 43.1192 72.2123 42.9719 71.4675 43.0335C71.5625 43.2291 71.8139 43.4406 72.0223 43.5451C73.2912 44.1852 76.2398 43.4915 77.7693 43.4273C86.0358 43.0817 93.5697 47.4876 97.0333 53.9718C98.6026 56.9127 98.7037 60.2017 99.6294 63.263C99.7642 63.7049 100.245 64.3718 100.558 63.7317C100.871 63.0916 100.941 61.5917 101.226 60.7373C101.842 58.9027 102.872 57.459 104.917 56.6555C105.928 56.2591 106.716 56.6395 106.36 55.2574C105.333 51.2828 99.6048 49.9972 100.573 44.4906C100.834 43.0148 101.842 42.1979 102.63 40.9739C102.624 40.7677 101.53 39.8383 101.266 39.6481C100.294 38.9437 97.824 37.6635 96.6562 37.168C96.3007 37.018 95.9513 36.86 95.5559 36.8011C93.9498 37.9902 92.4448 38.9732 90.2411 39.0509C88.0986 39.1285 86.1124 38.2661 84.1416 38.1375C82.9125 38.0572 81.9868 38.6277 80.8558 38.9544C80.2796 39.1205 78.9218 39.2544 78.5509 39.4633C78.2689 39.6213 77.8643 40.682 77.521 41.0891C76.8222 41.9247 74.9862 42.9023 73.8215 43.0389L73.8245 43.0335Z" fill="#40519D"/>
<path d="M61.8919 4.77393L63.2987 9.05658C63.7769 9.9565 64.7485 10.4199 65.8887 10.1922C67.8013 9.81187 68.2549 6.04346 69.1131 4.77393C70.0725 6.88445 69.7323 9.49047 71.4702 11.3492C73.9069 13.9553 76.5674 11.3492 78.9183 10.2833C79.3045 10.1092 80.0555 9.66992 80.4417 9.88151C81.6738 11.0814 80.0432 12.6884 79.9972 13.8856C79.9758 14.4668 80.3742 16.4648 80.5673 17.0809C80.9903 18.4254 82.0784 19.5637 83.3259 20.3832C82.1274 20.5198 80.975 19.9922 79.9972 19.4405C76.2731 17.338 71.2679 12.1126 66.2412 14.2204C63.2313 15.4819 63.3753 19.1351 64.9324 21.3126C64.678 21.7465 64.2581 22.0331 63.9914 22.4831C63.1608 23.8758 63.1485 26.38 63.6696 27.8585C64.2918 29.6155 65.9592 30.8796 67.7431 31.734C67.2343 34.3481 68.3101 36.6407 70.7775 38.1218L73.8977 39.4449C72.405 39.9833 70.4434 39.4958 68.9507 39.0539C67.5561 38.6414 65.2389 37.0612 64.1355 38.6896C62.7593 40.7198 65.6925 41.5983 67.3324 42.1286C67.3232 44.7989 69.3645 46.9255 72.4449 47.1585C75.418 47.3835 78.2991 46.5077 81.4041 46.9041C87.0622 47.6272 92.9195 52.7348 94.3755 57.4889C95.3777 60.7591 95.4421 69.6967 102.078 66.9327C105.422 65.5399 103.883 62.0822 105.753 60.1806C106.627 59.2914 108.438 59.8726 109.649 58.0058C111.341 55.3998 109.388 52.3759 107.558 50.2225C106.501 48.9771 104.432 47.5335 104.319 45.8729C104.217 44.4266 105.085 44.1159 105.793 43.0768C106.841 41.5421 107.08 40.2538 105.75 38.7834C104.098 36.9594 98.1639 33.4937 95.5402 33.3517C92.941 33.2098 92.4138 35.3524 90.6882 35.5881C88.0093 35.9551 85.2538 34.3079 82.2838 34.8864C81.3826 35.0632 80.6746 35.473 79.8624 35.6926C76.6042 36.5738 71.5897 36.5363 71.4671 32.6714C73.3184 32.8991 75.9053 33.499 77.7413 33.1723C79.2126 32.9098 79.7796 31.1635 78.6915 30.277C77.8517 29.5914 74.8755 29.7708 73.5636 29.5753C71.51 29.27 67.7676 28.6593 67.2772 26.5675C67.1392 25.981 66.9492 23.8919 67.8871 23.8972C69.5729 23.9053 71.3997 25.3837 72.9905 25.9622C74.1184 26.3693 77.2632 27.221 78.3727 27.0818C79.7244 26.9103 80.3528 25.5658 79.5957 24.5775C78.8356 23.5892 75.8716 23.316 74.5567 22.8687C73.674 22.5688 68.9568 20.2279 68.4296 19.7217C67.8933 19.2048 67.1852 17.429 68.2335 17.1612C69.0948 16.9389 70.0695 17.4371 70.8112 17.7746C75.0287 19.6842 77.913 23.5356 82.9519 23.9053C87.145 24.2159 90.964 21.6314 86.8967 18.4656C85.5848 17.4451 84.3833 17.2791 84.132 15.4364C83.9082 13.8053 84.8155 12.0108 87.0193 12.9134C88.5028 13.5214 89.3702 16.9228 90.7004 18.1977C91.9479 19.3949 95.675 20.9805 96.3156 21.926C96.944 22.8527 97.3148 25.7667 97.7685 27.0335C98.2221 28.3004 98.7248 29.4253 100.101 30.044C102.084 30.9386 104.827 31.4099 106.948 32.2965C109.845 33.5071 113.517 36.014 114.351 38.8477C115.019 41.1189 112.423 42.0938 112.208 44.5606C111.669 50.7716 119.693 52.1081 120.116 57.9844C120.435 62.3982 115.981 61.8679 112.925 63.5205C110.85 64.6427 109.269 66.5523 108.76 68.6495C108.015 71.7162 109.045 77.504 103.466 77.0541C96.5057 76.4916 96.2513 68.3066 90.3602 66.5845C88.0277 65.9042 86.0385 66.6434 86.3695 63.6972C86.7128 60.6493 89.0238 58.3486 87.3074 54.9043C86.0078 52.2983 80.7267 50.8359 78.6394 53.4874C76.313 56.4443 78.3176 60.1967 76.0249 62.6286C75.3414 63.3544 74.4157 63.7588 73.8732 64.5998C72.5154 66.6996 73.2265 71.5688 74.4832 73.6821C75.8839 76.0336 80.27 77.5255 79.7612 80.3752C79.4455 82.1483 78.3022 82.9223 78.6271 85.073C79.044 87.837 84.8584 89.5539 86.4952 91.8813C88.797 95.1569 84.7235 95.3605 83.9787 98.0067C83.3596 100.195 84.3956 102.102 86.0569 103.69C86.4308 104.049 86.9243 104.255 87.3442 104.692C88.3832 105.771 89.312 108.021 90.5901 108.632C94.0598 110.289 99.7669 108.468 103.751 110.153C106.577 111.347 108.171 114.251 111.718 112.285C112.665 111.76 114.648 110.075 115.662 110.03C115.929 110.019 117.131 110.857 117.305 111.061C118.203 112.1 117.541 114.422 116.953 115.531C115.347 118.574 112.321 120.015 108.619 120.473C103.914 121.054 101.407 118.9 97.0911 118.624C90.1273 118.183 83.9389 122.878 76.7421 119.267C74.9215 118.354 74.333 117.676 74.7314 115.834C75.6663 111.5 80.7727 107.839 75.2556 104.092C73.1529 102.664 71.3874 103.259 72.7207 100.125C73.1652 99.0834 73.9621 98.0897 74.2808 96.9728C75.0134 94.4257 73.8334 92.0126 71.2648 90.7055C70.566 90.3493 68.0342 89.5887 67.8503 89.0396C67.4396 87.8183 69.0733 84.8159 69.1928 83.2276C69.4289 80.0806 67.4488 77.5817 64.0589 76.5425C59.734 75.2167 54.7012 78.6102 54.7288 82.558C54.7441 84.8587 56.4023 86.8702 56.0866 89.1789C54.3119 90.3654 52.1419 90.5207 50.7564 92.2268C47.9887 95.631 50.3672 97.4362 51.443 100.457C52.3441 102.988 51.2039 102.712 49.3435 103.746C48.0224 104.48 46.4071 105.988 46.2294 107.402C45.8769 110.217 48.9419 113.201 49.3833 116.206C49.8124 119.133 45.2639 120.202 42.6555 120.489C36.8472 121.123 32.6787 118.333 27.1432 118.624C23.508 118.817 20.3173 120.762 16.8139 120.623C14.417 120.526 11.45 119.779 9.58953 118.434C7.63708 117.023 5.54976 113.806 6.43863 111.559C6.59495 111.165 7.73823 110.089 8.1704 110.03C9.22478 109.882 11.8914 112.245 12.9825 112.676C15.8453 113.806 17.6813 111.385 19.9403 110.338C23.3609 108.749 27.3301 109.644 30.9316 109.315C34.7445 108.966 34.625 106.952 36.5897 104.826C37.0771 104.298 37.7575 103.867 38.251 103.355C39.9429 101.601 40.8563 99.4182 39.6732 97.1925C38.6924 95.3417 36.0625 95.2266 37.0372 92.7303C38.2694 89.5672 45.0248 88.2254 45.4539 84.8079C45.7757 82.2447 42.8486 80.26 45.0891 77.8442C46.3795 76.4515 48.4454 75.4578 49.4507 73.8186C50.689 71.7965 51.3603 67.2032 50.4101 65.0926C49.558 63.2017 47.1121 62.9152 46.8424 60.3734C46.5972 58.0754 46.9803 56.4041 45.7543 54.1517C43.6547 50.2975 36.933 52.3572 36.2648 56.0533C35.661 59.4092 37.4602 61.1903 37.7146 63.9651C37.9629 66.6836 35.3147 65.9952 33.1568 66.7559C27.7899 68.6495 27.3117 76.4756 20.6084 77.0487C14.8614 77.5389 16.0231 71.4939 15.1679 68.387C14.6438 66.4907 13.1726 64.7204 11.306 63.6571C7.80872 61.6617 3.38275 62.6313 3.98044 57.4701C4.6333 51.8349 13.7121 49.9895 11.5542 43.3794C11.0976 41.9786 9.19106 40.8296 9.50063 39.3164C10.1627 36.0488 14.4201 33.3544 17.6506 32.0849C19.4927 31.3617 21.6046 30.9064 23.4191 30.2181C25.0712 29.5914 25.6627 28.6647 26.2022 27.2023C26.7171 25.8042 26.9991 22.9544 27.6979 21.867C28.2282 21.0475 32.2772 19.2985 33.5338 17.9326C34.717 16.6443 35.0174 14.8632 36.1146 13.6794C38.2203 11.4108 40.4578 13.3392 39.8019 15.8408C39.195 18.1576 35.0173 18.6263 35.4464 21.4439C35.7499 23.4285 39.097 24.0338 40.9789 23.9106C46.4102 23.5597 49.1688 19.2637 53.7234 17.5121C54.4683 17.2255 55.4767 16.8773 56.1847 17.4023C56.4728 18.5754 56.0652 19.3923 55.0292 20.1154C54.1556 20.7234 50.781 22.3893 49.7205 22.783C48.5251 23.2276 45.2485 23.6535 44.5497 24.3766C43.1796 25.7908 44.6202 27.2478 46.6033 27.1005C47.5565 27.0282 50.4653 26.2033 51.3909 25.839C52.6384 25.3462 54.833 23.7472 56.1786 23.9079C57.0307 24.0097 56.81 26.1845 56.6812 26.7416C56.577 27.1862 55.9579 27.8611 55.5502 28.1424C54.5204 28.8548 50.5787 29.6369 49.1902 29.7574C47.673 29.8886 44.7029 29.4199 44.7029 31.5519C44.7029 34.3133 50.6277 32.9259 52.4576 32.6821C52.6047 36.3916 47.6393 36.5523 44.5527 35.8051C43.5903 35.5721 42.7597 35.1275 41.7605 34.9212C38.6923 34.2918 36.1606 35.939 33.3898 35.5908C31.5875 35.3658 31.1247 33.1803 28.3784 33.3598C25.7884 33.5285 19.0514 37.3799 17.761 39.3619C16.958 40.5939 17.3472 41.7081 18.0706 42.8678C18.9349 44.2499 19.9495 44.5016 19.5816 46.4006C19.3518 47.5817 17.1633 49.4083 16.302 50.4422C14.4078 52.7188 12.0017 56.7603 15.2905 58.9834C16.4369 59.7574 17.6323 59.4655 18.4384 60.4832C20.1303 62.6205 18.6529 66.314 22.7295 67.2273C28.7585 68.5798 28.5746 61.035 29.5462 57.762C31.2871 51.9045 38.1345 46.6122 45.2455 46.7568C48.522 46.8237 51.9702 48.0959 54.8116 45.9613C56.3318 44.8203 56.3472 43.7169 56.7947 42.1152C58.3364 41.5447 60.9877 40.8644 59.9854 38.9227C59.0076 37.0318 56.8651 38.4673 55.4276 38.9253C54.6092 39.1878 50.6124 40.2672 50.1802 39.386C54.22 38.4031 57.1257 35.4435 56.2828 31.6322C60.8436 30.1511 62.1677 24.4195 59.026 21.318C61.9562 17.1451 59.1302 12.5652 53.2545 14.0383C49.1871 15.0587 44.2861 20.3404 40.985 20.4582C40.8195 20.4636 40.562 20.5306 40.6019 20.3216C42.0946 19.5664 43.152 18.1924 43.5413 16.7113C43.7252 16.0149 44.0041 14.4186 43.952 13.7463C43.8693 12.7125 42.3244 10.768 43.5566 9.94579C43.7865 9.79313 43.8447 9.82259 44.0991 9.87883C45.6071 10.2136 47.483 11.8849 49.0829 12.3108C52.1173 13.1196 53.5028 10.3074 54.03 8.20488C54.3119 7.0773 54.1893 5.64974 55.0445 4.77393C55.6146 6.13184 56.2705 9.73956 58.082 10.1574C59.2528 10.4279 60.2888 9.99132 60.7455 9.02445C61.3003 7.85401 61.4198 6.03274 61.8888 4.77393H61.8919Z" fill="#D3EBDF"/>
</svg>
