<svg width="124" height="125" viewBox="0 0 124 125" fill="none" xmlns="http://www.w3.org/2000/svg">
<path d="M65.0533 3.40472L66.0274 1.93968C69.1901 -1.04934 71.2229 2.91191 71.8222 5.76969C72.0572 6.88655 72.0176 8.04627 72.5165 9.1176C74.6127 8.15876 76.9464 5.69737 79.362 7.15171C79.9666 7.51596 80.2517 7.78111 80.3599 8.53105C80.5975 10.1729 80.4629 11.729 80.2517 13.3574C82.3478 13.9386 86.0333 13.7243 85.207 17.0133C84.8162 18.5748 83.7418 20.1791 82.596 21.2746C85.4287 22.4503 86.9071 23.4199 85.0565 26.5616C84.5496 27.4213 83.7523 28.4766 82.8574 28.9158V29.1087C84.4149 30.5362 86.2418 33.4476 83.5094 34.6903C82.5749 35.1162 81.4846 35.1912 80.4998 35.4242C81.7195 39.289 80.117 41.3594 76.5742 38.7426L75.8297 41.9084C75.1591 44.0109 71.7958 43.4002 70.1564 43.4592C70.328 43.644 70.489 43.8341 70.7187 43.952C71.8196 44.5171 74.28 43.8502 75.5842 43.7859C82.7042 43.4404 89.1933 47.8463 92.1765 54.3305C93.5282 57.2713 93.6153 60.5603 94.4126 63.6217C94.5288 64.0636 94.9432 64.7305 95.2125 64.0904C95.4791 63.4583 95.5425 61.9504 95.788 61.096C96.3187 59.2613 97.2031 57.8177 98.9666 57.0142C99.7691 56.6473 100.482 56.9794 100.244 55.7152C99.5474 52.0218 93.6549 49.4533 95.4976 44.726C96.1312 43.103 98.5415 41.362 97.5515 39.5809C97.0895 38.7507 94.9221 38.1079 94.0008 37.4704C91.8518 35.9786 91.0862 34.2645 90.978 31.637C90.9014 29.7434 91.8835 27.4829 90.4579 25.9188C89.592 24.9706 88.4145 25.1876 87.678 23.6904C86.3527 21.004 88.8396 18.9792 91.1073 18.2213C94.7743 16.9919 99.4312 19.7934 99.0933 23.9984C99.5447 24.0279 99.6899 23.2324 99.7322 22.8548C100.062 20.0291 98.2221 18.0204 98.4544 15.1813C98.5231 14.343 98.8847 13.4377 98.9613 12.6396C99.1303 10.8291 98.6419 9.88897 100.271 8.52034C103.172 6.08038 106.694 7.64452 107.671 11.113C108.228 13.0949 107.515 14.9323 108.127 16.8955C108.228 17.2142 108.386 17.6213 108.589 17.8865C108.906 17.2597 108.985 16.5473 109.247 15.8965C109.769 14.5948 112.322 11.4076 113.655 11.0701C115.707 10.5478 117.903 12.5084 118.671 14.3029C119.566 16.3973 119.126 18.5239 118.059 20.4523C117.782 20.9531 115.002 24.4564 115.205 24.6626C119.561 23.2137 125.179 23.9288 123.782 29.9791C123.075 33.0378 120.942 34.3046 118.004 34.6126C117.37 34.6796 116.145 34.476 115.675 34.776C115.002 35.2046 113.888 37.7731 113.046 38.6194C112.663 39.0051 111.873 39.5381 111.369 39.7068C110.284 40.0711 110.123 39.6774 109.255 40.7514C108.259 41.9834 107.8 44.0136 108.011 45.5777C108.241 47.2785 112.13 50.6451 113.291 52.3084C116.079 56.3018 116.573 62.2209 111.916 64.9742C109.532 66.3857 106.293 66.2759 105.545 69.672C104.809 73.0306 105.625 75.9848 102.958 78.8721C99.9223 82.1584 94.1195 80.8808 91.3687 77.8704C89.7583 76.108 87.6278 71.6004 86.0623 70.4996C84.6974 69.5408 83.0686 70.2345 81.3446 68.7774C77.7939 65.7777 80.6186 62.02 80.8932 58.6159C80.983 57.5204 81.0807 56.441 79.9138 56.0152C79.1218 55.7259 79.0109 55.8411 78.7575 56.583C77.6803 59.7354 79.3277 61.8888 76.693 65.1188C76.3234 65.5715 75.336 66.3241 75.1195 66.7098C74.9031 67.0954 74.9559 69.3158 75.0113 69.8889C75.4311 74.1314 78.834 74.426 80.2147 77.7632C81.2945 80.3719 80.2068 82.2655 79.597 84.7564C81.9122 87.2365 85.5 88.4578 86.6537 91.9557C87.3189 93.9725 87.2239 95.6411 85.9171 97.3311C84.8875 98.6596 83.4355 98.8792 84.5285 100.888C84.943 101.651 85.5845 101.973 86.1283 102.586C86.9889 103.556 87.7387 104.94 88.3829 106.079C89.3517 106.609 90.3523 106.245 91.2921 106.239C93.5388 106.226 96.2184 106.341 98.362 107.051C100.007 107.594 101.411 108.856 102.845 109.804C104.363 108.942 105.831 107.286 107.681 107.056C111.274 106.612 113.587 110.514 113.36 113.749C112.808 121.669 104.056 125.764 97.1239 123.849C94.241 123.051 92.5989 121.926 89.394 122.515C83.7127 123.56 81.21 125.502 74.9664 123.48C68.9948 121.543 68.6912 117.392 70.7398 112.094C71.0857 111.202 71.9885 109.799 72.1812 109.041C72.696 107.037 69.7841 106.646 68.7677 105.586C67.2814 104.035 67.3184 101.622 67.952 99.7014C68.2846 98.6971 69.1083 97.5186 69.3037 96.5544C70.0006 93.0913 65.3463 93.8493 64.1425 91.1469C62.643 87.7829 65.077 85.4688 64.9002 82.6833C64.8236 81.462 63.1446 79.8898 61.9724 79.9461C61.0194 79.9916 59.306 81.2826 59.1555 82.2735C58.7147 85.1581 61.814 88.6212 59.541 91.6959C58.1154 93.6216 53.9548 93.5279 54.6544 96.5223C55.28 99.2033 57.2811 100.465 56.1961 103.848C55.3619 106.448 53.8756 105.963 52.4051 107.308C50.9557 108.634 52.3048 109.785 52.8856 111.202C55.0609 116.513 55.713 121.069 49.3585 123.348C43.4106 125.483 40.6149 123.788 35.0788 122.625C31.6468 121.902 30.406 122.794 27.3252 123.715C20.947 125.622 13.4943 122.952 11.216 116.278C10.1547 113.168 10.4108 110.16 13.0613 108.05C16.1052 105.626 18.5868 107.991 21.1027 109.836C23.5817 107.801 25.757 106.743 28.962 106.379C30.876 106.162 32.7662 106.537 34.4584 106.376C34.7964 106.344 35.4035 106.221 35.6332 105.974C36.214 105.35 36.8661 103.845 37.4839 103.068C38.2864 102.058 40.5225 100.55 39.7463 99.0212C39.5457 98.6274 38.9095 98.306 38.5821 97.9445C36.8344 96.0187 36.5308 94.3046 37.4047 91.8272C38.5504 88.581 41.9111 87.1588 44.2818 84.9894C44.5828 84.3734 43.4106 81.7914 43.3156 80.7871C42.9566 77.0026 45.3669 75.8 47.4947 73.4993C48.8041 72.0852 49.3163 69.1685 49.0285 67.2856C48.8754 66.2946 48.2312 66.1902 47.6267 65.5206C46.6077 64.3876 45.916 63.0431 45.6758 61.5218C45.3774 59.6175 45.8051 57.7106 44.9867 55.9134C42.2543 55.8009 43.0569 58.6721 43.4713 60.4398C44.1789 63.461 45.5437 66.8249 42.323 69.0506C40.6914 70.1782 39.221 69.605 37.666 70.7032C35.0815 73.6841 33.6189 78.248 29.812 79.8711C24.0067 82.3459 19.7194 79.8764 18.8323 73.6091C18.4865 71.1612 18.9934 68.8631 16.8497 67.1169C15.6485 66.1366 13.9721 65.9866 12.6072 65.309C7.30614 62.6735 7.81301 56.2911 10.8992 52.0513C11.9472 50.613 15.5323 47.4017 15.8676 46.0652C16.0894 45.1787 15.9442 43.1833 15.6379 42.3048C15.4769 41.8415 14.6585 40.505 14.2942 40.213C13.7715 39.7925 13.2963 39.9291 12.7788 39.7577C10.3025 38.9435 9.82733 36.4259 8.19845 34.7064C5.59014 34.5751 3.17455 34.6448 1.38992 32.4486C-0.326075 30.3353 -0.79599 26.1009 1.97864 24.6707C4.17511 23.5377 6.60126 24.1189 8.85845 24.6734C7.29558 21.9682 4.59223 19.7077 4.80079 16.2393C4.95391 13.6842 7.75493 10.3014 10.4873 11.129C11.7572 11.512 14.3338 14.7662 14.809 16.0438C15.0017 16.5634 15.0756 17.2008 15.2604 17.7124C15.3106 17.8516 15.3291 18.1007 15.535 17.8972C15.5878 17.8436 15.96 16.625 15.9996 16.4402C16.6411 13.5101 15.0862 10.8264 18.0245 8.39713C20.2923 6.5223 23.9618 7.3874 24.8726 10.2211C25.2132 11.279 24.8964 11.5897 24.9809 12.5003C25.0785 13.5556 25.6356 14.8626 25.6329 15.9688C25.6277 18.0847 24.0305 20.0961 24.1994 22.3298C24.2179 22.5709 24.4793 23.91 24.5769 24.0064C24.7776 24.2046 24.8014 23.9636 24.8515 23.8216C25.0733 23.2003 25.031 22.2923 25.266 21.5852C25.9761 19.4345 29.1705 17.8034 31.3248 17.8891C34.1812 18.0016 38.4052 21.0978 35.9659 24.202C35.0788 25.3322 33.186 25.509 32.856 27.1588C32.5682 28.5918 33.0856 30.8148 32.9563 32.4405C32.7451 35.0492 31.5465 36.5732 29.3791 37.8454C28.2597 38.5043 25.9999 38.9997 26.1557 40.663C26.2613 41.7852 27.8426 43.2878 28.3574 44.418C30.3744 48.8399 25.5986 51.3817 24.0727 54.9144C23.8351 55.4635 23.4919 56.1357 23.8747 56.7008C26.0474 56.9178 27.5205 58.8542 28.1489 60.8362C28.4155 61.6718 28.5211 63.4958 28.7957 64.0314C29.1177 64.6635 29.5718 63.8975 29.6537 63.5011C30.7836 57.957 30.8496 54.5555 34.6643 49.9836C38.194 45.7491 42.9909 43.5422 48.4741 43.802C49.7704 43.8636 52.2572 44.5171 53.3476 43.96C53.5772 43.8422 53.7383 43.652 53.9099 43.4672C52.3127 43.3681 49.0233 44.0243 48.2154 42.0718C48.0702 41.7183 47.5818 38.7507 47.2993 38.7533C46.3225 39.3694 45.1689 40.4166 43.9703 39.7363C42.3309 38.8042 43.4053 36.8865 43.4212 35.4429C42.1619 35.0251 39.9628 35.0787 39.3239 33.6859C38.5319 31.9584 40.0341 30.2202 41.2063 29.1167C40.0077 28.1713 38.8144 26.7491 38.3234 25.2679C37.4601 22.6646 39.5325 22.2628 41.3383 21.2772C40.1159 19.9568 37.9036 16.8553 39.0071 15.0555C39.8599 13.6627 42.4312 13.8074 43.8278 13.3681C43.5215 11.7531 43.2971 9.77648 43.7353 8.16144C43.8964 7.56685 44.4561 7.15706 45.0105 6.93208C47.3284 5.98127 49.5644 8.31679 51.555 9.12296C51.9484 7.91504 51.988 6.62943 52.2757 5.40276C52.611 3.96985 53.799 1.10939 55.4305 0.900482C57.1254 0.683538 58.1787 2.17001 59.0183 3.41276C59.5515 -0.695802 64.4038 -0.594025 65.0454 3.41276L65.0533 3.40472ZM61.909 5.13224C61.5051 6.39106 61.4022 8.20965 60.9243 9.38276C60.531 10.347 59.6413 10.7889 58.6302 10.5157C57.0699 10.0952 56.505 6.49016 56.0139 5.13224C55.2774 6.00806 55.383 7.43294 55.1401 8.56319C54.7863 10.1997 53.8465 12.736 51.885 12.8458C50.2508 12.9369 48.2576 10.8451 46.7185 10.3148C46.5575 10.5237 47.7587 14.4877 47.2254 15.5456C46.5311 16.9169 43.8172 16.5821 42.5289 17.091C42.8378 18.7328 45.7391 20.1068 45.9213 21.5531C46.2143 23.8806 43.2364 23.9073 41.8768 24.8608C42.4893 26.5053 45.2771 26.9151 45.3774 28.7471C45.4514 30.0916 43.87 31.0022 43.1836 31.9664C44.229 32.1995 45.6493 31.8406 46.5232 32.4994C47.3389 33.1128 47.3469 34.2725 46.9799 35.1563C50.8 33.2654 50.272 36.9294 51.0613 39.3854C52.9199 39.664 54.5197 39.8809 56.3439 39.2756C57.5161 38.8873 59.0447 37.5267 60.0742 38.9408C60.5943 39.6559 60.5653 40.4943 60.1006 41.2281C59.5726 42.0611 58.2315 42.1736 57.4422 42.6476C57.1993 44.1716 57.0119 45.2644 55.8133 46.3089C53.366 48.4435 50.3961 47.1713 47.5739 47.1044C41.5046 46.9598 35.5963 52.1986 34.0783 58.0025C33.2176 61.2915 33.3998 68.9354 28.1805 67.5749C24.8858 66.7151 25.8125 63.4476 24.7406 61.2353C24.0516 59.8157 23.3573 60.2603 22.2432 59.6497C18.7347 57.724 20.9523 53.1494 22.6445 50.7898C23.3731 49.7747 25.3848 47.8007 25.4957 46.6303C25.5881 45.6661 24.1836 44.3269 23.6952 43.4324C22.3224 40.9255 22.626 38.1587 24.9175 36.3536C26.3616 35.2153 28.9673 35.001 29.5058 32.9039C30.2503 30.0032 28.529 27.8525 30.3268 24.7028C31.0872 23.3717 31.7419 23.0744 32.9299 22.3003C33.0566 22.2173 33.1648 22.3137 33.0988 22.0057C31.7419 21.3013 30.5328 20.9906 29.1785 21.9468C28.0248 22.761 28.3706 23.752 28.0855 24.9573C27.2196 28.6266 22.6102 28.1713 21.3799 24.9251C19.9939 21.2772 21.6149 19.6809 22.1693 16.5634C22.4782 14.8412 21.3588 13.0039 21.7073 11.204C20.844 10.2961 19.9147 10.8478 19.5451 11.9084C19.2046 12.8887 19.5821 14.9858 19.4633 16.2098C19.3234 17.6347 18.4944 18.8989 18.336 20.2487C18.1591 21.7647 18.7452 23.827 16.7995 24.4028C13.4309 25.3992 12.5676 19.156 11.604 17.0401C11.1737 16.0973 10.1072 15.2537 9.46038 14.4341C9.12774 14.8224 8.62349 15.1439 8.41229 15.626C6.90486 19.0462 13.6052 22.1905 12.206 26.3848C11.1288 29.6202 7.00781 27.2874 4.79286 27.3972C3.59167 27.4561 3.2036 27.6704 3.4016 28.948C3.84512 31.7816 6.78341 31.0478 8.76868 31.3397C11.6252 31.7602 12.4092 35.9786 13.7081 36.4259C14.2995 36.6294 14.9304 36.5651 15.5957 36.9026C17.8133 38.0195 19.4184 41.9834 19.4791 44.3859C19.6375 50.5969 12.5756 52.3003 12.0264 57.8257C11.5116 62.9869 15.3264 62.0173 18.336 64.0127C19.9464 65.0787 21.211 66.849 21.6624 68.7426C22.4491 72.053 21.3641 78.2801 26.7866 77.3186C32.2356 76.3518 32.6236 68.9676 37.1539 67.1115C39.0098 66.3509 41.2934 67.0392 41.0795 64.3207C40.8446 61.3504 38.7695 58.7819 40.1397 55.3938C41.2617 52.6244 45.8764 51.1353 47.7376 53.977C49.0576 55.9964 48.7434 58.5087 48.9414 60.729C49.1711 63.3163 51.4864 63.6618 52.12 65.7402C52.7536 67.8186 52.2546 71.9352 51.32 73.9091C50.4304 75.7893 48.5454 76.7348 47.3706 78.2721C45.5596 80.6371 48.0174 82.6485 47.7455 85.1635C47.3759 88.5837 41.5574 89.9229 40.4961 93.086C39.6566 95.5848 41.9217 95.7 42.7665 97.5481C43.7855 99.7738 42.9988 101.954 41.5415 103.711C41.1165 104.222 40.5304 104.654 40.1106 105.181C38.4184 107.311 38.524 109.322 35.2372 109.67C32.1352 110 28.7138 109.108 25.7702 110.693C23.8272 111.741 22.2432 114.162 19.7774 113.032C18.835 112.6 16.5382 110.238 15.6327 110.385C15.2604 110.444 14.2757 111.521 14.1411 111.915C13.3755 114.162 15.1707 117.378 16.855 118.79C18.4574 120.134 21.013 120.884 23.0774 120.978C26.0976 121.117 28.8432 119.173 31.9742 118.98C36.742 118.688 40.3324 121.479 45.3352 120.844C47.5845 120.558 51.5022 119.489 51.13 116.562C50.7498 113.556 48.1072 110.575 48.4134 107.758C48.5665 106.344 49.9578 104.836 51.0956 104.102C52.6981 103.068 53.6776 103.344 52.904 100.813C51.98 97.7918 49.9288 95.9866 52.3127 92.5825C53.5059 90.8764 55.3751 90.7237 56.9036 89.5345C57.1755 87.2258 55.7499 85.2117 55.7341 82.9137C55.7103 78.9658 60.0452 75.575 63.7702 76.8981C66.6874 77.9373 68.3929 80.4335 68.1922 83.5832C68.0893 85.1742 66.6821 88.1739 67.0359 89.3952C67.1943 89.9443 69.3749 90.7049 69.9769 91.0611C72.1892 92.3682 73.2055 94.7814 72.5746 97.3284C72.2974 98.4453 71.611 99.439 71.2308 100.481C70.0825 103.614 71.6031 103.017 73.4141 104.447C78.1661 108.194 73.7679 111.856 72.9627 116.189C72.6195 118.032 73.1264 118.71 74.6945 119.623C80.8932 123.231 86.2234 118.538 92.2214 118.98C95.9385 119.253 98.098 121.409 102.15 120.828C105.34 120.37 107.945 118.929 109.329 115.887C109.833 114.775 110.406 112.456 109.632 111.416C109.482 111.213 108.447 110.372 108.217 110.385C107.343 110.431 105.633 112.116 104.819 112.64C101.765 114.606 100.392 111.703 97.9581 110.509C94.5288 108.824 89.6131 110.648 86.622 108.987C85.5211 108.377 84.7212 106.129 83.8262 105.047C83.4646 104.611 83.0422 104.405 82.7174 104.046C81.2866 102.46 80.3942 100.55 80.9275 98.3623C81.5717 95.7161 85.0802 95.5099 83.095 92.2369C81.6852 89.9095 76.6772 88.19 76.3181 85.4286C76.0172 83.1065 77.6196 81.4326 77.3239 79.6247C77.0362 77.8731 73.6623 75.8697 72.7092 73.9439C71.6453 71.7959 71.017 66.8731 72.3264 64.7921C72.7911 64.0529 73.5329 63.6565 74.0794 62.9842C76.0779 60.5255 74.2906 56.6767 76.3841 53.7627C78.2189 51.2076 82.6963 52.6941 83.7972 55.2572C85.2756 58.7015 83.285 61.0049 82.9894 64.0502C82.6937 67.0954 84.4176 66.2545 86.4266 66.9374C91.4558 68.6435 91.733 76.7401 97.5885 77.4017C102.525 77.9614 101.622 72.12 102.274 69.0024C102.713 66.9053 104.075 64.9956 105.862 63.8734C108.497 62.2209 112.33 62.7512 112.056 58.3373C111.668 52.0754 104.03 50.8567 104.59 43.7163C104.777 41.3379 106.607 37.382 109.02 36.6509C109.408 36.533 109.907 36.5571 110.255 36.4419C111.023 36.1875 111.971 34.0555 112.531 33.3029C114.828 30.1934 116.42 31.9504 119.294 30.8657C120.409 30.4452 121.406 27.7534 119.952 27.4776C117.935 27.0946 115.929 28.3266 113.975 28.0936C111.607 27.8097 111.269 25.3831 111.998 23.4601C113.059 20.6692 118.204 17.1687 114.482 14.4314C113.978 15.2429 112.959 15.9929 112.512 16.8098C111.749 18.2105 111.311 20.6639 110.553 22.2629C109.888 23.6609 108.75 24.9921 107.053 24.3546C105.369 23.7225 105.891 22.0165 105.738 20.6398C105.532 18.7783 104.497 17.2008 104.46 15.1626C104.442 14.1663 104.722 13.3387 104.537 12.2941C104.318 11.046 103.238 10.0764 102.267 11.3192C102.718 12.8164 101.707 14.5252 101.715 15.9554C101.723 17.2276 103.019 19.5149 103.151 21.138C103.423 24.4109 101.438 28.9453 97.5621 27.2044C95.6006 26.3232 96.0916 24.3894 95.6006 22.8173C95.1386 21.3335 92.0313 20.8487 90.9727 22.0673L93.0028 23.7252C95.4448 26.516 94.1011 28.9935 94.3783 32.162C94.6396 35.1296 97.4882 35.0064 99.2834 36.4848C101.504 38.3168 101.628 41.1585 100.242 43.5636C99.7771 44.3725 98.4491 45.6474 98.5178 46.558C98.6207 47.8945 100.463 49.5202 101.237 50.5755C102.871 52.8092 104.899 56.6178 102.562 59.0712C101.675 60.0032 100.239 59.8452 99.6319 60.6166C97.9845 62.711 99.4286 67.0338 95.4528 67.6713C90.5265 68.4587 90.743 61.1121 89.8797 57.8445C88.6257 53.0905 83.5807 47.9829 78.7073 47.2597C76.033 46.8633 73.554 47.7391 70.9906 47.5142C68.3955 47.2865 66.632 45.2322 66.5871 42.6155C65.6393 42.2191 64.1662 41.9968 63.7412 40.9174C63.3399 39.8997 63.6541 38.5364 64.85 38.3489C66.0169 38.1641 66.9752 39.1551 68.0734 39.4444C69.7313 39.8836 71.3549 39.5488 73.0208 39.3961C73.5435 36.991 73.3956 33.1904 76.9543 35.151C76.825 34.4144 76.6587 33.6297 77.0863 32.9574C77.9232 31.645 79.4597 32.2691 80.7533 31.9611C80.9909 31.7549 79.6947 30.8415 79.5679 30.705C76.693 27.6356 80.9962 26.9606 82.1921 24.7885C80.8563 24.0814 77.8467 23.7708 78.0288 21.7031C78.1291 20.5648 79.9587 19.3247 80.6873 18.4114C81.0146 18.0016 81.3341 17.5731 81.5374 17.083C80.6767 16.9437 79.824 16.7348 78.9687 16.566C78.3694 16.4482 77.976 16.6276 77.353 16.2125C75.6819 15.0903 77.3635 11.962 77.2131 10.3068C74.9743 11.2683 72.3819 14.485 70.1432 11.7022C68.6463 9.84343 68.9393 7.23741 68.113 5.12689C67.1785 6.76871 67.0253 11.2549 64.2454 10.5103C63.7623 10.3818 63.303 9.86218 63.105 9.40954L61.8932 5.12689L61.909 5.13224Z" fill="#40519D"/>
<path d="M61.9118 5.13257L63.1235 9.41523C63.3215 9.86786 63.7809 10.3875 64.264 10.516C67.0439 11.2606 67.197 6.77439 68.1316 5.13257C68.9579 7.24309 68.6649 9.84911 70.1617 11.7079C72.4004 14.4907 74.9929 11.274 77.2316 10.3125C77.3795 11.9677 75.7004 15.096 77.3715 16.2182C77.9919 16.636 78.3853 16.4539 78.9872 16.5717C79.8426 16.7405 80.6953 16.9494 81.5559 17.0886C81.3526 17.5788 81.0332 18.0073 80.7059 18.4171C79.9746 19.3304 78.1477 20.5705 78.0474 21.7088C77.8652 23.7764 80.8748 24.0871 82.2106 24.7942C81.0121 26.9663 76.7115 27.6413 79.5865 30.7106C79.7132 30.8446 81.0068 31.7605 80.7719 31.9668C79.4783 32.2748 77.9418 31.6507 77.1049 32.9631C76.6772 33.6354 76.8435 34.4201 76.9729 35.1567C73.4142 33.1961 73.562 36.994 73.0393 39.4018C71.3735 39.5572 69.7499 39.892 68.092 39.45C66.9937 39.1581 66.0354 38.1698 64.8685 38.3546C63.6726 38.5421 63.3585 39.9053 63.7598 40.9231C64.1848 41.9998 65.6579 42.2248 66.6057 42.6212C66.6505 45.2352 68.414 47.2895 71.0092 47.5198C73.5699 47.7448 76.0515 46.869 78.7259 47.2654C83.5993 47.9886 88.6443 53.0961 89.8983 57.8502C90.7616 61.1204 90.5451 68.4671 95.4713 67.677C99.4445 67.0395 98.0004 62.7194 99.6504 60.6222C100.258 59.8509 101.691 60.0089 102.581 59.0768C104.917 56.6235 102.89 52.8149 101.256 50.5812C100.482 49.5232 98.6393 47.9002 98.5363 46.5637C98.4651 45.653 99.793 44.3782 100.26 43.5693C101.646 41.1642 101.522 38.3225 99.3019 36.4905C97.5067 35.0094 94.6582 35.1352 94.3968 32.1676C94.1196 29.0019 95.4634 26.5217 93.0214 23.7309L90.9912 22.073C92.0499 20.8544 95.1572 21.3392 95.6191 22.823C96.1075 24.3951 95.6191 26.3316 97.5807 27.2101C101.456 28.9483 103.439 24.4166 103.17 21.1436C103.035 19.5206 101.739 17.2333 101.733 15.9611C101.725 14.5308 102.737 12.8221 102.285 11.3249C103.257 10.0821 104.336 11.0517 104.556 12.2998C104.738 13.3443 104.46 14.1719 104.479 15.1683C104.516 17.2092 105.551 18.784 105.757 20.6455C105.91 22.0221 105.387 23.7282 107.071 24.3603C108.769 24.9978 109.907 23.6666 110.572 22.2685C111.332 20.6723 111.768 18.2162 112.531 16.8155C112.974 15.9986 113.993 15.2486 114.5 14.4371C118.223 17.1744 113.077 20.6749 112.016 23.4658C111.287 25.3861 111.625 27.8154 113.993 28.0993C115.947 28.3323 117.953 27.1002 119.97 27.4832C121.425 27.7591 120.43 30.4508 119.313 30.8713C116.438 31.9561 114.846 30.1991 112.549 33.3086C111.992 34.0639 111.042 36.1932 110.274 36.4476C109.925 36.5628 109.426 36.5387 109.038 36.6565C106.628 37.3877 104.796 41.3436 104.608 43.722C104.049 50.8624 111.686 52.0784 112.074 58.343C112.349 62.7569 108.515 62.2239 105.881 63.8791C104.094 65.0013 102.731 66.911 102.293 69.0081C101.641 72.1257 102.544 77.9671 97.6071 77.4073C91.7516 76.7458 91.4744 68.6492 86.4452 66.9431C84.4362 66.2628 82.7228 67.002 83.0079 64.0559C83.293 61.1097 85.2941 58.7072 83.8158 55.2629C82.7149 52.6997 78.2374 51.2133 76.4027 53.7684C74.3118 56.6797 76.0964 60.5312 74.0979 62.9899C73.5515 63.6621 72.8096 64.0585 72.345 64.7978C71.0356 66.8788 71.6639 71.8016 72.7278 73.9496C73.6808 75.8727 77.0547 77.8787 77.3425 79.6304C77.6408 81.4356 76.0357 83.1122 76.3367 85.4343C76.6957 88.1983 81.7038 89.9152 83.1135 92.2426C85.0962 95.5182 81.5876 95.7218 80.9461 98.368C80.4128 100.556 81.3051 102.463 82.736 104.051C83.0581 104.41 83.4831 104.617 83.8448 105.053C84.7397 106.132 85.5397 108.382 86.6405 108.993C89.629 110.651 94.5447 108.83 97.9767 110.514C100.411 111.709 101.784 114.612 104.838 112.646C105.654 112.121 107.362 110.437 108.236 110.391C108.465 110.38 109.5 111.219 109.651 111.422C110.424 112.461 109.854 114.783 109.347 115.892C107.964 118.935 105.358 120.376 102.169 120.834C98.1166 121.415 95.9571 119.262 92.24 118.986C86.2419 118.544 80.9118 123.239 74.7131 119.629C73.1449 118.715 72.638 118.038 72.9812 116.195C73.7864 111.861 78.1846 108.2 73.4327 104.453C71.6216 103.026 70.101 103.62 71.2494 100.487C71.6322 99.4447 72.3186 98.451 72.5932 97.3341C73.2241 94.787 72.2077 92.3739 69.9954 91.0668C69.3935 90.7106 67.2129 89.95 67.0545 89.4009C66.7007 88.1796 68.1078 85.1772 68.2108 83.5889C68.4141 80.4419 66.7086 77.943 63.7888 76.9038C60.0638 75.578 55.7289 78.9715 55.7527 82.9194C55.7659 85.22 57.1941 87.2315 56.9222 89.5402C55.3936 90.7267 53.5245 90.882 52.3312 92.5881C49.9473 95.9923 51.996 97.7975 52.9226 100.819C53.6987 103.35 52.7167 103.074 51.1142 104.108C49.9764 104.841 48.5851 106.349 48.432 107.764C48.1284 110.578 50.7684 113.562 51.1485 116.567C51.5181 119.495 47.6004 120.563 45.3537 120.85C40.351 121.485 36.7606 118.694 31.9928 118.986C28.8617 119.179 26.1135 121.123 23.096 120.984C21.0315 120.887 18.476 120.14 16.8735 118.796C15.1919 117.384 13.394 114.167 14.1596 111.92C14.2943 111.527 15.279 110.45 15.6512 110.391C16.5594 110.244 18.8562 112.606 19.796 113.037C22.2618 114.167 23.8431 111.746 25.7888 110.699C28.735 109.111 32.1538 110.005 35.2558 109.676C38.5399 109.328 38.437 107.314 40.1292 105.187C40.549 104.659 41.135 104.228 41.5601 103.717C43.0174 101.962 43.8041 99.7795 42.785 97.5538C41.9402 95.703 39.6751 95.5879 40.5146 93.0917C41.5759 89.9285 47.3945 88.5894 47.7641 85.1691C48.036 82.6542 45.5781 80.6428 47.3892 78.2778C48.564 76.7431 50.4516 75.795 51.3386 73.9148C52.2731 71.9409 52.7695 67.8109 52.1385 65.7459C51.5076 63.6809 49.1897 63.322 48.96 60.7347C48.762 58.5144 49.0761 56.0021 47.7561 53.9827C45.8976 51.1383 41.2802 52.6301 40.1582 55.3995C38.7854 58.7876 40.8631 61.3561 41.0981 64.3264C41.3119 67.0449 39.031 66.3566 37.1724 67.1172C32.6422 68.9733 32.2541 76.3574 26.8052 77.3243C21.3826 78.2858 22.4677 72.0614 21.681 68.7483C21.2295 66.8547 19.965 65.0843 18.3546 64.0184C15.3424 62.023 11.5302 62.9926 12.045 57.8314C12.5941 52.306 19.6587 50.6026 19.4977 44.3916C19.437 41.9891 17.8292 38.0252 15.6143 36.9083C14.9464 36.5708 14.318 36.6378 13.7267 36.4316C12.4278 35.9843 11.6437 31.7659 8.78725 31.3454C6.80197 31.0535 3.86103 31.79 3.42015 28.9536C3.21951 27.6734 3.61023 27.4618 4.81142 27.4029C7.02637 27.2931 11.1474 29.6259 12.2245 26.3905C13.6211 22.1962 6.92342 19.0519 8.43085 15.6316C8.64205 15.1495 9.14628 14.8281 9.47892 14.4398C10.1257 15.2567 11.1923 16.1003 11.6226 17.0458C12.5862 19.1617 13.4495 25.4049 16.8181 24.4085C18.7638 23.8327 18.1751 21.7704 18.3546 20.2544C18.513 18.9046 19.3393 17.6404 19.4818 16.2155C19.6033 14.9942 19.2231 12.8944 19.5637 11.9141C19.9333 10.8535 20.8626 10.3017 21.7258 11.2097C21.3774 13.0122 22.4967 14.8469 22.1878 16.569C21.6308 19.6866 20.0125 21.2802 21.3985 24.9308C22.6287 28.1743 27.2408 28.6296 28.1041 24.9629C28.3892 23.7577 28.0433 22.7667 29.197 21.9525C30.5513 20.9963 31.7604 21.3097 33.1174 22.0114C33.1834 22.3221 33.0778 22.223 32.9484 22.306C31.7604 23.0801 31.1031 23.38 30.3454 24.7085C28.5476 27.8582 30.2689 30.0062 29.5244 32.9095C28.9858 35.0067 26.3801 35.221 24.9361 36.3592C22.6446 38.1644 22.341 40.9312 23.7138 43.4381C24.2048 44.3326 25.6066 45.6718 25.5142 46.636C25.4034 47.8064 23.3917 49.7777 22.663 50.7954C20.9708 53.1551 18.7532 57.7323 22.2618 59.6554C23.3732 60.266 24.0701 59.8214 24.7592 61.2409C25.831 63.4532 24.9044 66.7208 28.1991 67.5805C33.4184 68.9411 33.2362 61.2972 34.0968 58.0082C35.6122 52.2042 41.5231 46.9654 47.5925 47.1101C50.4146 47.177 53.3846 48.4492 55.8319 46.3146C57.0304 45.27 57.2179 44.1773 57.4607 42.6533C58.2501 42.1766 59.5912 42.0668 60.1192 41.2338C60.5838 40.4999 60.6129 39.6616 60.0928 38.9465C59.0632 37.5323 57.532 38.8929 56.3625 39.2813C54.5383 39.8839 52.9384 39.6697 51.0799 39.3911C50.2905 36.9351 50.8159 33.2684 46.9985 35.162C47.3654 34.2782 47.3575 33.1185 46.5417 32.5051C45.6679 31.8489 44.2476 32.2051 43.2022 31.9721C43.8886 31.0079 45.4699 30.0973 45.396 28.7528C45.2957 26.9181 42.5105 26.511 41.8954 24.8665C43.255 23.9104 46.2329 23.8862 45.9398 21.5588C45.7577 20.1152 42.8563 18.7385 42.5474 17.0967C43.8384 16.5851 46.5523 16.9226 47.244 15.5513C47.7773 14.4933 46.5761 10.5294 46.7371 10.3205C48.2762 10.8481 50.2694 12.9399 51.9036 12.8515C53.8624 12.7444 54.8049 10.208 55.1587 8.56887C55.4015 7.44129 55.2959 6.01374 56.0325 5.13793C56.5235 6.49584 57.0885 10.1036 58.6487 10.5214C59.6598 10.7946 60.5495 10.3526 60.9429 9.38844C61.4207 8.21801 61.5237 6.39675 61.9276 5.13793L61.9118 5.13257ZM57.5875 26.9208C58.2897 23.913 56.7664 17.1931 52.6058 18.0796C49.517 18.7358 50.6021 23.4122 51.2383 25.5923C51.3492 25.9673 52.0514 27.9279 52.4052 27.8448C52.4659 27.8314 53.118 27.2529 53.3978 27.1217C54.7072 26.5083 56.2411 26.3396 57.5875 26.9208ZM71.8619 27.8502C72.9654 25.5897 75.0932 18.7331 71.3471 18.0796C67.2208 17.3592 65.9113 23.5488 66.3628 26.5887C66.3839 26.7333 66.4156 26.8351 66.5555 26.8994C67.8227 26.3691 69.1374 26.5057 70.3835 27.0279C70.9432 27.2636 71.2943 27.7055 71.8619 27.8502Z" fill="#D3EBDF"/>
<path d="M57.5873 26.9206C56.2409 26.3367 54.7071 26.5055 53.3977 27.1215C53.1152 27.2527 52.4631 27.8312 52.405 27.8446C52.0513 27.9277 51.349 25.9671 51.2381 25.5922C50.5993 23.412 49.5142 18.7356 52.6057 18.0794C56.7689 17.1956 58.2922 23.9155 57.5873 26.9206Z" fill="#40519D"/>
<path d="M71.8592 27.8504C71.2916 27.7057 70.9405 27.2638 70.3808 27.0281C69.1347 26.5032 67.8226 26.3693 66.5528 26.8996C66.4129 26.8353 66.3812 26.7335 66.3601 26.5889C65.9086 23.549 67.2181 17.3594 71.3444 18.0798C75.0905 18.7333 72.9627 25.5899 71.8592 27.8504Z" fill="#40519D"/>
</svg>
