<svg width="360" height="364" viewBox="0 0 360 364" fill="none" xmlns="http://www.w3.org/2000/svg">
<path d="M341.325 251.82L323.506 16.8732C323.465 16.3221 322.984 15.9093 322.433 15.9515L10.1021 39.8591C9.55037 39.9013 9.13797 40.3835 9.18179 40.9351L33.8098 350.883C33.8535 351.433 34.3355 351.844 34.8862 351.8L308.276 330.064C308.479 330.048 308.675 329.969 308.832 329.839C337.07 306.603 342.485 275.648 341.325 251.82Z" fill="#00E391"/>
<path d="M308.588 330.039C333.898 313.726 341.034 294.693 341.348 259.41C326.174 280.99 315.173 283.461 300.644 286.268C306.884 299.563 309.539 316.337 308.588 330.039Z" fill="#00764C"/>
<g clip-path="url(#clip0_754_4476)">
<mask id="mask0_754_4476" style="mask-type:luminance" maskUnits="userSpaceOnUse" x="24" y="44" width="280" height="239">
<path d="M272.648 44.0364L24.3066 82.6345L55.3902 282.123L303.731 243.525L272.648 44.0364Z" fill="white"/>
</mask>
<g mask="url(#mask0_754_4476)">
<path fill-rule="evenodd" clip-rule="evenodd" d="M185.329 163.805L207.365 161.504L206.926 157.101L205.8 145.776C205.699 144.77 205.204 143.846 204.422 143.206C203.639 142.566 202.634 142.262 201.628 142.361L187.171 143.796C186.165 143.896 185.239 144.391 184.598 145.173C183.957 145.954 183.653 146.957 183.753 147.962L185.165 162.152L185.329 163.805ZM197.258 144.083L197.34 144.501C197.258 144.083 197.258 144.083 197.258 144.083L197.259 144.082L197.26 144.082L197.263 144.081L197.275 144.079C197.286 144.077 197.301 144.074 197.32 144.071C197.358 144.064 197.414 144.054 197.485 144.042C197.627 144.019 197.831 143.987 198.078 143.956C198.571 143.893 199.243 143.83 199.956 143.828C200.665 143.826 201.435 143.884 202.113 144.077C202.785 144.268 203.429 144.609 203.792 145.221C204.514 146.435 204.757 147.447 204.887 148.868C204.94 149.446 204.974 150.098 205.014 150.859L205.015 150.863C205.023 151.022 205.032 151.186 205.041 151.355C205.094 152.337 205.164 153.503 205.293 154.933C205.314 155.167 205.141 155.374 204.906 155.395C204.672 155.416 204.465 155.243 204.443 155.009C204.313 153.565 204.243 152.387 204.189 151.401C204.18 151.228 204.171 151.061 204.163 150.9L204.163 150.898C204.122 150.138 204.089 149.505 204.037 148.945C203.915 147.609 203.697 146.729 203.058 145.655C202.855 145.313 202.454 145.06 201.879 144.896C201.31 144.734 200.629 144.678 199.959 144.68C199.292 144.682 198.656 144.741 198.185 144.801C197.951 144.831 197.758 144.861 197.625 144.883C197.559 144.894 197.507 144.903 197.473 144.909C197.455 144.912 197.442 144.915 197.434 144.916L197.425 144.918L197.423 144.918L197.422 144.919C197.191 144.964 196.967 144.813 196.922 144.583C196.877 144.352 197.027 144.128 197.258 144.083Z" fill="#151515"/>
<path d="M225.941 114.212C225.941 114.212 261.354 105.858 262.2 113.25C262.511 116.694 262.606 120.155 262.487 123.612C243.14 118.872 225.397 126.467 225.397 126.467C225.915 119.672 225.941 114.212 225.941 114.212Z" fill="url(#paint0_linear_754_4476)"/>
<path d="M190.847 180.762C189.841 180.86 188.836 180.556 188.054 179.916C187.272 179.276 186.776 178.352 186.676 177.347L185.329 163.806L207.364 161.504L208.723 175.161C208.822 176.166 208.517 177.169 207.876 177.95C207.235 178.731 206.31 179.226 205.304 179.327L190.847 180.762Z" fill="#151515"/>
<path d="M225.398 126.467C225.398 126.467 243.141 118.872 262.488 123.612C262.142 137.682 259.13 161.031 246.187 174.159C236.629 183.855 208.801 189.009 208.801 189.009L211.327 214.445L201.65 215.978L198.686 186.181C203.218 185.706 207.274 185.25 207.274 185.25C207.274 185.25 212.352 182.909 212.536 178.609C212.67 175.503 211.726 162.638 211.191 155.708C215.441 154.148 218.449 152.47 219.892 150.615C223.23 146.329 224.728 135.275 225.398 126.467Z" fill="url(#paint1_linear_754_4476)"/>
<path d="M181.392 181.697L179.548 163.169C181.163 162.889 183.03 162.549 185.073 162.159L185.165 162.151L185.329 163.804L186.675 177.346C186.776 178.351 187.271 179.275 188.054 179.915C188.836 180.555 189.84 180.859 190.846 180.76L205.303 179.326C206.31 179.225 207.235 178.73 207.876 177.949C208.516 177.168 208.821 176.164 208.722 175.159L207.363 161.503L206.925 157.101L207.002 157.092C208.506 156.64 209.905 156.178 211.189 155.708C211.724 162.638 212.668 175.503 212.534 178.609C212.351 182.91 207.272 185.25 207.272 185.25C207.272 185.25 203.217 185.706 198.684 186.181C194.457 186.622 189.811 187.08 187.655 187.196C183.185 187.434 181.392 181.697 181.392 181.697Z" fill="url(#paint2_linear_754_4476)"/>
<path d="M228.454 246.49C229.139 250.883 218.291 256.219 204.222 258.405C190.153 260.592 178.198 258.8 177.514 254.407C176.829 250.014 187.676 244.676 201.742 242.49C202.587 242.359 203.426 242.243 204.252 242.138C217.207 240.529 227.81 242.359 228.454 246.49Z" fill="#151515"/>
<path d="M152.201 139.688C150.111 141.497 152.387 146.419 152.387 146.419L152.423 146.632C146.522 147.622 146.978 136.673 149.286 138.616C150.109 139.292 151.136 139.67 152.201 139.688Z" fill="#151515"/>
<path d="M193.692 217.241L193.428 217.361C193.174 216.797 192.497 216.399 191.526 216.131C187.496 215.014 178.386 216.127 173.347 216.885C180.011 215.724 193.764 212.955 193.136 209.932C192.309 205.951 168.863 211.24 168.863 211.24C168.863 211.24 175.663 203.401 172.478 201.432C169.292 199.463 161.613 209.184 161.613 209.184L161.475 209.223C160.623 206.109 159.221 203.941 157.384 203.576C155.038 203.107 148.336 204.042 140.561 205.181L140.57 205.24C144.609 228.522 141.071 242.75 141.071 242.75L141.072 242.753C124.241 246.123 98.2968 245.74 84.1017 233.631C79.1782 229.431 75.6675 223.821 74.4423 216.466C68.1345 178.621 142.87 167.208 142.87 167.208L143.072 167.177L142.416 162.966C142.416 162.966 141.037 160.715 144.535 160.07C148.033 159.424 167.954 155.915 167.954 155.915C167.954 155.915 171.128 154.496 171.8 158.809L172.655 164.293L173.258 164.199C173.258 164.199 175.685 163.842 179.546 163.17L181.392 181.698C181.392 181.698 183.186 187.434 187.658 187.196C189.814 187.079 194.46 186.622 198.687 186.181L201.651 215.978L193.692 217.241Z" fill="url(#paint3_linear_754_4476)"/>
<path d="M161.899 211.089C163.1 217.564 162.297 226.827 158.77 233.236C158.066 234.54 157.199 235.75 156.19 236.836C154.065 239.081 148.443 241.276 141.074 242.753L141.073 242.75C141.073 242.75 144.611 228.519 140.573 205.24L140.563 205.18C148.338 204.042 155.041 203.108 157.386 203.576C159.224 203.942 160.625 206.108 161.477 209.223C161.636 209.811 161.777 210.435 161.899 211.089Z" fill="url(#paint4_linear_754_4476)"/>
<path d="M157.85 97.6996C157.994 97.4094 163.326 86.7294 169.65 88.8865C176.058 91.0746 160.785 105.261 166.385 100.282C171.985 95.3021 179.726 93.4845 180.757 95.4807C181.788 97.477 180.331 99.348 178.03 101.757C175.729 104.166 144.438 111.911 140.013 116.502C137.786 118.812 139.144 129.439 141.044 139.423L140.214 139.58C140.214 139.58 139.185 146.827 136.026 143.724C133.056 140.803 135.6 135.301 135.908 134.659C135.496 135.416 131.369 142.826 129.037 139.779C126.579 136.564 133.252 129.878 133.252 129.878C133.252 129.878 130.22 118.333 130.843 111.763C131.466 105.194 144.223 102.597 144.223 102.597C144.223 102.597 141.858 92.6916 146.108 90.6983C150.358 88.705 151.577 97.654 151.577 97.654C151.577 97.654 154.832 84.2062 158.148 85.0266C161.424 85.8359 157.934 97.4215 157.85 97.6996Z" fill="#151515"/>
<path d="M142.874 167.208C142.874 167.208 68.1379 178.62 74.4457 216.466C75.6704 223.822 79.1816 229.431 84.105 233.631C98.3002 245.74 124.244 246.123 141.075 242.753C148.444 241.276 154.067 239.081 156.191 236.836C157.2 235.749 158.067 234.54 158.771 233.236C162.298 226.826 163.101 217.563 161.9 211.089C161.778 210.436 161.637 209.811 161.478 209.222C160.626 206.107 159.225 203.94 157.387 203.575C155.041 203.106 148.339 204.041 140.564 205.179C127.23 207.13 110.747 209.677 107.695 206.778C102.866 202.189 106.966 196.825 106.966 196.825" stroke="#151515" stroke-linecap="round" stroke-linejoin="round"/>
<path d="M170.342 224.08C176.527 223.543 194.11 222.391 194.092 226.628C194.071 231.768 158.77 233.236 158.77 233.236" stroke="#151515" stroke-linecap="round" stroke-linejoin="round"/>
<path d="M168.221 224.282C168.221 224.282 168.258 224.279 168.334 224.27C168.342 224.268 168.35 224.268 168.357 224.269C168.621 224.24 169.266 224.174 170.19 224.095" stroke="#151515" stroke-linecap="round" stroke-linejoin="round"/>
<path d="M170.188 224.096C169.267 224.189 168.62 224.246 168.355 224.27" stroke="#151515" stroke-linecap="round" stroke-linejoin="round"/>
<path d="M170.188 224.095C170.199 224.093 170.211 224.092 170.222 224.093C170.262 224.087 170.302 224.083 170.343 224.08" stroke="#151515" stroke-linecap="round" stroke-linejoin="round"/>
<path d="M173.347 216.884C178.387 216.127 187.497 215.014 191.526 216.131C192.498 216.399 193.174 216.797 193.428 217.36C193.473 217.461 193.505 217.568 193.521 217.678C194.088 221.315 176.531 223.444 170.342 224.08" stroke="#151515" stroke-linecap="round" stroke-linejoin="round"/>
<path d="M173.317 216.888C171.22 217.252 169.832 217.456 169.832 217.456C169.832 217.456 171.218 217.203 173.317 216.888Z" stroke="#151515" stroke-linecap="round" stroke-linejoin="round"/>
<path d="M173.316 216.889L173.348 216.884" stroke="#151515" stroke-linecap="round" stroke-linejoin="round"/>
<path d="M161.613 209.182C161.613 209.182 169.293 199.462 172.478 201.43C175.664 203.398 168.863 211.238 168.863 211.238C168.863 211.238 192.309 205.95 193.137 209.93C193.765 212.953 180.011 215.722 173.347 216.883" stroke="#151515" stroke-linecap="round" stroke-linejoin="round"/>
<path d="M185.073 162.159C183.03 162.55 181.162 162.89 179.548 163.17C175.687 163.843 173.26 164.199 173.26 164.199" stroke="#151515" stroke-linecap="round" stroke-linejoin="round"/>
<path d="M211.332 214.5L211.326 214.445L208.799 189.01C208.799 189.01 236.626 183.856 246.185 174.16C259.13 161.031 262.14 137.682 262.486 123.613C262.606 120.156 262.51 116.695 262.2 113.25C261.355 105.859 225.94 114.212 225.94 114.212C225.94 114.212 225.914 119.673 225.396 126.467C224.726 135.276 223.229 146.329 219.89 150.617C218.448 152.471 215.44 154.149 211.188 155.709C209.904 156.179 208.504 156.641 207.002 157.093" stroke="#151515" stroke-linecap="round" stroke-linejoin="round"/>
<path d="M143.34 168.881L142.419 162.965C142.419 162.965 141.04 160.715 144.538 160.069C148.036 159.424 167.956 155.914 167.956 155.914C167.956 155.914 171.131 154.496 171.803 158.809L172.834 165.426" stroke="#151515" stroke-linecap="round" stroke-linejoin="round"/>
<path d="M135.907 134.66C135.599 135.302 133.055 140.804 136.024 143.725C139.184 146.828 140.213 139.581 140.213 139.581" stroke="#151515" stroke-linecap="round" stroke-linejoin="round"/>
<path d="M157.845 97.706C157.845 97.7037 157.846 97.7016 157.847 97.6999C157.932 97.4218 161.421 85.8351 158.146 85.0257C154.83 84.2054 151.575 97.6532 151.575 97.6532C151.575 97.6532 150.353 88.7019 146.106 90.698C141.859 92.6941 144.222 102.597 144.222 102.597C144.222 102.597 131.462 105.197 130.841 111.763C130.221 118.329 133.25 129.878 133.25 129.878C133.25 129.878 126.578 136.563 129.035 139.78C131.366 142.829 135.494 135.418 135.906 134.66C135.912 134.655 135.916 134.648 135.918 134.641C135.92 134.635 135.922 134.63 135.924 134.625C135.936 134.606 135.94 134.597 135.94 134.597" stroke="#151515" stroke-linecap="round" stroke-linejoin="round"/>
<path d="M145.323 158.506C145.323 158.506 142.921 149.276 141.044 139.422C139.143 129.439 137.786 118.812 140.014 116.501C144.438 111.911 175.731 104.168 178.03 101.757C180.33 99.3458 181.787 97.4772 180.756 95.4807C179.725 93.4843 171.986 95.3015 166.384 100.282C160.781 105.262 176.057 91.0746 169.649 88.8865C163.325 86.7294 157.993 97.4094 157.849 97.6996" stroke="#151515" stroke-linecap="round" stroke-linejoin="round"/>
<path d="M155.003 134.611C155.003 134.611 158.401 135.043 158.807 134.363C159.214 133.683 154.659 116.621 154.659 116.621L162.254 114.928" stroke="#151515" stroke-linecap="round" stroke-linejoin="round"/>
<path d="M161.008 120.563L161.844 124.167" stroke="#151515" stroke-linecap="round" stroke-linejoin="round"/>
<path d="M148.025 121.932L148.645 125.91" stroke="#151515" stroke-linecap="round" stroke-linejoin="round"/>
<path d="M152.202 139.687C151.138 139.669 150.11 139.291 149.288 138.615C146.98 136.672 146.524 147.621 152.425 146.631C153.495 146.411 154.511 145.981 155.413 145.367" stroke="#151515" stroke-linecap="round" stroke-linejoin="round"/>
<path d="M155.85 138.932C154.706 139.449 153.461 139.708 152.205 139.688" stroke="#151515" stroke-linecap="round" stroke-linejoin="round"/>
<path d="M152.387 146.419C152.387 146.419 150.111 141.496 152.202 139.687L152.204 139.687" stroke="#151515" stroke-linecap="round" stroke-linejoin="round"/>
<path d="M161.493 155.994C161.493 155.994 158.666 151.058 161.438 148.163C164.21 145.267 168.037 147.411 168.783 143.392C169.53 139.373 166.255 107.357 166.255 107.357" stroke="#151515" stroke-linecap="round" stroke-linejoin="round"/>
<path d="M248.619 104.963C248.618 104.958 248.618 104.953 248.619 104.948L248.618 104.94C248.617 104.937 248.62 104.934 248.619 104.928C248.611 103.954 248.447 82.8222 252.239 82.9836C256.121 83.1513 253.978 109.324 253.978 109.324" stroke="#151515" stroke-linecap="round" stroke-linejoin="round"/>
<path d="M242.768 104.236C242.144 99.4847 240.025 81.6043 243.569 81.4553C247.564 81.2856 248.573 103.919 248.619 104.928" stroke="#151515" stroke-linecap="round" stroke-linejoin="round"/>
<path d="M242.819 104.604C242.804 104.51 242.791 104.407 242.777 104.299" stroke="#151515" stroke-linecap="round" stroke-linejoin="round"/>
<path d="M242.904 105.229C242.887 105.115 242.862 104.941 242.833 104.712" stroke="#151515" stroke-linecap="round" stroke-linejoin="round"/>
<path d="M242.834 104.712C242.866 104.94 242.89 105.114 242.905 105.228C242.921 105.331 242.927 105.385 242.927 105.385" stroke="#151515" stroke-linecap="round" stroke-linejoin="round"/>
<path d="M242.833 104.713C242.831 104.678 242.825 104.64 242.819 104.603" stroke="#151515" stroke-linecap="round" stroke-linejoin="round"/>
<path d="M242.777 104.299C242.794 104.407 242.807 104.51 242.819 104.604" stroke="#151515" stroke-linecap="round" stroke-linejoin="round"/>
<path d="M242.777 104.299L242.768 104.236" stroke="#151515" stroke-linecap="round" stroke-linejoin="round"/>
<path d="M234.9 112.29C234.9 112.29 224.851 105.883 227.27 103.249C229.689 100.615 237.767 105.931 237.767 105.931C237.767 105.931 230.312 82.8496 235.049 81.9068C239.167 81.0863 242.075 99.4142 242.769 104.237" stroke="#151515" stroke-linecap="round" stroke-linejoin="round"/>
<path d="M49.2639 239.688L84.1031 233.63" stroke="#151515" stroke-linecap="round" stroke-linejoin="round"/>
<path d="M193.693 217.241L201.65 215.978L211.327 214.445L296.433 200.953" stroke="#151515" stroke-linecap="round" stroke-linejoin="round"/>
<path d="M141.074 242.75C141.074 242.75 144.611 228.519 140.573 205.24" stroke="#151515" stroke-linecap="round" stroke-linejoin="round"/>
<path d="M225.397 126.467C225.397 126.467 243.14 118.872 262.486 123.612" stroke="#151515" stroke-linecap="round" stroke-linejoin="round"/>
<path d="M228.454 246.49C229.139 250.883 218.291 256.219 204.222 258.405C190.153 260.592 178.198 258.8 177.514 254.407C176.829 250.014 187.676 244.676 201.742 242.49C202.587 242.359 203.426 242.243 204.252 242.138C217.207 240.529 227.81 242.359 228.454 246.49Z" stroke="#151515" stroke-linecap="round" stroke-linejoin="round"/>
<path d="M207.364 161.503L208.722 175.159C208.821 176.165 208.517 177.168 207.876 177.949C207.235 178.73 206.31 179.225 205.304 179.326L190.847 180.761C189.84 180.859 188.836 180.555 188.054 179.915C187.272 179.275 186.776 178.351 186.675 177.346L185.328 163.805L185.164 162.151L183.752 147.962C183.652 146.957 183.956 145.953 184.597 145.172C185.238 144.391 186.164 143.896 187.17 143.796L201.627 142.36C202.634 142.261 203.638 142.565 204.421 143.205C205.203 143.846 205.698 144.77 205.799 145.775L206.925 157.101L207.364 161.503Z" stroke="#151515" stroke-linecap="round" stroke-linejoin="round"/>
<path d="M178.778 155.441L179.548 163.17L181.392 181.698C181.392 181.698 183.186 187.435 187.658 187.196C189.814 187.08 194.46 186.622 198.687 186.181C203.22 185.706 207.275 185.25 207.275 185.25C207.275 185.25 212.353 182.909 212.537 178.609C212.671 175.504 211.727 162.639 211.192 155.708C210.985 153.03 210.836 151.238 210.836 151.238" stroke="#151515" stroke-linecap="round" stroke-linejoin="round"/>
<path d="M204.813 247.779L204.252 242.139L201.65 215.978L198.686 186.181" stroke="#151515" stroke-linecap="round" stroke-linejoin="round"/>
<path d="M185.328 163.805L207.363 161.504" stroke="#151515" stroke-linecap="round" stroke-linejoin="round"/>
<path d="M68.3921 225.592C66.0584 219.66 65.9245 213.089 68.0146 207.067" stroke="#151515" stroke-linecap="round" stroke-linejoin="round"/>
<path d="M201.221 137.796L203.62 132.08" stroke="#151515" stroke-linecap="round" stroke-linejoin="round"/>
<path d="M192.571 137.914L190.189 121.439" stroke="#151515" stroke-linecap="round" stroke-linejoin="round"/>
<path d="M186.061 139.788L182.451 136.217" stroke="#151515" stroke-linecap="round" stroke-linejoin="round"/>
<path d="M262.011 95.824C262.783 93.2683 262.982 90.5742 262.594 87.933C262.206 85.292 261.241 82.7683 259.767 80.5416" stroke="#151515" stroke-linecap="round" stroke-linejoin="round"/>
<path d="M85.9682 163.268L81.3066 158.679" stroke="#151515" stroke-linecap="round" stroke-linejoin="round"/>
<path d="M81.8036 163.35L85.1584 158.329" stroke="#151515" stroke-linecap="round" stroke-linejoin="round"/>
<path d="M94.0136 124.712L90.8867 120.248" stroke="#151515" stroke-linecap="round" stroke-linejoin="round"/>
<path d="M90.103 124.597L94.1864 120.294" stroke="#151515" stroke-linecap="round" stroke-linejoin="round"/>
<path d="M216.604 91.2442L213.568 87.6066" stroke="#151515" stroke-linecap="round" stroke-linejoin="round"/>
<path d="M212.998 91.8116L216.602 86.9746" stroke="#151515" stroke-linecap="round" stroke-linejoin="round"/>
<path d="M218.519 58.6998L214.656 53.7567" stroke="#151515" stroke-linecap="round" stroke-linejoin="round"/>
<path d="M214.724 58.2346L217.503 53.5039" stroke="#151515" stroke-linecap="round" stroke-linejoin="round"/>
<path d="M244.773 181.802C252.972 176.697 258.839 168.582 261.111 159.202" stroke="#151515" stroke-linecap="round" stroke-linejoin="round"/>
<path d="M74.198 119.981C70.9192 124.779 71.9197 131.636 75.4833 136.227C79.0472 140.818 84.664 143.416 90.3401 144.685C94.427 145.598 98.8174 145.98 102.245 148.382C107.654 152.174 108.822 160.229 106.038 166.213C103.255 172.198 97.3813 176.258 91.183 178.545C84.6291 180.962 77.1484 181.648 70.7308 178.891C64.3131 176.133 59.382 169.393 60.138 162.457C60.3421 160.583 60.966 158.707 62.2104 157.291C63.4548 155.874 65.389 154.99 67.2512 155.295C70.6843 155.857 72.3542 159.919 72.34 163.393C72.3354 164.459 72.2206 165.565 71.6744 166.481C71.1282 167.396 70.0529 168.068 69.0074 167.854C67.962 167.641 67.2174 166.32 67.7913 165.422" stroke="#151515" stroke-linecap="round" stroke-linejoin="round"/>
<path d="M200.67 95.3166C197.114 90.1553 199.061 82.5903 203.687 78.3571C208.312 74.124 214.86 72.6549 221.129 72.4276C227.398 72.2004 233.676 73.0443 239.939 72.687C244.65 72.418 249.453 71.4114 253.365 68.7741C257.276 66.1369 260.147 61.6341 259.882 56.9273C259.725 54.1318 258.389 51.3391 256.061 49.7777C253.734 48.2164 250.408 48.1048 248.186 49.8123C245.964 51.5198 245.288 55.0619 246.999 57.2805C248.71 59.4991 252.647 59.5752 254.205 57.2484" stroke="#151515" stroke-linecap="round" stroke-linejoin="round"/>
<path d="M169.064 163.959L168.35 159.687" stroke="#151515" stroke-linecap="round" stroke-linejoin="round"/>
<path d="M162.067 165.049L161.545 161.021" stroke="#151515" stroke-linecap="round" stroke-linejoin="round"/>
<path d="M154.118 166.284L153.517 162.405" stroke="#151515" stroke-linecap="round" stroke-linejoin="round"/>
<path d="M147.225 167.352L146.668 164.015" stroke="#151515" stroke-linecap="round" stroke-linejoin="round"/>
<path d="M256.251 128.016L252.666 130.833" stroke="#151515" stroke-linecap="round" stroke-linejoin="round"/>
<path d="M250.472 142.268C249.915 141.208 249.139 140.279 248.195 139.541" stroke="#151515" stroke-linecap="round" stroke-linejoin="round"/>
<path d="M236.94 135.948L239.377 133.104" stroke="#151515" stroke-linecap="round" stroke-linejoin="round"/>
<path d="M232.277 146.945L230 144.217" stroke="#151515" stroke-linecap="round" stroke-linejoin="round"/>
<path d="M236.088 156.679L239.047 154.409" stroke="#151515" stroke-linecap="round" stroke-linejoin="round"/>
<path d="M242.529 169.181L241.258 166.298" stroke="#151515" stroke-linecap="round" stroke-linejoin="round"/>
<path d="M225.657 173.566L228.311 170.532" stroke="#151515" stroke-linecap="round" stroke-linejoin="round"/>
<path d="M219.109 162.755L217.221 161.2" stroke="#151515" stroke-linecap="round" stroke-linejoin="round"/>
<path d="M217.627 182.295L217.729 178.993" stroke="#151515" stroke-linecap="round" stroke-linejoin="round"/>
<path d="M202.869 197.304L205.338 193.418" stroke="#151515" stroke-linecap="round" stroke-linejoin="round"/>
<path d="M206.914 205.942L205.459 204.525" stroke="#151515" stroke-linecap="round" stroke-linejoin="round"/>
<path d="M193.444 194.903L191.133 192.204" stroke="#151515" stroke-linecap="round" stroke-linejoin="round"/>
<path d="M182.268 203.423L185.013 199.915" stroke="#151515" stroke-linecap="round" stroke-linejoin="round"/>
<path d="M177.637 190.976L175.857 188.788" stroke="#151515" stroke-linecap="round" stroke-linejoin="round"/>
<path d="M168.261 179.688L170.413 177.445" stroke="#151515" stroke-linecap="round" stroke-linejoin="round"/>
<path d="M159.987 189.807L158.338 187.804" stroke="#151515" stroke-linecap="round" stroke-linejoin="round"/>
<path d="M147.471 198.028L148.872 196.094C148.907 196.034 148.813 195.954 148.76 195.999C148.707 196.043 148.768 196.149 148.833 196.126" stroke="#151515" stroke-linecap="round" stroke-linejoin="round"/>
<path d="M148.322 183.004L149.635 180.851" stroke="#151515" stroke-linecap="round" stroke-linejoin="round"/>
<path d="M136.686 193.428L134.695 191.89" stroke="#151515" stroke-linecap="round" stroke-linejoin="round"/>
<path d="M123.896 203.045L125.339 200.986" stroke="#151515" stroke-linecap="round" stroke-linejoin="round"/>
<path d="M123.027 186.858L124.981 184.284" stroke="#151515" stroke-linecap="round" stroke-linejoin="round"/>
<path d="M132.565 176.922L130.326 175.114" stroke="#151515" stroke-linecap="round" stroke-linejoin="round"/>
<path d="M105.012 190.257L102.174 188.539" stroke="#151515" stroke-linecap="round" stroke-linejoin="round"/>
<path d="M89.8268 203.603C90.384 202.625 90.745 201.547 90.8893 200.43" stroke="#151515" stroke-linecap="round" stroke-linejoin="round"/>
<path d="M87.2871 219.107L84.877 217.795" stroke="#151515" stroke-linecap="round" stroke-linejoin="round"/>
<path d="M102.548 215.283C102.794 213.968 103.213 212.691 103.794 211.486" stroke="#151515" stroke-linecap="round" stroke-linejoin="round"/>
<path d="M100.185 232.493L97.3301 230.677" stroke="#151515" stroke-linecap="round" stroke-linejoin="round"/>
<path d="M120.429 219.437C119.547 218.985 118.742 218.397 118.045 217.694" stroke="#151515" stroke-linecap="round" stroke-linejoin="round"/>
<path d="M116.878 237.92L119.282 234.253" stroke="#151515" stroke-linecap="round" stroke-linejoin="round"/>
<path d="M134.277 223.691C134.866 222.706 135.386 221.681 135.832 220.624" stroke="#151515" stroke-linecap="round" stroke-linejoin="round"/>
<path d="M135.283 237.32C134.884 237.224 134.511 237.043 134.189 236.79C133.866 236.537 133.602 236.217 133.414 235.853" stroke="#151515" stroke-linecap="round" stroke-linejoin="round"/>
<path d="M58.9136 151.752L56.9961 149.178" stroke="#151515" stroke-linecap="round" stroke-linejoin="round"/>
<path d="M56.4231 151.764L59.2571 148.388" stroke="#151515" stroke-linecap="round" stroke-linejoin="round"/>
<path d="M195.604 81.2028L194.184 79.3922" stroke="#151515" stroke-linecap="round" stroke-linejoin="round"/>
<path d="M193.642 81.1318C194.464 80.6972 195.163 80.0633 195.675 79.2888" stroke="#151515" stroke-linecap="round" stroke-linejoin="round"/>
<path d="M129.151 101.138L126.148 98.5911" stroke="#151515" stroke-linecap="round" stroke-linejoin="round"/>
<path d="M126.346 101.58L128.948 97.6669" stroke="#151515" stroke-linecap="round" stroke-linejoin="round"/>
<path d="M206.71 117.473L203.673 118.741C203.582 118.78 203.48 118.789 203.383 118.769C203.286 118.748 203.198 118.697 203.13 118.625C203.062 118.552 203.018 118.461 203.004 118.362C202.99 118.264 203.007 118.164 203.051 118.075L204.533 115.139C204.577 115.053 204.594 114.956 204.582 114.861C204.57 114.766 204.53 114.676 204.468 114.603L202.321 112.11C202.256 112.035 202.216 111.942 202.206 111.843C202.196 111.744 202.216 111.645 202.265 111.558C202.313 111.471 202.387 111.402 202.476 111.358C202.565 111.314 202.665 111.299 202.763 111.314L206.017 111.814C206.112 111.829 206.21 111.815 206.296 111.774C206.384 111.734 206.457 111.668 206.507 111.586L208.217 108.777C208.269 108.692 208.345 108.625 208.436 108.585C208.527 108.545 208.628 108.534 208.726 108.553C208.823 108.572 208.913 108.62 208.981 108.691C209.051 108.763 209.096 108.853 209.112 108.951L209.642 112.196C209.657 112.291 209.7 112.379 209.766 112.449C209.831 112.52 209.916 112.569 210.009 112.591L213.214 113.347C213.31 113.37 213.398 113.422 213.464 113.496C213.53 113.57 213.572 113.662 213.585 113.761C213.597 113.859 213.578 113.959 213.532 114.047C213.486 114.135 213.414 114.206 213.325 114.251L210.399 115.757C210.313 115.801 210.243 115.869 210.196 115.953C210.149 116.037 210.129 116.133 210.137 116.229L210.406 119.506C210.415 119.605 210.392 119.704 210.342 119.789C210.292 119.875 210.217 119.944 210.127 119.986C210.037 120.028 209.936 120.041 209.838 120.024C209.74 120.007 209.65 119.96 209.579 119.89L207.242 117.575C207.173 117.508 207.086 117.462 206.992 117.444C206.897 117.426 206.799 117.436 206.71 117.473Z" fill="#151515"/>
<path d="M160.715 73.5207L158.713 74.3568C158.653 74.382 158.586 74.388 158.522 74.3744C158.458 74.3605 158.4 74.3276 158.355 74.2797C158.31 74.232 158.282 74.1716 158.272 74.1066C158.263 74.042 158.274 73.9759 158.303 73.9176L159.28 71.9824C159.309 71.9256 159.32 71.8621 159.312 71.7993C159.304 71.7366 159.278 71.6775 159.237 71.6296L157.822 69.9868C157.779 69.9371 157.753 69.8754 157.746 69.8104C157.739 69.7453 157.753 69.6797 157.785 69.6224C157.817 69.5652 157.865 69.5191 157.924 69.4901C157.983 69.4614 158.05 69.4514 158.114 69.4618L160.259 69.7914C160.322 69.8006 160.385 69.7915 160.443 69.7648C160.5 69.7381 160.548 69.6953 160.581 69.6414L161.708 67.7899C161.742 67.734 161.793 67.69 161.852 67.6634C161.913 67.6372 161.979 67.6297 162.043 67.6421C162.107 67.6546 162.166 67.6865 162.212 67.7334C162.258 67.7804 162.288 67.8401 162.298 67.9048L162.647 70.0435C162.657 70.1057 162.685 70.1637 162.728 70.2102C162.772 70.2564 162.827 70.2888 162.889 70.3036L165 70.8022C165.064 70.8173 165.122 70.8515 165.165 70.9001C165.209 70.9491 165.237 71.0097 165.245 71.0749C165.253 71.1397 165.241 71.2054 165.21 71.2634C165.179 71.3213 165.132 71.3683 165.073 71.3984L163.144 72.3905C163.088 72.4193 163.042 72.4644 163.011 72.5195C162.98 72.5749 162.967 72.6382 162.972 72.7012L163.149 74.861C163.155 74.926 163.14 74.9912 163.107 75.0478C163.074 75.1043 163.025 75.1494 162.965 75.177C162.906 75.2046 162.84 75.2135 162.775 75.2023C162.711 75.191 162.651 75.1603 162.605 75.1144L161.063 73.5886C161.019 73.5441 160.962 73.5139 160.9 73.502C160.838 73.4898 160.773 73.4964 160.715 73.5207Z" fill="#151515"/>
<path d="M111.544 130.676L110.17 132.727C110.128 132.789 110.069 132.836 109.999 132.863C109.93 132.891 109.854 132.896 109.781 132.878C109.709 132.861 109.643 132.822 109.594 132.766C109.544 132.711 109.513 132.641 109.504 132.567L109.214 130.117C109.205 130.045 109.176 129.978 109.129 129.923C109.082 129.868 109.02 129.828 108.951 129.809L106.573 129.137C106.501 129.117 106.438 129.075 106.39 129.018C106.343 128.96 106.315 128.889 106.309 128.815C106.303 128.741 106.32 128.667 106.358 128.603C106.395 128.539 106.452 128.487 106.519 128.456L108.763 127.423C108.829 127.393 108.883 127.344 108.921 127.282C108.959 127.221 108.977 127.15 108.975 127.078L108.878 124.612C108.875 124.538 108.896 124.464 108.936 124.402C108.976 124.339 109.034 124.29 109.103 124.262C109.172 124.233 109.248 124.227 109.321 124.243C109.394 124.259 109.46 124.296 109.511 124.351L111.188 126.163C111.237 126.215 111.301 126.253 111.371 126.27C111.441 126.287 111.514 126.282 111.582 126.257L113.901 125.405C113.971 125.379 114.047 125.375 114.119 125.394C114.191 125.413 114.255 125.454 114.304 125.51C114.352 125.567 114.382 125.637 114.39 125.711C114.397 125.785 114.381 125.86 114.345 125.925L113.138 128.078C113.103 128.141 113.087 128.213 113.093 128.284C113.098 128.356 113.125 128.425 113.17 128.481L114.698 130.42C114.744 130.479 114.771 130.55 114.775 130.625C114.78 130.699 114.761 130.773 114.722 130.836C114.683 130.9 114.626 130.95 114.557 130.979C114.489 131.009 114.413 131.018 114.34 131.003L111.917 130.522C111.846 130.508 111.773 130.516 111.707 130.543C111.641 130.57 111.584 130.617 111.544 130.676Z" fill="#151515"/>
<g opacity="0.1">
<path d="M227.249 114.63C225.321 115.424 225.857 118.598 225.774 120.276C225.661 122.563 225.52 124.858 225.32 127.139C224.947 131.629 224.286 136.091 223.342 140.497C222.496 144.357 221.476 148.445 218.992 151.614C217.866 153.067 216.369 154.19 214.659 154.867C213.908 155.165 213.112 155.336 212.304 155.372C211.217 155.413 210.322 155.118 209.266 155.599C208.991 155.727 208.749 155.915 208.558 156.149C208.367 156.384 208.231 156.659 208.161 156.954C208.091 157.248 208.09 157.555 208.156 157.85C208.221 158.146 208.353 158.422 208.542 158.659C210.07 160.468 213.062 160.086 215.13 159.507C217.373 158.877 219.425 157.701 221.102 156.086C224.648 152.662 226.237 147.959 227.388 143.292C228.673 138.164 229.499 132.932 229.854 127.658C230.018 124.997 230.034 122.329 229.903 119.666C229.836 118.262 229.856 113.555 227.248 114.628L227.249 114.63Z" fill="#151515"/>
</g>
<g opacity="0.1">
<path d="M163.995 106.543C162.906 106.878 161.725 106.963 160.628 107.279C159.377 107.682 158.147 108.148 156.943 108.677C154.771 109.556 152.601 110.44 150.425 111.308C146.768 112.767 142.032 114.024 139.98 117.699C138.06 121.136 138.79 125.078 139.359 128.771C140.082 133.471 140.935 138.151 141.74 142.837C142.198 145.502 142.688 148.162 143.136 150.829C143.368 152.208 143.581 153.59 143.803 154.971C144.02 156.323 144.098 157.79 144.724 159.024C144.905 159.395 145.201 159.699 145.568 159.891C145.935 160.083 146.353 160.151 146.763 160.088C147.172 160.024 147.55 159.832 147.841 159.538C148.132 159.244 148.321 158.864 148.381 158.455C148.602 157 148.177 155.483 147.946 154.044C147.709 152.572 147.464 151.1 147.242 149.625C146.827 146.859 146.434 144.089 146.019 141.323C145.212 135.937 144.285 130.561 143.523 125.169C143.275 123.412 142.944 121.147 143.838 119.506C144.845 117.656 147.365 116.855 149.152 116.002C151.688 114.79 154.203 113.532 156.727 112.295C158.073 111.636 159.43 110.996 160.752 110.286C162.109 109.556 163.221 108.52 164.531 107.732C164.68 107.656 164.795 107.525 164.85 107.367C164.905 107.209 164.898 107.036 164.829 106.883C164.76 106.73 164.635 106.61 164.48 106.546C164.324 106.483 164.151 106.482 163.994 106.543L163.995 106.543Z" fill="#151515"/>
</g>
<g opacity="0.1">
<path d="M142.704 163.486C143.454 164.234 143.324 165.286 142.714 166.116C141.776 167.39 139.915 167.716 138.454 167.978C134.536 168.682 130.656 169.302 126.803 170.33C118.949 172.411 111.333 175.3 104.078 178.951C91.2191 185.456 76.8019 194.888 74.4217 210.305C73.2747 217.733 75.9615 225.138 80.9068 230.689C85.8604 236.249 92.6554 239.814 99.6624 242.098C114.047 246.784 129.743 246.633 144.098 241.927C148.279 240.556 152.158 238.659 156.055 236.64C157.972 235.646 159.8 234.506 161.859 233.817C163.854 233.123 165.913 232.627 168.006 232.336C176.372 231.294 185.935 232.58 193.508 228.182C194.914 227.365 194.024 225.259 192.457 225.852C185.206 228.595 177.72 228.702 170.083 229.23C166.168 229.501 162.417 229.965 158.623 230.975C154.919 231.962 151.542 233.662 148.032 235.161C134.616 240.891 119.42 242.227 105.255 238.57C98.4403 236.81 91.5077 234.033 86.2999 229.164C81.3804 224.565 78.3531 218.106 79.2558 211.317C80.1755 204.4 84.4548 198.489 89.6056 194.003C95.3198 189.025 102.074 185.188 108.892 181.938C116.865 178.137 125.116 175.577 133.67 173.476C137.367 172.569 142.09 172.49 145.064 169.824C147.68 167.48 148.227 163.064 145.269 160.784C143.62 159.514 141.169 161.95 142.703 163.485L142.704 163.486Z" fill="#151515"/>
</g>
</g>
</g>
<path d="M70.5226 313.5C70.1903 313.527 69.8777 313.465 69.5847 313.314C69.2929 313.177 69.023 312.898 68.7752 312.476C68.5264 312.041 68.3097 311.423 68.1251 310.622C67.9528 309.807 67.8139 308.741 67.7085 307.425C67.6925 307.226 67.6766 307.026 67.6606 306.827C67.6436 306.614 67.6332 306.401 67.6294 306.187C67.3355 307.027 66.9924 307.837 66.6001 308.617C66.2212 309.396 65.8087 310.092 65.3627 310.702C64.93 311.312 64.4811 311.803 64.0159 312.174C63.5641 312.545 63.1188 312.748 62.6802 312.783C61.8961 312.845 61.2341 312.597 60.6945 312.038C60.1681 311.479 59.8501 310.514 59.7404 309.145C59.6755 308.334 59.6661 307.466 59.7122 306.539C59.7717 305.611 59.8726 304.701 60.015 303.806C60.1574 302.912 60.3194 302.097 60.5012 301.36C60.6962 300.622 60.903 300.03 61.1214 299.585C61.3399 299.139 61.5488 298.909 61.7482 298.893C62.0804 298.866 62.3332 298.933 62.5066 299.093C62.6921 299.239 62.7956 299.444 62.8168 299.71C62.8318 299.896 62.7869 300.254 62.6822 300.784C62.5775 301.314 62.4481 301.953 62.294 302.701C62.1389 303.436 61.9813 304.224 61.8214 305.066C61.6747 305.908 61.5608 306.739 61.4795 307.562C61.3972 308.371 61.3826 309.108 61.4359 309.772C61.4902 310.45 61.7898 310.767 62.3347 310.724C62.9727 310.673 63.549 310.352 64.0635 309.763C64.577 309.16 65.0363 308.381 65.4413 307.426C65.8463 306.47 66.2029 305.412 66.5112 304.25C66.8316 303.074 67.1106 301.882 67.3481 300.672C67.3253 300.554 67.308 300.421 67.2963 300.275C67.2846 300.129 67.2697 299.943 67.2516 299.717C67.2281 299.425 67.2829 299.106 67.4157 298.761C67.5608 298.402 67.7429 298.086 67.9619 297.814C68.1809 297.543 68.41 297.397 68.6493 297.378C69.1012 297.342 69.3527 297.643 69.4038 298.281C69.4165 298.44 69.3974 298.703 69.3464 299.068C69.3087 299.432 69.2638 299.957 69.2118 300.644C69.1731 301.329 69.158 302.226 69.1666 303.336C69.1885 304.444 69.266 305.829 69.3991 307.491C69.512 308.899 69.6644 309.884 69.8564 310.444C70.0606 310.989 70.3155 311.25 70.6212 311.225C71.02 311.193 71.3868 310.93 71.7217 310.435C72.0698 309.939 72.3765 309.259 72.6417 308.395C72.9202 307.53 73.1476 306.529 73.324 305.391C73.5126 304.239 73.6539 302.997 73.7479 301.666C73.8541 300.32 73.91 298.931 73.9157 297.499C73.9353 296.909 74.0281 296.48 74.1939 296.213C74.3598 295.946 74.5424 295.804 74.7417 295.788C74.8614 295.778 74.9969 295.801 75.1484 295.856C75.3122 295.896 75.4547 296.005 75.5759 296.183C75.6972 296.36 75.7737 296.648 75.8057 297.047C75.9707 299.107 75.968 300.993 75.7975 302.706C75.6392 304.404 75.3659 305.917 74.9774 307.246C74.5878 308.561 74.1358 309.68 73.6212 310.604C73.1056 311.515 72.5735 312.219 72.0249 312.718C71.4885 313.202 70.9878 313.463 70.5226 313.5ZM87.0805 302.928C87.1145 303.353 87.0152 303.782 86.7823 304.216C86.5485 304.636 86.2271 305.049 85.8183 305.456C85.4085 305.85 84.9505 306.228 84.4444 306.589C83.9383 306.951 83.4291 307.272 82.9166 307.554C82.4041 307.836 81.9344 308.067 81.5075 308.249C81.4427 308.775 81.4263 309.238 81.4582 309.637C81.4785 309.889 81.5526 310.064 81.6808 310.161C81.8089 310.258 81.9993 310.296 82.2518 310.276C82.81 310.231 83.3935 310.084 84.0022 309.835C84.6109 309.586 85.2281 309.276 85.8538 308.905C86.4795 308.534 87.077 308.145 87.6464 307.738C88.2157 307.331 88.7335 306.949 89.1997 306.591C89.6792 306.231 90.0771 305.939 90.3934 305.713C90.7097 305.487 90.921 305.37 91.0274 305.361C91.1869 305.348 91.3107 305.392 91.399 305.492C91.4995 305.578 91.5551 305.687 91.5657 305.82C91.5742 305.926 91.4246 306.145 91.1168 306.478C90.8223 306.809 90.4191 307.202 89.9072 307.658C89.3942 308.1 88.8158 308.561 88.172 309.04C87.5283 309.52 86.8558 309.975 86.1546 310.405C85.4667 310.835 84.7929 311.19 84.1331 311.47C83.4867 311.749 82.8976 311.91 82.366 311.952C81.6749 312.007 81.1158 311.791 80.6889 311.304C80.2619 310.816 80.0048 310.027 79.9175 308.937C79.8589 308.206 79.8929 307.461 80.0193 306.702C80.159 305.942 80.3679 305.21 80.6459 304.505C80.9361 303.787 81.2659 303.145 81.6353 302.58C82.017 302.002 82.4282 301.541 82.8689 301.198C83.3085 300.842 83.7476 300.646 84.1862 300.611C85.0236 300.544 85.7001 300.724 86.2158 301.151C86.7316 301.578 87.0198 302.17 87.0805 302.928ZM81.8032 306.68C82.195 306.395 82.599 306.095 83.0153 305.781C83.4315 305.467 83.814 305.148 84.1627 304.826C84.5115 304.504 84.786 304.175 84.9864 303.838C85.199 303.486 85.2915 303.138 85.2638 302.792C85.2244 302.3 84.9389 302.076 84.4073 302.118C84.075 302.145 83.7398 302.386 83.4018 302.841C83.0759 303.281 82.7735 303.847 82.4944 304.538C82.2154 305.229 81.985 305.943 81.8032 306.68ZM101.936 310.408C101.364 310.454 100.95 310.373 100.693 310.167C100.435 309.96 100.289 309.637 100.254 309.198C100.077 306.992 100.291 304.654 100.896 302.185C101.5 299.702 102.422 297.188 103.662 294.641C103.824 294.32 103.955 294.116 104.055 294.028C104.168 293.938 104.304 293.887 104.464 293.875C104.65 293.86 104.821 293.913 104.978 294.034C105.135 294.155 105.222 294.329 105.24 294.555C105.25 294.674 105.157 295.01 104.96 295.56C104.762 296.098 104.51 296.793 104.204 297.647C103.898 298.501 103.573 299.456 103.23 300.514C102.899 301.557 102.591 302.645 102.308 303.778C102.024 304.911 101.813 306.031 101.674 307.139C101.943 306.663 102.27 306.148 102.654 305.596C103.051 305.043 103.475 304.487 103.925 303.929C104.375 303.372 104.836 302.86 105.307 302.394C105.791 301.928 106.262 301.549 106.72 301.258C107.179 300.967 107.607 300.806 108.006 300.774C108.524 300.733 108.994 300.916 109.414 301.324C109.847 301.717 110.098 302.346 110.167 303.21C110.226 303.941 110.087 304.708 109.75 305.51C109.412 306.3 108.883 307.051 108.165 307.764C107.458 308.462 106.583 309.054 105.538 309.539C104.492 310.01 103.292 310.3 101.936 310.408ZM101.894 308.887C102.997 308.799 103.986 308.532 104.86 308.088C105.734 307.644 106.467 307.11 107.059 306.488C107.664 305.851 108.114 305.206 108.409 304.554C108.717 303.888 108.85 303.295 108.808 302.777C108.779 302.405 108.637 302.229 108.385 302.249C108.079 302.273 107.699 302.451 107.244 302.781C106.789 303.112 106.301 303.539 105.781 304.062C105.275 304.584 104.771 305.146 104.271 305.748C103.77 306.336 103.307 306.908 102.884 307.464C102.473 308.018 102.144 308.492 101.894 308.887ZM113.281 309.863C113.069 309.88 112.882 309.808 112.722 309.647C112.562 309.486 112.47 309.252 112.446 308.947C112.428 308.721 112.444 308.345 112.496 307.819C112.56 307.279 112.623 306.652 112.686 305.938C112.763 305.223 112.817 304.483 112.849 303.718C112.881 302.94 112.868 302.198 112.812 301.494C112.784 301.148 112.85 300.889 113.01 300.716C113.182 300.528 113.382 300.425 113.607 300.407C113.82 300.39 113.99 300.51 114.118 300.767C114.246 301.025 114.308 301.555 114.305 302.358C114.808 300.953 115.392 299.81 116.057 298.927C116.734 298.03 117.424 297.373 118.126 296.956C118.828 296.526 119.471 296.287 120.055 296.24C120.441 296.209 120.726 296.267 120.912 296.412C121.11 296.544 121.216 296.703 121.231 296.889C121.251 297.141 121.161 297.349 120.96 297.512C120.771 297.661 120.432 297.849 119.941 298.075C119.375 298.348 118.858 298.657 118.391 299.002C117.935 299.332 117.508 299.754 117.108 300.268C116.721 300.78 116.351 301.425 115.998 302.202C115.645 302.966 115.305 303.903 114.98 305.012C114.654 306.122 114.319 307.453 113.975 309.005C113.919 309.304 113.829 309.518 113.706 309.648C113.596 309.778 113.454 309.849 113.281 309.863ZM123.064 308.8C122.811 308.821 122.578 308.746 122.363 308.576C122.148 308.392 122.024 308.094 121.991 307.682C121.968 307.39 121.975 306.981 122.013 306.457C122.05 305.919 122.11 305.332 122.193 304.697C122.276 304.061 122.366 303.432 122.463 302.809C122.573 302.172 122.688 301.601 122.808 301.096C122.928 300.592 123.038 300.215 123.139 299.966C123.23 299.772 123.32 299.644 123.409 299.584C123.511 299.522 123.608 299.487 123.701 299.48C123.888 299.465 124.052 299.512 124.194 299.621C124.35 299.729 124.442 299.956 124.47 300.301C124.485 300.501 124.472 300.836 124.43 301.308C124.399 301.765 124.349 302.304 124.278 302.925C124.22 303.532 124.15 304.159 124.068 304.808C123.998 305.442 123.927 306.05 123.853 306.631C123.779 307.212 123.724 307.698 123.689 308.088C123.653 308.305 123.573 308.479 123.45 308.609C123.339 308.725 123.21 308.789 123.064 308.8ZM124.134 297.62C123.829 297.644 123.529 297.574 123.235 297.411C122.954 297.246 122.797 296.957 122.764 296.545C122.736 296.2 122.794 295.914 122.936 295.689C123.092 295.462 123.279 295.294 123.498 295.183C123.728 295.057 123.93 294.988 124.103 294.974C124.276 294.96 124.472 294.984 124.691 295.047C124.922 295.096 125.125 295.213 125.301 295.4C125.475 295.573 125.577 295.846 125.607 296.218C125.627 296.47 125.559 296.703 125.402 296.916C125.244 297.116 125.043 297.279 124.799 297.406C124.569 297.531 124.347 297.603 124.134 297.62ZM129.467 307.727C129.082 307.758 128.719 307.566 128.378 307.152C128.037 306.738 127.839 306.185 127.783 305.494C127.723 304.736 127.758 303.918 127.888 303.038C128.031 302.157 128.22 301.259 128.454 300.344C128.688 299.416 128.917 298.522 129.142 297.661C129.195 297.483 129.278 297.349 129.391 297.26C129.517 297.156 129.712 297.094 129.978 297.072C130.456 297.034 130.714 297.248 130.752 297.713C130.76 297.819 130.726 298.063 130.65 298.443C130.573 298.824 130.47 299.294 130.341 299.852C130.225 300.41 130.107 301.015 129.985 301.667C129.862 302.305 129.76 302.949 129.678 303.597C129.596 304.246 129.551 304.845 129.541 305.394C129.736 305.151 129.947 304.786 130.176 304.3C130.418 303.812 130.675 303.263 130.947 302.653C131.218 302.029 131.502 301.405 131.8 300.779C132.096 300.14 132.397 299.554 132.702 299.022C133.02 298.475 133.332 298.035 133.64 297.703C133.96 297.356 134.266 297.171 134.559 297.148C134.984 297.114 135.353 297.218 135.667 297.461C135.993 297.689 136.262 298.122 136.474 298.76C136.697 299.385 136.856 300.281 136.95 301.451C137 302.076 137.107 302.656 137.27 303.191C137.446 303.725 137.688 304.148 137.993 304.458C138.311 304.753 138.696 304.883 139.148 304.847C139.826 304.793 140.421 304.625 140.934 304.343C141.445 304.048 141.881 303.732 142.242 303.396C142.615 303.045 142.925 302.739 143.172 302.479C143.417 302.205 143.613 302.062 143.76 302.051C144.065 302.026 144.231 302.173 144.256 302.492C144.267 302.625 144.184 302.846 144.008 303.154C143.845 303.448 143.604 303.788 143.288 304.175C142.983 304.547 142.625 304.917 142.213 305.284C141.813 305.637 141.376 305.939 140.901 306.191C140.44 306.442 139.963 306.587 139.471 306.627C138.554 306.7 137.789 306.581 137.175 306.268C136.575 305.955 136.102 305.398 135.757 304.596C135.425 303.793 135.204 302.701 135.093 301.319C135.033 300.561 134.942 300.013 134.821 299.675C134.713 299.322 134.541 299.095 134.305 298.994C134.168 299.286 133.994 299.701 133.783 300.239C133.571 300.765 133.324 301.353 133.042 302.004C132.773 302.654 132.484 303.313 132.177 303.979C131.881 304.632 131.575 305.238 131.259 305.798C130.943 306.358 130.632 306.818 130.326 307.177C130.019 307.522 129.733 307.706 129.467 307.727ZM145.015 312.243C143.991 312.325 143.232 312.285 142.738 312.124C142.243 311.963 141.983 311.716 141.956 311.384C141.939 311.171 141.992 310.993 142.114 310.85C142.25 310.705 142.424 310.624 142.636 310.607C142.862 310.589 143.191 310.596 143.621 310.629C144.053 310.675 144.475 310.681 144.887 310.648C146.256 310.539 147.346 310.044 148.159 309.163C148.971 308.282 149.543 306.986 149.874 305.274C150.204 303.549 150.343 301.371 150.293 298.74C149.959 299.582 149.572 300.429 149.132 301.28C148.704 302.117 148.231 302.89 147.713 303.601C147.207 304.296 146.671 304.868 146.105 305.314C145.539 305.761 144.963 306.007 144.378 306.054C143.82 306.099 143.397 305.992 143.109 305.734C142.834 305.475 142.671 305.027 142.62 304.389C142.574 303.817 142.685 303.2 142.953 302.536C143.22 301.86 143.593 301.174 144.072 300.481C144.552 299.787 145.087 299.122 145.678 298.486C146.268 297.837 146.864 297.261 147.466 296.759C148.08 296.241 148.655 295.828 149.192 295.517C149.729 295.207 150.171 295.038 150.516 295.01C150.862 294.982 151.137 295.081 151.342 295.305C151.548 295.53 151.677 295.974 151.73 296.639C151.855 298.194 151.923 299.713 151.935 301.197C151.959 302.666 151.875 304.044 151.684 305.33C151.493 306.616 151.142 307.754 150.633 308.744C150.138 309.747 149.434 310.552 148.519 311.16C147.605 311.769 146.437 312.129 145.015 312.243ZM149.778 296.815C149.147 297.293 148.501 297.826 147.839 298.414C147.178 299.002 146.565 299.619 146.001 300.266C145.451 300.912 145.016 301.569 144.695 302.237C144.374 302.904 144.239 303.557 144.29 304.195C144.306 304.395 144.44 304.484 144.692 304.464C144.892 304.448 145.152 304.273 145.473 303.94C145.806 303.592 146.172 303.142 146.569 302.589C146.965 302.022 147.364 301.408 147.765 300.747C148.18 300.072 148.56 299.393 148.906 298.71C149.253 298.027 149.543 297.395 149.778 296.815ZM167.977 304.65C167.592 304.681 167.229 304.489 166.888 304.075C166.547 303.661 166.349 303.108 166.294 302.417C166.233 301.659 166.268 300.841 166.398 299.961C166.541 299.08 166.73 298.182 166.964 297.267C167.198 296.339 167.427 295.445 167.652 294.584C167.705 294.406 167.788 294.272 167.901 294.183C168.027 294.079 168.222 294.017 168.488 293.995C168.967 293.957 169.224 294.171 169.262 294.636C169.27 294.742 169.236 294.986 169.16 295.366C169.083 295.747 168.98 296.217 168.851 296.775C168.735 297.333 168.617 297.938 168.495 298.589C168.372 299.228 168.27 299.871 168.188 300.52C168.106 301.169 168.061 301.767 168.051 302.317C168.246 302.074 168.457 301.709 168.686 301.223C168.928 300.735 169.185 300.186 169.457 299.576C169.728 298.952 170.012 298.328 170.31 297.702C170.606 297.063 170.907 296.477 171.212 295.945C171.53 295.398 171.842 294.958 172.15 294.626C172.47 294.279 172.776 294.094 173.069 294.071C173.494 294.037 173.864 294.141 174.177 294.383C174.503 294.612 174.772 295.045 174.984 295.683C175.208 296.308 175.366 297.204 175.46 298.374C175.51 298.999 175.617 299.579 175.78 300.114C175.957 300.648 176.198 301.07 176.503 301.38C176.821 301.676 177.206 301.806 177.658 301.77C178.336 301.716 178.931 301.548 179.444 301.266C179.955 300.971 180.391 300.655 180.752 300.319C181.125 299.968 181.435 299.662 181.682 299.402C181.927 299.128 182.123 298.985 182.27 298.974C182.575 298.949 182.741 299.096 182.766 299.415C182.777 299.548 182.694 299.769 182.519 300.077C182.355 300.371 182.115 300.711 181.798 301.098C181.493 301.47 181.135 301.84 180.723 302.207C180.323 302.56 179.886 302.862 179.411 303.114C178.95 303.365 178.473 303.51 177.981 303.55C177.064 303.623 176.299 303.503 175.685 303.191C175.085 302.878 174.612 302.321 174.267 301.519C173.935 300.716 173.714 299.624 173.603 298.241C173.543 297.484 173.452 296.936 173.331 296.598C173.223 296.245 173.051 296.018 172.815 295.917C172.678 296.209 172.504 296.624 172.293 297.162C172.081 297.688 171.834 298.276 171.552 298.927C171.283 299.577 170.994 300.236 170.687 300.902C170.391 301.555 170.085 302.161 169.769 302.721C169.453 303.281 169.142 303.741 168.836 304.1C168.529 304.445 168.243 304.629 167.977 304.65ZM189.333 294.758C189.367 295.183 189.267 295.612 189.035 296.045C188.801 296.465 188.479 296.879 188.071 297.286C187.661 297.68 187.203 298.058 186.697 298.419C186.191 298.781 185.681 299.102 185.169 299.384C184.656 299.666 184.187 299.897 183.76 300.078C183.695 300.605 183.679 301.068 183.71 301.467C183.731 301.719 183.805 301.894 183.933 301.991C184.061 302.087 184.251 302.126 184.504 302.106C185.062 302.061 185.646 301.914 186.254 301.665C186.863 301.415 187.48 301.105 188.106 300.734C188.732 300.363 189.329 299.974 189.899 299.568C190.468 299.161 190.986 298.779 191.452 298.42C191.931 298.061 192.329 297.768 192.646 297.543C192.962 297.317 193.173 297.199 193.28 297.191C193.439 297.178 193.563 297.222 193.651 297.322C193.752 297.407 193.807 297.517 193.818 297.649C193.826 297.756 193.677 297.975 193.369 298.307C193.075 298.639 192.671 299.032 192.159 299.487C191.646 299.93 191.068 300.391 190.424 300.87C189.78 301.349 189.108 301.805 188.407 302.235C187.719 302.665 187.045 303.019 186.385 303.299C185.739 303.578 185.15 303.739 184.618 303.782C183.927 303.837 183.368 303.621 182.941 303.133C182.514 302.646 182.257 301.857 182.17 300.767C182.111 300.036 182.145 299.291 182.272 298.532C182.411 297.772 182.62 297.039 182.898 296.335C183.188 295.616 183.518 294.975 183.888 294.41C184.269 293.831 184.68 293.37 185.121 293.028C185.561 292.671 186 292.476 186.438 292.441C187.276 292.374 187.952 292.554 188.468 292.981C188.984 293.408 189.272 294 189.333 294.758ZM184.055 298.51C184.447 298.224 184.851 297.925 185.268 297.61C185.684 297.296 186.066 296.978 186.415 296.656C186.764 296.334 187.038 296.004 187.239 295.667C187.451 295.316 187.544 294.967 187.516 294.622C187.477 294.13 187.191 293.905 186.66 293.948C186.327 293.974 185.992 294.215 185.654 294.67C185.328 295.111 185.026 295.677 184.747 296.368C184.468 297.059 184.237 297.773 184.055 298.51ZM195.41 303.501C194.945 303.538 194.543 303.363 194.204 302.976C193.878 302.574 193.671 301.834 193.585 300.758C193.495 299.628 193.427 298.53 193.381 297.464C193.335 296.384 193.331 295.415 193.369 294.555C193.421 293.695 193.526 293.005 193.685 292.484C193.844 291.963 194.083 291.689 194.402 291.664C194.627 291.646 194.837 291.756 195.03 291.995C195.222 292.22 195.334 292.532 195.366 292.931C195.399 293.343 195.403 293.898 195.379 294.595C195.354 295.293 195.314 296.045 195.259 296.852C195.215 297.645 195.183 298.417 195.163 299.167C195.142 299.905 195.152 300.526 195.192 301.031C195.209 301.243 195.23 301.416 195.253 301.548C195.29 301.665 195.334 301.722 195.387 301.717C195.587 301.701 195.786 301.512 195.984 301.148C196.194 300.77 196.41 300.285 196.63 299.692C196.849 299.086 197.077 298.426 197.314 297.711C197.55 296.983 197.793 296.262 198.043 295.546C198.293 294.831 198.555 294.174 198.828 293.577C199.101 292.967 199.382 292.477 199.674 292.105C199.964 291.721 200.262 291.517 200.568 291.492C200.926 291.464 201.272 291.61 201.606 291.931C201.951 292.238 202.149 292.704 202.199 293.328C202.214 293.514 202.214 293.842 202.198 294.311C202.181 294.768 202.156 295.291 202.123 295.882C202.09 296.474 202.057 297.065 202.024 297.656C201.99 298.234 201.965 298.751 201.948 299.207C201.93 299.65 201.928 299.964 201.943 300.15C201.999 300.841 202.093 301.182 202.226 301.171C202.598 301.141 202.971 300.877 203.346 300.379C203.733 299.867 204.109 299.221 204.475 298.443C204.853 297.651 205.219 296.799 205.574 295.888C205.942 294.962 206.292 294.078 206.626 293.235C206.778 292.795 206.908 292.497 207.016 292.341C207.136 292.171 207.263 292.081 207.395 292.07C207.582 292.055 207.762 292.141 207.938 292.328C208.127 292.514 208.235 292.779 208.262 293.125C208.272 293.244 208.275 293.364 208.271 293.485C208.266 293.592 208.243 293.715 208.2 293.852C207.844 295.084 207.448 296.233 207.012 297.298C206.574 298.349 206.113 299.275 205.629 300.076C205.157 300.863 204.679 301.49 204.195 301.957C203.709 302.41 203.247 302.654 202.809 302.689C202.051 302.75 201.443 302.585 200.983 302.193C200.536 301.788 200.283 301.219 200.225 300.488C200.2 300.183 200.188 299.782 200.189 299.287C200.203 298.791 200.22 298.255 200.24 297.678C200.274 297.1 200.31 296.542 200.347 296.004C200.384 295.466 200.413 294.996 200.435 294.593C200.469 294.189 200.487 293.913 200.489 293.766C200.487 293.579 200.46 293.487 200.407 293.492C200.353 293.496 200.261 293.677 200.129 294.035C200.01 294.379 199.864 294.819 199.693 295.354C199.534 295.875 199.364 296.417 199.181 296.98C198.977 297.598 198.737 298.28 198.462 299.024C198.2 299.754 197.908 300.453 197.587 301.12C197.279 301.787 196.942 302.342 196.577 302.786C196.211 303.23 195.822 303.468 195.41 303.501ZM221.442 300.94C221.189 300.96 220.956 300.885 220.741 300.715C220.526 300.531 220.402 300.234 220.369 299.822C220.345 299.529 220.353 299.121 220.391 298.596C220.428 298.058 220.488 297.471 220.571 296.836C220.654 296.201 220.744 295.572 220.841 294.949C220.951 294.311 221.065 293.74 221.186 293.236C221.306 292.731 221.416 292.355 221.516 292.106C221.608 291.911 221.698 291.784 221.787 291.723C221.889 291.661 221.986 291.627 222.079 291.619C222.265 291.604 222.43 291.652 222.572 291.761C222.728 291.868 222.82 292.095 222.847 292.441C222.863 292.64 222.85 292.976 222.808 293.447C222.777 293.904 222.727 294.443 222.656 295.064C222.598 295.671 222.528 296.298 222.446 296.947C222.376 297.581 222.305 298.189 222.231 298.77C222.157 299.351 222.102 299.837 222.067 300.228C222.031 300.445 221.951 300.618 221.827 300.748C221.716 300.864 221.588 300.928 221.442 300.94ZM222.512 289.759C222.206 289.783 221.907 289.714 221.613 289.55C221.332 289.385 221.175 289.097 221.142 288.685C221.114 288.339 221.172 288.054 221.314 287.828C221.47 287.602 221.657 287.433 221.876 287.322C222.106 287.196 222.308 287.127 222.481 287.113C222.654 287.099 222.849 287.124 223.069 287.186C223.3 287.235 223.503 287.352 223.679 287.539C223.853 287.712 223.955 287.985 223.985 288.357C224.005 288.61 223.937 288.843 223.78 289.056C223.622 289.256 223.421 289.419 223.177 289.545C222.946 289.671 222.725 289.742 222.512 289.759ZM227.845 299.866C227.46 299.897 227.096 299.705 226.756 299.291C226.415 298.877 226.217 298.324 226.161 297.633C226.101 296.876 226.135 296.057 226.266 295.177C226.409 294.296 226.598 293.398 226.832 292.484C227.066 291.555 227.295 290.661 227.52 289.8C227.573 289.622 227.656 289.488 227.769 289.399C227.894 289.295 228.09 289.233 228.356 289.212C228.834 289.174 229.092 289.387 229.129 289.852C229.138 289.959 229.104 290.202 229.027 290.583C228.951 290.963 228.848 291.433 228.719 291.992C228.603 292.549 228.484 293.154 228.363 293.806C228.24 294.444 228.138 295.088 228.056 295.736C227.974 296.385 227.928 296.984 227.919 297.533C228.113 297.29 228.325 296.925 228.554 296.439C228.795 295.952 229.052 295.403 229.325 294.792C229.596 294.169 229.88 293.544 230.178 292.918C230.474 292.279 230.775 291.694 231.08 291.161C231.398 290.614 231.71 290.174 232.018 289.842C232.338 289.496 232.644 289.311 232.937 289.287C233.362 289.253 233.731 289.357 234.045 289.6C234.371 289.828 234.64 290.261 234.851 290.9C235.075 291.524 235.234 292.421 235.328 293.59C235.378 294.215 235.484 294.795 235.648 295.33C235.824 295.865 236.065 296.287 236.371 296.597C236.689 296.892 237.074 297.022 237.526 296.986C238.204 296.932 238.799 296.764 239.311 296.482C239.823 296.187 240.259 295.872 240.62 295.535C240.993 295.184 241.303 294.879 241.55 294.618C241.795 294.344 241.991 294.202 242.137 294.19C242.443 294.165 242.609 294.313 242.634 294.632C242.645 294.765 242.562 294.985 242.386 295.294C242.223 295.588 241.982 295.928 241.665 296.314C241.361 296.686 241.003 297.056 240.591 297.423C240.191 297.776 239.754 298.079 239.279 298.331C238.817 298.582 238.341 298.727 237.849 298.766C236.932 298.839 236.167 298.72 235.553 298.408C234.953 298.095 234.48 297.537 234.135 296.735C233.803 295.933 233.582 294.84 233.471 293.458C233.411 292.7 233.32 292.152 233.199 291.814C233.091 291.462 232.919 291.235 232.683 291.133C232.546 291.425 232.372 291.84 232.161 292.379C231.949 292.904 231.702 293.492 231.419 294.143C231.15 294.794 230.862 295.452 230.554 296.119C230.259 296.771 229.953 297.377 229.637 297.937C229.32 298.498 229.009 298.957 228.704 299.316C228.397 299.662 228.111 299.845 227.845 299.866ZM244.74 299.419C244.448 299.443 244.215 299.374 244.042 299.214C243.883 299.066 243.795 298.886 243.778 298.673C243.763 298.487 243.829 298.308 243.976 298.136C244.134 297.949 244.355 297.778 244.637 297.622C245.146 297.3 245.622 296.981 246.065 296.665C246.521 296.348 246.882 296.018 247.149 295.675C247.416 295.333 247.535 294.982 247.506 294.624C247.482 294.318 247.364 294.093 247.151 293.95C246.938 293.793 246.659 293.728 246.313 293.756C246.114 293.772 245.838 293.834 245.485 293.942C245.132 294.038 244.746 294.149 244.328 294.276C243.923 294.388 243.524 294.5 243.131 294.612C242.738 294.71 242.402 294.771 242.123 294.793C241.618 294.833 241.229 294.744 240.958 294.525C240.685 294.293 240.531 293.964 240.497 293.538C240.48 293.326 240.581 292.997 240.799 292.551C241.018 292.106 241.312 291.607 241.683 291.056C242.066 290.491 242.488 289.922 242.951 289.35C243.413 288.778 243.885 288.245 244.368 287.752C244.863 287.257 245.326 286.853 245.755 286.537C246.198 286.221 246.572 286.051 246.878 286.026C247.184 286.002 247.424 286.083 247.6 286.27C247.775 286.456 247.875 286.702 247.9 287.008C247.919 287.247 247.895 287.457 247.829 287.636C247.762 287.802 247.606 287.941 247.361 288.054C247.13 288.166 246.762 288.249 246.258 288.303C245.772 288.756 245.259 289.272 244.716 289.851C244.186 290.415 243.704 290.995 243.271 291.591C242.849 292.173 242.552 292.726 242.38 293.248C242.807 293.066 243.329 292.898 243.945 292.741C244.573 292.571 245.213 292.459 245.864 292.407C246.888 292.326 247.664 292.498 248.193 292.924C248.734 293.335 249.034 293.913 249.094 294.657C249.132 295.136 249.02 295.646 248.755 296.189C248.503 296.718 248.156 297.22 247.712 297.697C247.269 298.174 246.786 298.567 246.262 298.876C245.739 299.199 245.232 299.38 244.74 299.419ZM252.514 298.457C252.262 298.477 252.028 298.402 251.814 298.232C251.599 298.049 251.475 297.751 251.442 297.339C251.418 297.046 251.426 296.638 251.464 296.113C251.501 295.575 251.561 294.989 251.644 294.353C251.727 293.718 251.817 293.089 251.914 292.466C252.023 291.828 252.138 291.257 252.258 290.753C252.378 290.248 252.489 289.872 252.589 289.623C252.681 289.428 252.771 289.301 252.86 289.24C252.962 289.179 253.059 289.144 253.152 289.137C253.338 289.122 253.503 289.169 253.645 289.278C253.801 289.386 253.893 289.612 253.92 289.958C253.936 290.157 253.923 290.493 253.88 290.964C253.85 291.422 253.8 291.961 253.729 292.582C253.671 293.188 253.601 293.816 253.519 294.464C253.449 295.098 253.377 295.706 253.304 296.287C253.23 296.868 253.175 297.354 253.139 297.745C253.103 297.962 253.024 298.135 252.9 298.266C252.789 298.381 252.661 298.445 252.514 298.457ZM253.585 287.276C253.279 287.301 252.979 287.231 252.685 287.067C252.405 286.902 252.248 286.614 252.215 286.202C252.187 285.856 252.245 285.571 252.387 285.345C252.543 285.119 252.73 284.95 252.948 284.839C253.179 284.714 253.381 284.644 253.554 284.63C253.726 284.616 253.922 284.641 254.141 284.704C254.373 284.752 254.576 284.87 254.751 285.056C254.926 285.23 255.028 285.502 255.058 285.874C255.078 286.127 255.01 286.36 254.853 286.573C254.695 286.773 254.494 286.936 254.25 287.062C254.019 287.188 253.798 287.259 253.585 287.276ZM258.793 303.152C257.769 303.234 257.01 303.194 256.516 303.033C256.021 302.872 255.761 302.625 255.734 302.293C255.717 302.08 255.77 301.902 255.892 301.758C256.028 301.614 256.202 301.533 256.414 301.516C256.64 301.498 256.969 301.505 257.399 301.538C257.831 301.583 258.253 301.59 258.665 301.557C260.034 301.448 261.124 300.952 261.937 300.072C262.749 299.191 263.321 297.894 263.652 296.183C263.982 294.458 264.121 292.279 264.071 289.648C263.737 290.491 263.35 291.338 262.91 292.189C262.482 293.026 262.009 293.799 261.491 294.509C260.985 295.205 260.449 295.776 259.883 296.223C259.317 296.669 258.741 296.916 258.156 296.963C257.598 297.007 257.175 296.901 256.887 296.643C256.612 296.384 256.449 295.936 256.398 295.298C256.352 294.726 256.463 294.109 256.731 293.445C256.998 292.768 257.371 292.083 257.85 291.389C258.33 290.696 258.865 290.031 259.456 289.395C260.046 288.746 260.642 288.17 261.244 287.667C261.858 287.15 262.433 286.736 262.97 286.426C263.507 286.115 263.949 285.946 264.294 285.919C264.64 285.891 264.915 285.99 265.12 286.214C265.326 286.438 265.455 286.883 265.508 287.547C265.633 289.102 265.701 290.622 265.713 292.106C265.737 293.575 265.653 294.953 265.462 296.239C265.271 297.525 264.92 298.663 264.411 299.653C263.916 300.656 263.212 301.461 262.297 302.069C261.383 302.677 260.215 303.038 258.793 303.152ZM263.556 287.723C262.925 288.202 262.279 288.735 261.617 289.323C260.956 289.911 260.343 290.528 259.779 291.175C259.229 291.821 258.794 292.478 258.473 293.145C258.152 293.813 258.017 294.466 258.068 295.104C258.084 295.303 258.218 295.393 258.47 295.373C258.67 295.357 258.93 295.182 259.251 294.849C259.584 294.501 259.95 294.051 260.347 293.497C260.743 292.931 261.142 292.317 261.543 291.656C261.958 290.981 262.338 290.302 262.684 289.619C263.031 288.936 263.321 288.304 263.556 287.723ZM270.625 297.812C270.332 297.836 270.1 297.767 269.926 297.607C269.754 297.461 269.642 297.062 269.59 296.41C269.542 295.812 269.586 295.026 269.722 294.052C269.857 293.065 270.056 291.966 270.32 290.754C270.584 289.543 270.892 288.288 271.242 286.989C271.592 285.677 271.964 284.39 272.358 283.128C272.764 281.851 273.158 280.683 273.542 279.622C273.685 279.236 273.843 278.963 274.018 278.802C274.192 278.641 274.405 278.55 274.658 278.53C274.831 278.516 274.981 278.558 275.109 278.654C275.25 278.737 275.329 278.891 275.347 279.117C275.353 279.197 275.288 279.463 275.15 279.915C275.026 280.366 274.846 280.963 274.611 281.704C274.39 282.444 274.142 283.273 273.867 284.191C273.593 285.109 273.316 286.074 273.036 287.086C272.756 288.098 272.496 289.116 272.257 290.138C272.017 291.147 271.82 292.112 271.667 293.034C271.513 293.956 271.425 294.779 271.403 295.503C271.691 295.092 272.017 294.571 272.381 293.94C272.745 293.309 273.132 292.63 273.542 291.901C273.952 291.173 274.369 290.451 274.793 289.735C275.217 289.019 275.64 288.363 276.06 287.768C276.481 287.172 276.877 286.692 277.249 286.328C277.633 285.95 277.978 285.748 278.284 285.724C278.789 285.684 279.207 285.811 279.538 286.105C279.882 286.385 280.082 286.878 280.138 287.582C280.17 287.981 280.129 288.466 280.014 289.037C279.913 289.607 279.787 290.205 279.636 290.832C279.486 291.46 279.353 292.059 279.238 292.63C279.137 293.2 279.102 293.684 279.134 294.083C279.178 294.628 279.406 294.884 279.818 294.851C280.456 294.8 281.082 294.609 281.698 294.279C282.327 293.948 282.917 293.553 283.469 293.094C284.02 292.622 284.524 292.154 284.982 291.689C285.438 291.212 285.827 290.806 286.148 290.473C286.494 290.111 286.793 289.92 287.045 289.899C287.364 289.874 287.537 290.027 287.564 290.36C287.571 290.453 287.56 290.561 287.53 290.683C287.499 290.806 287.405 290.967 287.247 291.167C287.054 291.424 286.773 291.76 286.405 292.178C286.051 292.594 285.632 293.042 285.149 293.522C284.679 294.001 284.16 294.457 283.593 294.89C283.039 295.322 282.46 295.69 281.855 295.992C281.263 296.28 280.675 296.448 280.09 296.494C279.292 296.558 278.656 296.381 278.181 295.965C277.719 295.533 277.455 294.913 277.39 294.102C277.35 293.597 277.38 292.979 277.482 292.249C277.584 291.518 277.723 290.745 277.898 289.928C278.086 289.097 278.275 288.286 278.466 287.495C278.064 287.821 277.634 288.297 277.176 288.922C276.73 289.533 276.264 290.226 275.777 291C275.29 291.762 274.803 292.536 274.318 293.324C273.846 294.111 273.383 294.843 272.929 295.522C272.487 296.186 272.069 296.727 271.675 297.147C271.281 297.566 270.93 297.788 270.625 297.812ZM284.747 289.361C284.386 289.363 284.201 289.144 284.192 288.703C284.197 288.595 284.26 288.463 284.381 288.307C284.502 288.136 284.647 288.038 284.819 288.011C285.228 287.938 285.728 287.838 286.32 287.71C286.924 287.568 287.587 287.408 288.308 287.23C288.389 286.568 288.493 285.871 288.622 285.139C288.751 284.406 288.901 283.692 289.072 282.996C289.243 282.287 289.432 281.643 289.64 281.065C289.848 280.486 290.078 280.026 290.332 279.685C290.466 279.527 290.591 279.417 290.707 279.354C290.821 279.278 290.925 279.237 291.018 279.229C291.204 279.214 291.356 279.282 291.476 279.433C291.608 279.583 291.682 279.758 291.698 279.957C291.707 280.064 291.695 280.171 291.664 280.281C291.458 281.046 291.245 281.986 291.027 283.101C290.809 284.215 290.578 285.43 290.336 286.747C291.543 286.45 292.748 286.14 293.953 285.816C295.158 285.493 296.191 285.203 297.054 284.946C297.298 284.82 297.492 284.825 297.636 284.96C297.794 285.095 297.879 285.235 297.891 285.381C297.906 285.567 297.864 285.711 297.765 285.813C297.679 285.913 297.586 286.001 297.485 286.076L297.467 286.097C297.209 286.225 296.821 286.383 296.301 286.572C295.78 286.747 295.18 286.942 294.502 287.157C293.822 287.358 293.097 287.563 292.324 287.772C291.565 287.98 290.811 288.174 290.063 288.354C289.851 289.548 289.635 290.776 289.415 292.037C289.208 293.285 288.998 294.512 288.787 295.719C288.693 296.208 288.564 296.519 288.401 296.653C288.252 296.799 288.084 296.879 287.898 296.894C287.686 296.911 287.493 296.846 287.321 296.699C287.162 296.551 287.116 296.227 287.183 295.727L288.094 288.812C287.306 288.996 286.608 289.138 286.001 289.24C285.407 289.341 284.989 289.382 284.747 289.361ZM299.877 295.014C299.585 295.037 299.352 294.969 299.179 294.809C299.02 294.661 298.932 294.481 298.915 294.268C298.9 294.082 298.966 293.903 299.112 293.73C299.271 293.544 299.492 293.372 299.773 293.216C300.283 292.895 300.759 292.576 301.202 292.259C301.658 291.942 302.019 291.612 302.286 291.27C302.553 290.927 302.672 290.577 302.643 290.218C302.619 289.912 302.5 289.688 302.288 289.544C302.075 289.387 301.796 289.323 301.45 289.35C301.251 289.366 300.975 289.428 300.622 289.537C300.269 289.632 299.883 289.743 299.465 289.87C299.06 289.983 298.661 290.095 298.268 290.206C297.875 290.305 297.539 290.365 297.259 290.387C296.754 290.428 296.366 290.338 296.094 290.119C295.822 289.887 295.668 289.558 295.634 289.133C295.617 288.92 295.718 288.591 295.936 288.146C296.155 287.7 296.449 287.202 296.82 286.651C297.202 286.085 297.625 285.516 298.087 284.944C298.55 284.372 299.022 283.84 299.504 283.346C300 282.852 300.462 282.447 300.892 282.132C301.335 281.816 301.709 281.645 302.015 281.621C302.32 281.596 302.561 281.677 302.736 281.864C302.912 282.051 303.012 282.297 303.036 282.603C303.055 282.842 303.032 283.051 302.966 283.23C302.899 283.396 302.743 283.536 302.498 283.649C302.266 283.761 301.898 283.844 301.394 283.897C300.909 284.351 300.395 284.867 299.853 285.445C299.323 286.009 298.841 286.589 298.407 287.186C297.986 287.768 297.689 288.32 297.517 288.842C297.944 288.661 298.465 288.492 299.081 288.336C299.71 288.165 300.35 288.054 301.001 288.002C302.024 287.92 302.801 288.092 303.33 288.518C303.871 288.929 304.171 289.507 304.231 290.252C304.269 290.73 304.156 291.241 303.892 291.784C303.64 292.312 303.293 292.815 302.849 293.291C302.406 293.768 301.922 294.161 301.399 294.471C300.876 294.793 300.369 294.974 299.877 295.014Z" fill="#151515"/>
<defs>
<linearGradient id="paint0_linear_754_4476" x1="242.196" y1="111.217" x2="244.543" y2="126.316" gradientUnits="userSpaceOnUse">
<stop stop-color="#28ED9B"/>
<stop offset="1" stop-color="#0A7D60"/>
</linearGradient>
<linearGradient id="paint1_linear_754_4476" x1="224.659" y1="125.433" x2="237.785" y2="209.885" gradientUnits="userSpaceOnUse">
<stop stop-color="#28ED9B"/>
<stop offset="1" stop-color="#0A7D60"/>
</linearGradient>
<linearGradient id="paint2_linear_754_4476" x1="194.465" y1="158.421" x2="198.814" y2="186.407" gradientUnits="userSpaceOnUse">
<stop stop-color="#28ED9B"/>
<stop offset="1" stop-color="#0A7D60"/>
</linearGradient>
<linearGradient id="paint3_linear_754_4476" x1="129.603" y1="162.12" x2="142.054" y2="242.229" gradientUnits="userSpaceOnUse">
<stop stop-color="#28ED9B"/>
<stop offset="1" stop-color="#0A7D60"/>
</linearGradient>
<linearGradient id="paint4_linear_754_4476" x1="147.783" y1="204.206" x2="153.443" y2="240.625" gradientUnits="userSpaceOnUse">
<stop stop-color="#28ED9B"/>
<stop offset="1" stop-color="#0A7D60"/>
</linearGradient>
<clipPath id="clip0_754_4476">
<rect width="272.93" height="272.601" fill="white" transform="matrix(0.988136 -0.153579 0.153959 0.988077 11.1992 63.4502)"/>
</clipPath>
</defs>
</svg>
