<svg width="19" height="19" viewBox="0 0 19 19" fill="none" xmlns="http://www.w3.org/2000/svg">
<path fill-rule="evenodd" clip-rule="evenodd" d="M13.666 0.242676H5.66602C2.9046 0.242676 0.666016 2.48126 0.666016 5.24268V13.2427C0.666016 16.0041 2.9046 18.2427 5.66602 18.2427H13.666C16.4274 18.2427 18.666 16.0041 18.666 13.2427V5.24268C18.666 2.48126 16.4274 0.242676 13.666 0.242676ZM16.916 13.2427C16.9105 15.0353 15.4586 16.4872 13.666 16.4927H5.66602C3.87337 16.4872 2.42151 15.0353 2.41602 13.2427V5.24268C2.42151 3.45003 3.87337 1.99817 5.66602 1.99268H13.666C15.4586 1.99817 16.9105 3.45003 16.916 5.24268V13.2427ZM14.416 5.49268C14.9683 5.49268 15.416 5.04496 15.416 4.49268C15.416 3.9404 14.9683 3.49268 14.416 3.49268C13.8637 3.49268 13.416 3.9404 13.416 4.49268C13.416 5.04496 13.8637 5.49268 14.416 5.49268ZM9.66602 4.74268C7.18074 4.74268 5.16602 6.7574 5.16602 9.24268C5.16602 11.728 7.18074 13.7427 9.66602 13.7427C12.1513 13.7427 14.166 11.728 14.166 9.24268C14.1687 8.04838 13.6954 6.90225 12.8509 6.05776C12.0064 5.21327 10.8603 4.74002 9.66602 4.74268ZM6.91602 9.24268C6.91602 10.7615 8.14722 11.9927 9.66602 11.9927C11.1848 11.9927 12.416 10.7615 12.416 9.24268C12.416 7.72388 11.1848 6.49268 9.66602 6.49268C8.14722 6.49268 6.91602 7.72388 6.91602 9.24268Z" fill="#F9F9F9"/>
</svg>
