<svg width="19" height="19" viewBox="0 0 19 19" fill="none" xmlns="http://www.w3.org/2000/svg">
<path fill-rule="evenodd" clip-rule="evenodd" d="M2.16602 0.242676C1.33759 0.242676 0.666016 0.914246 0.666016 1.74268V16.7427C0.666016 17.5711 1.33759 18.2427 2.16602 18.2427H17.166C17.9944 18.2427 18.666 17.5711 18.666 16.7427V1.74268C18.666 0.914246 17.9944 0.242676 17.166 0.242676H2.16602ZM6.18678 4.2454C6.19241 5.20165 5.47663 5.79087 4.62725 5.78665C3.82709 5.78243 3.12959 5.1454 3.13381 4.24681C3.13803 3.40165 3.806 2.72243 4.67366 2.74212C5.55397 2.76181 6.19241 3.40728 6.18678 4.2454ZM9.94572 7.00444H7.42573H7.42432V15.5643H10.0877V15.3646C10.0877 14.9847 10.0874 14.6047 10.0871 14.2246C10.0863 13.2108 10.0854 12.1959 10.0906 11.1824C10.092 10.9363 10.1032 10.6804 10.1665 10.4455C10.4041 9.56798 11.1931 9.00128 12.0734 9.14058C12.6387 9.22908 13.0127 9.55678 13.1702 10.0898C13.2673 10.423 13.3109 10.7816 13.3151 11.129C13.3265 12.1766 13.3249 13.2242 13.3233 14.2719C13.3227 14.6417 13.3221 15.0117 13.3221 15.3815V15.5629H15.994V15.3576C15.994 14.9056 15.9938 14.4537 15.9935 14.0018C15.993 12.8723 15.9924 11.7428 15.9954 10.6129C15.9968 10.1024 15.942 9.59898 15.8168 9.10538C15.6298 8.37128 15.2431 7.76378 14.6145 7.32508C14.1687 7.01287 13.6793 6.81178 13.1323 6.78928C13.07 6.78669 13.0072 6.7833 12.9441 6.77989C12.6644 6.76477 12.3801 6.74941 12.1127 6.80334C11.3477 6.95662 10.6756 7.30678 10.1679 7.92408C10.1089 7.99488 10.0512 8.06678 9.96512 8.17408L9.94572 8.19838V7.00444ZM3.34766 15.5671H5.99844V7.01001H3.34766V15.5671Z" fill="#F9F9F9"/>
</svg>
