<svg width="21" height="15" viewBox="0 0 21 15" fill="none" xmlns="http://www.w3.org/2000/svg">
<path d="M20.2593 2.20301C20.1454 1.78041 19.9228 1.39501 19.6137 1.08518C19.3046 0.775338 18.9197 0.551868 18.4973 0.437007C16.9313 0.00700739 10.6663 7.59651e-06 10.6663 7.59651e-06C10.6663 7.59651e-06 4.40235 -0.00699261 2.83535 0.404007C2.41327 0.524154 2.02917 0.750785 1.71991 1.06214C1.41066 1.3735 1.18663 1.75913 1.06935 2.18201C0.656345 3.74801 0.652345 6.99601 0.652345 6.99601C0.652345 6.99601 0.648345 10.26 1.05835 11.81C1.28835 12.667 1.96335 13.344 2.82135 13.575C4.40335 14.005 10.6513 14.012 10.6513 14.012C10.6513 14.012 16.9163 14.019 18.4823 13.609C18.9048 13.4943 19.2901 13.2714 19.6 12.9622C19.9099 12.653 20.1337 12.2682 20.2493 11.846C20.6633 10.281 20.6663 7.03401 20.6663 7.03401C20.6663 7.03401 20.6863 3.76901 20.2593 2.20301ZM8.66235 10.005L8.66735 4.00501L13.8743 7.01001L8.66235 10.005Z" fill="#F9F9F9"/>
</svg>
