<svg width="24" height="24" viewBox="0 0 24 24" fill="none" xmlns="http://www.w3.org/2000/svg">
<path fill-rule="evenodd" clip-rule="evenodd" d="M2.77409 12.4814C3.07033 12.778 3.07004 13.2586 2.77343 13.5548L2.61779 13.7103C2.48483 13.8431 2.48483 14.058 2.61779 14.1908C2.75125 14.3241 2.96801 14.3241 3.10147 14.1908L4.8136 12.4807C5.1102 12.1845 5.59079 12.1848 5.88704 12.4814C6.18328 12.778 6.18298 13.2586 5.88638 13.5548L4.17426 15.2648C3.4481 15.9901 2.27116 15.9901 1.545 15.2648C0.818334 14.5391 0.818333 13.362 1.545 12.6362L1.70065 12.4807C1.99725 12.1845 2.47784 12.1848 2.77409 12.4814ZM7.68665 13.4896C7.98307 13.7861 7.98307 14.2667 7.68665 14.5631L5.54424 16.7055C5.24782 17.0019 4.76723 17.0019 4.4708 16.7055C4.17438 16.409 4.17438 15.9285 4.4708 15.632L6.61321 13.4896C6.90963 13.1932 7.39023 13.1932 7.68665 13.4896ZM10.4958 16.2953C10.7922 16.5918 10.7922 17.0724 10.4958 17.3688L8.36805 19.4965C8.07162 19.7929 7.59103 19.7929 7.29461 19.4965C6.99818 19.2001 6.99818 18.7195 7.29461 18.4231L9.42237 16.2953C9.71879 15.9989 10.1994 15.9989 10.4958 16.2953ZM7.29719 16.696C7.5903 16.9957 7.58495 17.4762 7.28525 17.7693L5.55508 19.4614C5.25538 19.7545 4.77481 19.7491 4.48171 19.4494C4.1886 19.1497 4.19395 18.6692 4.49365 18.3761L6.22382 16.684C6.52352 16.3909 7.00409 16.3963 7.29719 16.696ZM11.4811 18.118C11.7774 18.4146 11.7771 18.8952 11.4805 19.1915L9.76834 20.9015C9.63539 21.0343 9.63539 21.2492 9.76834 21.382C9.9018 21.5153 10.1186 21.5153 10.252 21.382L10.4077 21.2265C10.7043 20.9303 11.1849 20.9306 11.4811 21.2272C11.7774 21.5238 11.7771 22.0044 11.4805 22.3006L11.3248 22.4561C10.5987 23.1813 9.42171 23.1813 8.69556 22.4561C7.96889 21.7303 7.96889 20.5532 8.69556 19.8274L10.4077 18.1174C10.7043 17.8211 11.1849 17.8214 11.4811 18.118Z" fill="#171717"/>
<path d="M10.8465 5.40901L8.65886 7.59012C8.25673 7.99102 7.88786 8.35877 7.59655 8.69121C7.40948 8.9047 7.22253 9.13836 7.06417 9.39655L7.04285 9.3753C7.00239 9.33496 6.98214 9.31476 6.96182 9.29505C6.58157 8.9261 6.13429 8.63276 5.64391 8.43073C5.61771 8.41993 5.59111 8.40939 5.53792 8.38831L5.21219 8.25925C4.77092 8.0844 4.65332 7.51634 4.98909 7.18159C5.95273 6.22088 7.10972 5.0674 7.66809 4.83573C8.16053 4.63141 8.69248 4.56343 9.20554 4.63925C9.67562 4.70872 10.1203 4.95019 10.8465 5.40901Z" fill="#171717"/>
<path d="M14.582 16.8932C14.7583 17.0722 14.8754 17.1985 14.9812 17.3336C15.1209 17.5118 15.2458 17.7011 15.3546 17.8995C15.4771 18.1229 15.5723 18.3615 15.7625 18.8388C15.9174 19.2273 16.4319 19.33 16.7308 19.032L16.8031 18.9599C17.7667 17.9992 18.9237 16.8457 19.156 16.289C19.361 15.7981 19.4292 15.2677 19.3531 14.7562C19.2834 14.2876 19.0413 13.8443 18.5812 13.1204L16.3862 15.3088C15.975 15.7188 15.5979 16.0948 15.2569 16.3893C15.0525 16.5658 14.8289 16.7422 14.582 16.8932Z" fill="#171717"/>
<path fill-rule="evenodd" clip-rule="evenodd" d="M15.5022 14.3674L20.5318 9.35289C21.2562 8.63072 21.6184 8.26963 21.8091 7.81046C21.9999 7.3513 21.9999 6.84065 21.9999 5.81937V5.33146C21.9999 3.76099 21.9999 2.97576 21.5105 2.48788C21.0212 2 20.2336 2 18.6584 2H18.169C17.1446 2 16.6324 2 16.1719 2.19019C15.7113 2.38039 15.3492 2.74147 14.6248 3.46364L9.59508 8.47817C8.74868 9.32202 8.22386 9.84526 8.02064 10.3506C7.95643 10.5103 7.92432 10.6682 7.92432 10.8339C7.92432 11.5238 8.48124 12.0791 9.59508 13.1896L9.74478 13.3388L11.4984 11.5591C11.7485 11.3053 12.157 11.3022 12.4108 11.5523C12.6646 11.8024 12.6677 12.2109 12.4176 12.4647L10.6586 14.2499L10.7765 14.3674C11.8904 15.4779 12.4473 16.0331 13.1393 16.0331C13.2923 16.0331 13.4386 16.006 13.5857 15.9518C14.1047 15.7607 14.6344 15.2325 15.5022 14.3674ZM17.8651 8.47854C17.2126 9.12904 16.1547 9.12904 15.5023 8.47854C14.8498 7.82803 14.8498 6.77335 15.5023 6.12284C16.1547 5.47233 17.2126 5.47233 17.8651 6.12284C18.5176 6.77335 18.5176 7.82803 17.8651 8.47854Z" fill="#171717"/>
</svg>
