<svg width="67" height="56" viewBox="0 0 67 56" fill="none" xmlns="http://www.w3.org/2000/svg">
<path d="M33.5 1C48.3764 1 60.5 13.1236 60.5 28C60.5 42.8764 48.3764 55 33.5 55C18.6236 55 6.5 42.8764 6.5 28C6.5 13.1236 18.6236 1 33.5 1ZM46.999 18.4062C46.0063 17.4135 44.3687 17.4135 43.376 18.4062L29.5947 32.1875L23.624 26.2168C22.6313 25.224 20.9937 25.224 20.001 26.2168C19.0087 27.2096 19.0084 28.8462 20.001 29.8389L27.7842 37.6211C28.2618 38.0986 28.9108 38.372 29.5947 38.3721C30.2788 38.3721 30.9286 38.0988 31.4062 37.6211L47.0049 22.0225C47.9862 21.007 47.9948 19.4022 46.999 18.4062Z" fill="#11B76A" stroke="#11B76A"/>
</svg>
